<?xml version="1.0" standalone="no"?>
<!DOCTYPE svg PUBLIC "-//W3C//DTD SVG 1.1//EN" "http://www.w3.org/Graphics/SVG/1.1/DTD/svg11.dtd" >
<svg xmlns="http://www.w3.org/2000/svg" xmlns:xlink="http://www.w3.org/1999/xlink" version="1.1">
<metadata>
Created by FontForge 20170731 at Wed Dec 14 12:55:21 2022
 By Aleksey,,,
Copyright 2022 The GajrajOne Project Authors (https://github.com/xconsau/gajrajone)
</metadata>
<defs>
<font id="GajrajOne-Regular" horiz-adv-x="360" >
  <font-face 
    font-family="Gajraj One"
    font-weight="400"
    font-stretch="normal"
    units-per-em="1000"
    panose-1="0 0 0 0 0 0 0 0 0 0"
    ascent="800"
    descent="-200"
    x-height="500"
    cap-height="665"
    bbox="-670 -505 2100 1051"
    underline-thickness="50"
    underline-position="-175"
    unicode-range="U+000D-A8FB"
  />
<missing-glyph horiz-adv-x="500" 
d="M30 21v623q0 11 10.5 16t19.5 5h380q9 0 19.5 -5t10.5 -16v-623q0 -10 -10.5 -15.5t-19.5 -5.5h-380q-9 0 -19.5 5.5t-10.5 15.5zM90 42h320v581h-320v-581z" />
    <glyph glyph-name=".notdef" horiz-adv-x="500" 
d="M30 21v623q0 11 10.5 16t19.5 5h380q9 0 19.5 -5t10.5 -16v-623q0 -10 -10.5 -15.5t-19.5 -5.5h-380q-9 0 -19.5 5.5t-10.5 15.5zM90 42h320v581h-320v-581z" />
    <glyph glyph-name=".null" horiz-adv-x="0" 
 />
    <glyph glyph-name="nonmarkingreturn" horiz-adv-x="333" 
 />
    <glyph glyph-name="NULL" horiz-adv-x="0" 
 />
    <glyph glyph-name="NULL" horiz-adv-x="0" 
 />
    <glyph glyph-name="CR" unicode="&#xd;" horiz-adv-x="250" 
 />
    <glyph glyph-name="space" unicode=" " horiz-adv-x="260" 
 />
    <glyph glyph-name="exclam" unicode="!" horiz-adv-x="300" 
d="M30 665h240l-38 -452h-164zM230 128v-109q0 -8 -17.5 -12t-36.5 -5.5t-26 -1.5h-80v109q0 8 17.5 12t37 5.5t25.5 1.5h80z" />
    <glyph glyph-name="quotedbl" unicode="&#x22;" horiz-adv-x="420" 
d="M30 472v243h75q6 0 24.5 -1.5t34.5 -5t16 -11.5v-225h-150zM240 472v243h75q6 0 24.5 -1.5t34.5 -5t16 -11.5v-225h-150z" />
    <glyph glyph-name="numbersign" unicode="#" horiz-adv-x="647" 
d="M202 700h120l-28 -200h110l28 200h120l-28 -200h93v-67h-102l-23 -165h88v-67h-98l-28 -201h-120l28 201h-110l-28 -201h-120l28 201h-102v67h112l23 165h-98v67h107zM262 268h110l23 165h-110z" />
    <glyph glyph-name="dollar" unicode="$" horiz-adv-x="631" 
d="M583 631v-62h-280v-217h88h31t51.5 -1t55.5 -4t44.5 -9t17.5 -17v-290q0 -10 -17 -16t-40.5 -9.5t-44 -4.5t-28.5 -1h-68v-30l3 -60v-30h-140v30l3 60v30h-218v62h290v228h-88h-31t-51.5 1t-55.5 4t-44.5 9.5t-17.5 16.5v279q0 10 17 16t40.5 9.5t44 4.5t28.5 1h96
q-1 30 -1.5 60t-1.5 60h140q-1 -30 -1.5 -60t-1.5 -60h180z" />
    <glyph glyph-name="percent" unicode="%" horiz-adv-x="961" 
d="M651 668l118 -5l-459 -666l-118 6zM30 356v290q0 8 17.5 12t37 5.5t25.5 1.5h192q7 0 26 -1.5t36.5 -5.5t17.5 -12v-290q0 -8 -17.5 -12t-36.5 -5.5t-26 -1.5h-192q-6 0 -25.5 1.5t-37 5.5t-17.5 12zM190 375h32v252h-32v-252zM579 19v290q0 8 17.5 12t37 5.5t25.5 1.5
h192q7 0 26 -1.5t36.5 -5.5t17.5 -12v-290q0 -8 -17.5 -12t-36.5 -5.5t-26 -1.5h-192q-6 0 -25.5 1.5t-37 5.5t-17.5 12zM739 38h32v252h-32v-252z" />
    <glyph glyph-name="ampersand" unicode="&#x26;" horiz-adv-x="866" 
d="M488 428v169h-50v-89q0 -17 -1 -34t3 -34q8 -38 38.5 -66t57.5 -54l248 -238q4 -4 16.5 -15.5t24 -23t11.5 -16.5q0 -10 -18 -17t-43.5 -10.5t-48 -5t-30.5 -1.5q-17 0 -42 1.5t-48.5 6.5t-38.5 13q-10 7 -23 19.5t-24 23.5v-23q0 -10 -18 -17t-43.5 -10.5t-48 -5
t-30.5 -1.5h-210q-8 0 -30.5 1.5t-48 5t-43.5 10.5t-18 17v222q0 11 18 17.5t43.5 10t48 5t30.5 1.5h110l-20 19q-22 22 -46 43.5t-40 48t-16 60.5v170q0 11 18 17.5t43.5 10t48 5t30.5 1.5h330q8 0 30.5 -1.5t48 -5t43.5 -10t18 -17.5v-169q0 -10 -18 -17t-43.5 -10.5
t-48 -5t-30.5 -1.5h-140zM310 68h60q35 0 70 -0.5t70 -0.5l-1 1l-199 193v-193z" />
    <glyph glyph-name="quotesingle" unicode="'" horiz-adv-x="210" 
d="M30 472v243h75q6 0 24.5 -1.5t34.5 -5t16 -11.5v-225h-150z" />
    <glyph glyph-name="parenleft" unicode="(" horiz-adv-x="323" 
d="M78 696h240q-21 -97 -34.5 -196.5t-13.5 -199.5q0 -95 13 -191.5t35 -189.5h-240q-22 94 -35 189.5t-13 191.5q0 101 13.5 200t34.5 196z" />
    <glyph glyph-name="parenright" unicode=")" horiz-adv-x="328" 
d="M250 696q21 -97 34.5 -196t13.5 -200q0 -96 -13 -191.5t-35 -189.5h-240q22 93 35 189.5t13 191.5q0 100 -13.5 199.5t-34.5 196.5h240z" />
    <glyph glyph-name="asterisk" unicode="*" horiz-adv-x="546" 
d="M207 748h134l-23 -172l157 75l41 -127l-173 -31l122 -127l-109 -79l-83 155l-83 -155l-109 79l121 126l-172 31l42 127l159 -76z" />
    <glyph glyph-name="plus" unicode="+" horiz-adv-x="520" 
d="M30 209v68h150v161h160v-161h150v-68h-150v-161h-160v161h-150z" />
    <glyph glyph-name="comma" unicode="," horiz-adv-x="221" 
d="M40 74v23h75q6 0 24.5 -1.5t35 -5t15.5 -11.5l-10 -200h-150z" />
    <glyph glyph-name="hyphen" unicode="-" 
d="M30 209v68h300v-68h-300z" />
    <glyph glyph-name="period" unicode="." horiz-adv-x="220" 
d="M190 128v-109q0 -8 -17.5 -12t-36.5 -5.5t-26 -1.5h-80v109q0 8 17.5 12t37 5.5t25.5 1.5h80z" />
    <glyph glyph-name="slash" unicode="/" horiz-adv-x="460" 
d="M320 665h120l-300 -725h-120z" />
    <glyph glyph-name="zero" unicode="0" horiz-adv-x="680" 
d="M30 34v597q0 11 18 17.5t43.5 10t48 5t30.5 1.5h340q8 0 30.5 -1.5t48 -5t43.5 -10t18 -17.5v-597q0 -10 -18 -17t-43.5 -10.5t-48 -5t-30.5 -1.5h-340q-8 0 -30.5 1.5t-48 5t-43.5 10.5t-18 17zM310 68h60v529h-60v-529z" />
    <glyph glyph-name="one" unicode="1" horiz-adv-x="410" 
d="M380 0h-280v597h-80v68h220q8 0 30.5 -1.5t48 -5t43.5 -10t18 -17.5v-631z" />
    <glyph glyph-name="two" unicode="2" horiz-adv-x="610" 
d="M580 67v-67h-410q-8 0 -30.5 1.5t-48 5t-43.5 10t-18 17.5v170q0 6 6.5 10t10.5 6q58 27 122 51.5t123 48.5v278h-250v67h390q8 0 30.5 -1.5t48 -4.5t43.5 -9.5t18 -17.5v-321q0 -6 -6 -10t-11 -6q-58 -27 -122 -51.5t-123 -48.5v-128h270z" />
    <glyph glyph-name="three" unicode="3" horiz-adv-x="590" 
d="M60 298v67h184q20 13 26 35t5.5 47.5t-0.5 46.5v104h-235v67h375q8 0 30.5 -1.5t48 -4.5t43.5 -9.5t18 -17.5v-203q0 -39 -21 -58t-52 -25t-62 -9v-11q31 -2 63.5 -8t54.5 -25t22 -60v-119q0 -40 -23 -63t-58 -34t-72.5 -14t-66.5 -3h-310v68h235q10 14 12.5 29.5
t2.5 32.5v79q0 26 -3.5 49.5t-27.5 39.5h-189z" />
    <glyph glyph-name="four" unicode="4" horiz-adv-x="700" 
d="M20 665h280v-375h90v375h280v-665h-280v222h-230q-8 0 -30.5 1.5t-48 5t-43.5 10.5t-18 17v409z" />
    <glyph glyph-name="five" unicode="5" horiz-adv-x="610" 
d="M570 665v-67h-231l-14 -215h65q21 0 53 -2t63 -10t52.5 -25t21.5 -47v-215q0 -30 -21.5 -47.5t-52.5 -25t-63 -9.5t-53 -2h-360v67h267q3 8 3 17v215q0 9 -3 16h-257l24 350h506z" />
    <glyph glyph-name="six" unicode="6" horiz-adv-x="680" 
d="M640 665v-67h-330v-201q6 11 28 17t50.5 9t54 3.5t37.5 0.5q10 0 37 -1t58 -4t53 -10t22 -19v-359q0 -11 -18 -17.5t-43.5 -10t-48 -5t-30.5 -1.5h-340q-8 0 -30.5 1.5t-48 5t-43.5 10.5t-18 17v598q0 11 18 17.5t43.5 9.5t48 4.5t30.5 1.5h470zM310 67h60v292h-60v-292z
" />
    <glyph glyph-name="seven" unicode="7" horiz-adv-x="580" 
d="M30 597v68h390q8 0 30.5 -1.5t48 -5t43.5 -10t18 -17.5q0 -3 -5.5 -22.5t-13 -44.5t-14.5 -46.5t-9 -28.5l-148 -489h-280l180 597h-240z" />
    <glyph glyph-name="eight" unicode="8" horiz-adv-x="700" 
d="M247 347h-67q-8 0 -30.5 1.5t-48 5t-43.5 10.5t-18 17v251q0 11 18 17.5t43.5 9.5t48 4.5t30.5 1.5h340q8 0 30.5 -1.5t48 -4.5t43.5 -9.5t18 -17.5v-251q0 -7 -11.5 -13t-25 -10t-18.5 -6l-174 -58h99q8 0 30.5 -1.5t48 -5t43.5 -10t18 -17.5v-226q0 -11 -18 -17.5
t-43.5 -10t-48 -5t-30.5 -1.5h-360q-8 0 -30.5 1.5t-48 5t-43.5 10t-18 17.5v230q0 7 11.5 13t25 10.5t18.5 5.5zM320 372l60 20v206h-60v-226zM310 67h80v213l-80 -27v-186z" />
    <glyph glyph-name="nine" unicode="9" horiz-adv-x="680" 
d="M40 0v67h330v164q-6 -11 -28 -17t-50 -9t-53.5 -3.5t-37.5 -0.5q-10 0 -37 1t-58 4t-53.5 10t-22.5 19v397q0 11 18 17.5t43.5 9.5t48 4.5t30.5 1.5h340q8 0 30.5 -1.5t48 -4.5t43.5 -9.5t18 -17.5v-598q0 -10 -18 -17t-43.5 -10.5t-48 -5t-30.5 -1.5h-470zM310 269h60
v329h-60v-329z" />
    <glyph glyph-name="colon" unicode=":" horiz-adv-x="260" 
d="M50 326v109q0 8 17.5 12t37 5.5t25.5 1.5h80v-109q0 -8 -17.5 -12t-36.5 -5.5t-26 -1.5h-80zM50 10v109q0 8 17.5 12t37 5.5t25.5 1.5h80v-109q0 -8 -17.5 -12t-36.5 -5.5t-26 -1.5h-80z" />
    <glyph glyph-name="semicolon" unicode=";" horiz-adv-x="308" 
d="M70 326v109q0 8 17.5 12t37 5.5t25.5 1.5h80v-109q0 -8 -17.5 -12t-36.5 -5.5t-26 -1.5h-80zM75 74v23h75q6 0 24.5 -1.5t35 -5t15.5 -11.5l-10 -200h-150z" />
    <glyph glyph-name="less" unicode="&#x3c;" horiz-adv-x="637" 
d="M267 250l340 -240l-226 -20l-331 233q-5 4 -17.5 12.5t-12.5 14.5t12.5 14.5t17.5 12.5l331 233l226 -20z" />
    <glyph glyph-name="equal" unicode="=" horiz-adv-x="480" 
d="M30 309v68h420v-68h-420zM30 109v68h420v-68h-420z" />
    <glyph glyph-name="greater" unicode="&#x3e;" horiz-adv-x="637" 
d="M30 10l340 240l-340 240l226 20l331 -233q5 -4 17.5 -12.5t12.5 -14.5t-12.5 -14.5t-17.5 -12.5l-331 -233z" />
    <glyph glyph-name="question" unicode="?" horiz-adv-x="520" 
d="M40 212v26v6t1 6q5 9 23 15t41 9.5t44 4.5t31 1h30v317h-180v68h320q8 0 30.5 -1.5t48 -5t43.5 -10t18 -17.5v-385q0 -10 -18 -17t-43.5 -10.5t-48 -5t-30.5 -1.5h-310zM40 0v109q0 8 17.5 12t37 5.5t25.5 1.5h80v-109q0 -8 -17.5 -12t-36.5 -5.5t-26 -1.5h-80z" />
    <glyph glyph-name="at" unicode="@" horiz-adv-x="1090" 
d="M790 -122v65h80v-99q0 -16 -13 -25t-27 -9h-710q-37 0 -63.5 23t-26.5 61v670q0 38 26.5 61t63.5 23h850q37 0 63.5 -23t26.5 -61v-480q0 -43 -30 -63.5t-70 -20.5h-228q-8 0 -28.5 1.5t-44.5 4.5t-43 9t-23 15q-4 -9 -22.5 -15t-41.5 -9.5t-44 -4.5t-31 -1h-92
q-8 0 -30.5 1.5t-48 5t-43.5 10.5t-18 17v390q0 11 18 17.5t43.5 10t48 5t30.5 1.5h370q12 0 34.5 -1.5t47 -5t41.5 -10t17 -17.5v-356h97q7 0 9 6t2 11v478q0 6 -1.5 11.5t-9.5 5.5h-848q-7 0 -9 -5.5t-2 -11.5v-668q0 -4 1 -8.5t4 -8.5h675zM502 68h90v322h-90v-322z" />
    <glyph glyph-name="A" unicode="A" horiz-adv-x="780" 
d="M320 0h-290v630q0 11 19 18t45 10.5t49 5t32 1.5h430q9 0 32 -1.5t49 -5t45 -10.5t19 -18v-630h-290v271h-140v-271zM320 341h140v254h-140v-254z" />
    <glyph glyph-name="B" unicode="B" horiz-adv-x="780" 
d="M565 346v-11q29 0 60.5 -3t58.5 -12t44 -28t17 -52v-205q0 -11 -19 -18t-45 -10.5t-49 -5t-32 -1.5h-420q-9 0 -32 1.5t-49 5t-45 10.5t-19 18v595q0 11 19 18t45 10.5t49 5t32 1.5h401q9 0 32 -1.5t49 -5t45 -10.5t19 -18v-190q0 -40 -25 -60t-62 -26.5t-74 -7.5z
M325 375h79q24 19 28 38t4 47v135h-111v-220zM325 70h130v148q0 28 -3.5 48.5t-28.5 38.5h-98v-235z" />
    <glyph glyph-name="C" unicode="C" horiz-adv-x="615" 
d="M585 70v-70h-410q-9 0 -32 1.5t-49 5t-45 10.5t-19 18v595q0 11 19 18t45 10.5t49 5t32 1.5h410v-70h-265v-525h265z" />
    <glyph glyph-name="D" unicode="D" horiz-adv-x="781" 
d="M30 0v665h496q29 0 67.5 -3t74.5 -14t59.5 -34t23.5 -64v-435q0 -40 -23.5 -63.5t-59.5 -34.5t-74.5 -14t-67.5 -3h-496zM320 70h127q8 10 11 21.5t3 23.5v435q0 12 -3 23.5t-11 21.5h-127v-525z" />
    <glyph glyph-name="E" unicode="E" horiz-adv-x="645" 
d="M605 370v-70h-285v-230h295v-70h-440q-9 0 -32 1.5t-49 5t-45 10.5t-19 18v595q0 11 19 18t45 10.5t49 5t32 1.5h440v-70h-295v-225h285z" />
    <glyph glyph-name="F" unicode="F" horiz-adv-x="595" 
d="M320 0h-290v630q0 11 19 18t45 10.5t49 5t32 1.5h400v-70h-255v-234h244v-70h-244v-291z" />
    <glyph glyph-name="G" unicode="G" horiz-adv-x="760" 
d="M715 665v-70h-395v-525h120v290h290v-325q0 -11 -19 -18t-45 -10.5t-49 -5t-32 -1.5h-410q-9 0 -32 1.5t-49 5t-45 10.5t-19 18v595q0 11 19 18t45 10.5t49 5t32 1.5h540z" />
    <glyph glyph-name="H" unicode="H" horiz-adv-x="780" 
d="M460 665h290v-665h-290v313h-140v-313h-290v665h290v-282h140v282z" />
    <glyph glyph-name="I" unicode="I" horiz-adv-x="350" 
d="M30 665h290v-665h-290v665z" />
    <glyph glyph-name="J" unicode="J" horiz-adv-x="382" 
d="M62 665h290v-599q0 -30 -9 -56.5t-20 -54.5l-45 -123l-288 6l44 123q9 24 15 41t9.5 35t3.5 44v584z" />
    <glyph glyph-name="K" unicode="K" horiz-adv-x="750" 
d="M320 0h-290v665h290v-288l63 14l57 276l290 -4l-47 -224q-1 -5 -4 -21t-6 -31.5t-5 -17.5q-7 -8 -27 -14.5t-41 -10.5t-32 -7l-248 -57v-280zM710 0h-290v290h145q9 0 32 -1.5t49 -5t45 -10.5t19 -18v-255z" />
    <glyph glyph-name="L" unicode="L" horiz-adv-x="595" 
d="M575 70v-70h-400q-9 0 -32 1.5t-49 5t-45 10.5t-19 18v630h290v-595h255z" />
    <glyph glyph-name="M" unicode="M" horiz-adv-x="1130" 
d="M1100 0h-290v595h-100v-595h-290v595h-100v-595h-290v630q0 11 19 18t45 10.5t49 5t32 1.5h390q8 0 29.5 -1t46.5 -4.5t44.5 -9.5t23.5 -15q5 9 23.5 15t43 9.5t46 4.5t31.5 1h102q9 0 32 -1.5t49 -5t45 -10.5t19 -18v-630z" />
    <glyph glyph-name="N" unicode="N" horiz-adv-x="773" 
d="M320 0h-290v630q0 11 19 18t45 10.5t49 5t32 1.5h373q21 0 54 -2t65 -10t54 -25.5t22 -47.5v-580h-290v387q0 9 0.5 31t0.5 50v55.5t-0.5 47t-2.5 24.5h-131v-595z" />
    <glyph glyph-name="O" unicode="O" horiz-adv-x="781" 
d="M606 0h-431q-9 0 -32 1.5t-49 5t-45 10.5t-19 18v595q0 11 19 18t45 10.5t49 5t32 1.5h431q9 0 32 -1.5t49 -5t45 -10.5t19 -18v-595q0 -11 -19 -18t-45 -10.5t-49 -5t-32 -1.5zM320 70h141v525h-141v-525z" />
    <glyph glyph-name="P" unicode="P" horiz-adv-x="740" 
d="M320 0h-290v630q0 11 19 18t45 10.5t49 5t32 1.5h390q9 0 32 -1.5t49 -5t45 -10.5t19 -18v-400q0 -11 -19 -18t-45 -10.5t-49 -5t-32 -1.5h-245v-195zM320 265h100v330h-100v-330z" />
    <glyph glyph-name="Q" unicode="Q" horiz-adv-x="780" 
d="M760 70v-70h-585q-9 0 -32 1.5t-49 5t-45 10.5t-19 18v595q0 11 19 18t45 10.5t49 5t32 1.5h430q9 0 32 -1.5t49 -5t45 -10.5t19 -18v-515q0 -9 -14.5 -15.5t-35.5 -10.5t-43 -6t-37 -3v-10h140zM320 70h140v525h-140v-525z" />
    <glyph glyph-name="R" unicode="R" horiz-adv-x="778" 
d="M320 0h-290v630q0 11 19 18t45 10.5t49 5t32 1.5h400q9 0 32 -1.5t49 -5t45 -10.5t19 -18v-259q0 -7 -15.5 -15t-36.5 -16.5t-39.5 -14.5t-25.5 -9l145 -311l-288 -10q-4 9 -16 35t-29 62t-35 74.5t-34 73t-26 56.5v-296zM430 381v214h-110v-257q13 8 33 15.5t41.5 14.5
t35.5 13z" />
    <glyph glyph-name="S" unicode="S" horiz-adv-x="690" 
d="M645 665v-70h-325v-225h195q9 0 32 -1.5t49 -5t45 -10.5t19 -18v-300q0 -11 -19 -18t-45 -10.5t-49 -5t-32 -1.5h-480v70h335v230h-195q-9 0 -32 1.5t-49 5t-45 10.5t-19 18v295q0 11 19 18t45 10.5t49 5t32 1.5h470z" />
    <glyph glyph-name="T" unicode="T" horiz-adv-x="640" 
d="M465 0h-290v595h-155v70h600v-70h-155v-595z" />
    <glyph glyph-name="U" unicode="U" horiz-adv-x="772" 
d="M451 665h290v-107l-1 -214v-107q0 -50 1 -101t-1 -101q0 -11 -19 -18t-45.5 -10.5t-49.5 -5t-31 -1.5h-420q-9 0 -32 1.5t-49 5t-45 10.5t-19 18v630h290v-595h130v298t1 297z" />
    <glyph glyph-name="V" unicode="V" horiz-adv-x="780" 
d="M30 665h290v-595h30l110 141v454h290v-457q0 -2 -2 -6q-20 -28 -42 -55t-43 -54q-13 -16 -25 -33.5t-26 -32.5q-11 -12 -39.5 -17.5t-57.5 -7.5t-45 -2h-295q-9 0 -32 1.5t-49 5t-45 10.5t-19 18v630z" />
    <glyph glyph-name="W" unicode="W" horiz-adv-x="1130" 
d="M810 665h290v-580q0 -30 -22 -47.5t-54 -25.5t-65 -10t-54 -2h-51q-10 0 -32 1t-46 4.5t-42.5 9.5t-23.5 15q-4 -9 -23.5 -15t-44.5 -9.5t-47 -4.5t-30 -1h-340q-21 0 -54 2t-65 10t-54 25.5t-22 47.5v580h290l2 -595h98v595h290v-595h98z" />
    <glyph glyph-name="X" unicode="X" horiz-adv-x="780" 
d="M40 665h290v-290h-145q-9 0 -32 1.5t-49 5t-45 10.5t-19 18v255zM320 0h-290v290q0 8 12.5 14t30.5 10.5t34 7.5t22 4l331 65v274h290v-290q0 -8 -12.5 -14t-30.5 -10.5t-34 -7.5t-22 -4l-331 -65v-274zM740 0h-290v290h145q9 0 32 -1.5t49 -5t45 -10.5t19 -18v-255z" />
    <glyph glyph-name="Y" unicode="Y" horiz-adv-x="790" 
d="M547 0h-290v190q0 10 17 17t37 12t27 7l132 38v401h290v-414q0 -9 -17 -16.5t-36.5 -12.5t-27.5 -7l-132 -38v-177zM30 665h290v-410h-145q-9 0 -32 1.5t-49 5t-45 10.5t-19 18v375z" />
    <glyph glyph-name="Z" unicode="Z" horiz-adv-x="654" 
d="M52 593v72h423q9 0 32.5 -1.5t51 -5t46.5 -10.5t19 -19l-275 -557h270v-72h-440q-9 0 -32.5 1.5t-50.5 5t-46.5 10.5t-18.5 19l274 557h-253z" />
    <glyph glyph-name="bracketleft" unicode="[" horiz-adv-x="405" 
d="M375 -20v-60h-225q-7 0 -26.5 1t-41 4.5t-37 9.5t-15.5 15v715q0 9 15.5 15t37 9.5t41 4.5t26.5 1h225v-60h-105v-655h105z" />
    <glyph glyph-name="backslash" unicode="\" horiz-adv-x="460" 
d="M140 666l300 -725l-120 -2l-300 725z" />
    <glyph glyph-name="bracketright" unicode="]" horiz-adv-x="405" 
d="M30 -80v60h105v655h-105v60h225q8 0 27 -1t40.5 -4.5t37 -9.5t15.5 -15v-715q0 -9 -15.5 -15t-37 -9.5t-40.5 -4.5t-27 -1h-225z" />
    <glyph glyph-name="asciicircum" unicode="^" horiz-adv-x="504" 
d="M169 481l-139 4l113 195q4 6 18 9t29 4t22 1h80q7 0 22 -1t29.5 -4t17.5 -9l113 -196l-138 -4l-84 144z" />
    <glyph glyph-name="underscore" unicode="_" horiz-adv-x="560" 
d="M30 -68v68h500v-68h-500z" />
    <glyph glyph-name="grave" unicode="`" horiz-adv-x="352" 
d="M301 747l-271 65l24 78l267 -73z" />
    <glyph glyph-name="a" unicode="a" horiz-adv-x="706" 
d="M49 432v68h490q8 0 30.5 -1.5t48 -5t43.5 -10t18 -17.5v-432q0 -10 -18 -17t-43.5 -10.5t-48 -5t-30.5 -1.5h-369q-8 0 -30.5 1.5t-48 5t-43.5 10.5t-18 17v275q0 11 18 17.5t43.5 10t48 5t30.5 1.5h89q11 0 31.5 -1t43.5 -4.5t41 -9.5t23 -15q1 -1 1 -4v123h-350z
M399 275h-89v-207h89v207z" />
    <glyph glyph-name="b" unicode="b" horiz-adv-x="700" 
d="M30 665h280v-193q6 9 24.5 14.5t41 8.5t42.5 4t30 1h82q8 0 30.5 -1.5t48 -5t43.5 -10t18 -17.5v-432q0 -10 -18 -17t-43.5 -10.5t-48 -5t-30.5 -1.5h-360q-8 0 -30.5 1.5t-48 5t-43.5 10.5t-18 17v631zM310 68h80v364h-80v-364z" />
    <glyph glyph-name="c" unicode="c" horiz-adv-x="560" 
d="M530 500v-68h-220v-364h220v-68h-360q-8 0 -30.5 1.5t-48 5t-43.5 10.5t-18 17v432q0 11 18 17.5t43.5 10t48 5t30.5 1.5h360z" />
    <glyph glyph-name="d" unicode="d" horiz-adv-x="700" 
d="M390 665h280v-631q0 -10 -18 -17t-43.5 -10.5t-48 -5t-30.5 -1.5h-360q-8 0 -30.5 1.5t-48 5t-43.5 10.5t-18 17v432q0 11 18 17.5t43.5 10t48 5t30.5 1.5h81q11 0 31.5 -1t43.5 -4.5t41 -9.5t23 -15v195zM310 68h80v364h-80v-364z" />
    <glyph glyph-name="e" unicode="e" horiz-adv-x="700" 
d="M660 68v-68h-490q-8 0 -30.5 1.5t-48 5t-43.5 10.5t-18 17v432q0 11 18 17.5t43.5 10t48 5t30.5 1.5h360q8 0 30.5 -1.5t48 -5t43.5 -10t18 -17.5v-290q0 -10 -18 -17t-43.5 -10.5t-48 -5t-30.5 -1.5h-81q-10 0 -31 1t-44 4.5t-41 9.5t-23 15v-104h350zM310 210h80v222
h-80v-222z" />
    <glyph glyph-name="f" unicode="f" horiz-adv-x="540" 
d="M20 413v68h185v9q-8 0 -29.5 1.5t-46 5t-42 10.5t-17.5 17v107q0 11 17.5 17.5t42 10t46 5t29.5 1.5h305v-68h-160v-116h160v-68h-140v-413h-280v413h-70z" />
    <glyph glyph-name="g" unicode="g" horiz-adv-x="725" 
d="M310 -107h80v130h-220q-8 0 -30.5 1.5t-48 5t-43.5 10.5t-18 17v118q0 11 18 17.5t43.5 10t48 5t30.5 1.5h220v223h-80v-173h-140q-8 0 -30.5 1.5t-48 5t-43.5 10.5t-18 17v173q0 11 18 17.5t43.5 10t48 5t30.5 1.5h535v-68h-159v-9q15 -1 35.5 -3t41 -6t34 -10t13.5 -15
v-214q0 -10 -18 -17t-43.5 -10.5t-48 -5t-30.5 -1.5h-220v-50h220q8 0 30.5 -1.5t48 -5t43.5 -10t18 -17.5v-198q0 -10 -18 -17t-43.5 -10.5t-48 -5t-30.5 -1.5h-360q-8 0 -30.5 1.5t-48 5t-43.5 10.5t-18 17v80q0 11 18 17.5t43.5 10t48 5t30.5 1.5h140v-80z" />
    <glyph glyph-name="h" unicode="h" horiz-adv-x="700" 
d="M310 0h-280v665h280v-195q5 9 23 15t41.5 9t44 4.5t30.5 1.5h81q8 0 30.5 -1.5t48 -5t43.5 -10t18 -17.5v-466h-280v432h-80v-432z" />
    <glyph glyph-name="i" unicode="i" horiz-adv-x="341" 
d="M311 550h-280v81q0 11 18 17.5t43.5 10t48 5t30.5 1.5h140v-115zM30 500h280v-500h-280v500z" />
    <glyph glyph-name="j" unicode="j" horiz-adv-x="350" 
d="M319 551h-280v80q0 11 18 17.5t43.5 10t48 5t30.5 1.5h140v-114zM40 500h280v-631q0 -10 -18 -17t-43.5 -10.5t-48 -5t-30.5 -1.5h-230v68h90v597z" />
    <glyph glyph-name="k" unicode="k" horiz-adv-x="700" 
d="M30 665h280v-378l52 10l28 202h280q-1 -7 -4.5 -32t-7.5 -57t-8 -62.5t-7.5 -51.5t-4.5 -22q-6 -7 -37 -15.5t-74.5 -17.5t-88.5 -17t-80 -14.5t-48 -8.5v-201h-280v665zM660 0h-280v204h140q8 0 30.5 -1.5t48 -5t43.5 -10t18 -17.5v-170z" />
    <glyph glyph-name="l" unicode="l" horiz-adv-x="340" 
d="M310 0h-280v695h280v-695z" />
    <glyph glyph-name="m" unicode="m" horiz-adv-x="1020" 
d="M310 0h-280v466q0 11 18 17.5t43.5 10t48 5t30.5 1.5h340q8 0 28.5 -1t44 -4.5t42.5 -9t24 -14.5q5 9 23.5 14.5t41 8.5t43 4.5t30.5 1.5h63q8 0 30.5 -1.5t48 -5t43.5 -10t18 -17.5v-466h-280v432h-60v-432h-280v432h-60v-432z" />
    <glyph glyph-name="n" unicode="n" horiz-adv-x="700" 
d="M310 0h-280v500h500q8 0 30.5 -1.5t48 -5t43.5 -10t18 -17.5v-466h-280v432h-80v-432z" />
    <glyph glyph-name="o" unicode="o" horiz-adv-x="700" 
d="M530 0h-360q-8 0 -30.5 1.5t-48 5t-43.5 10.5t-18 17v432q0 11 18 17.5t43.5 10t48 5t30.5 1.5h360q8 0 30.5 -1.5t48 -5t43.5 -10t18 -17.5v-432q0 -10 -18 -17t-43.5 -10.5t-48 -5t-30.5 -1.5zM310 68h80v364h-80v-364z" />
    <glyph glyph-name="p" unicode="p" horiz-adv-x="700" 
d="M310 -165h-280v631q0 11 18 17.5t43.5 10t48 5t30.5 1.5h360q8 0 30.5 -1.5t48 -5t43.5 -10t18 -17.5v-432q0 -10 -18 -17t-43.5 -10.5t-48 -5t-30.5 -1.5h-81q-10 0 -31 1t-44 4.5t-41 9.5t-23 15v-195zM310 68h80v364h-80v-364z" />
    <glyph glyph-name="q" unicode="q" horiz-adv-x="700" 
d="M670 -165h-280v195q-5 -9 -23 -15t-41 -9.5t-44 -4.5t-31 -1h-81q-8 0 -30.5 1.5t-48 5t-43.5 10.5t-18 17v432q0 11 18 17.5t43.5 10t48 5t30.5 1.5h360q8 0 30.5 -1.5t48 -5t43.5 -10t18 -17.5v-631zM310 68h80v364h-80v-364z" />
    <glyph glyph-name="r" unicode="r" horiz-adv-x="491" 
d="M310 0h-280v466q0 11 18 17.5t43.5 10t48 5t30.5 1.5h301v-68h-161v-432z" />
    <glyph glyph-name="s" unicode="s" horiz-adv-x="639" 
d="M594 500v-68h-284v-146h116h28.5t47 -1.5t51 -5t40.5 -10t16 -17.5v-218q0 -10 -18 -17t-43.5 -10.5t-48 -5t-30.5 -1.5h-439v68h299v150h-116h-28.5t-47 1.5t-51 5t-40.5 10.5t-16 17v214q0 11 18 17.5t43.5 10t48 5t30.5 1.5h424z" />
    <glyph glyph-name="t" unicode="t" horiz-adv-x="530" 
d="M30 412v68h90v140h260v-140h120v-68h-120v-344h120v-68h-260q-8 0 -30.5 1.5t-48 5t-43.5 10.5t-18 17v335q0 9 13.5 15t33.5 9.5t40.5 5.5t35.5 3v10h-193z" />
    <glyph glyph-name="u" unicode="u" horiz-adv-x="700" 
d="M30 500h280v-432h80v432h280v-466q0 -10 -18 -17t-43.5 -10.5t-48 -5t-30.5 -1.5h-360q-8 0 -30.5 1.5t-48 5t-43.5 10.5t-18 17v466z" />
    <glyph glyph-name="v" unicode="v" horiz-adv-x="700" 
d="M30 500h281v-432h23l56 56v376h280v-380q0 -3 -13 -17t-30 -31.5t-31.5 -31.5t-17.5 -16q-13 -10 -38.5 -15t-52 -7t-43.5 -2h-274q-8 0 -30.5 1.5t-48 5t-43.5 10.5t-18 17v466z" />
    <glyph glyph-name="w" unicode="w" horiz-adv-x="1020" 
d="M370 500h280v-432h60v432h280v-466q0 -10 -18 -17t-43.5 -10.5t-48 -5t-30.5 -1.5h-62q-10 0 -31 1.5t-44 4.5t-41 9t-23 15q-4 -9 -23 -15t-43 -9t-44.5 -4.5t-28.5 -1.5h-340q-8 0 -30.5 1.5t-48 5t-43.5 10.5t-18 17v466h280v-432h60v432z" />
    <glyph glyph-name="x" unicode="x" horiz-adv-x="690" 
d="M380 500h280v-220q0 -9 -30 -18.5t-80.5 -18.5t-113 -19t-126.5 -21v-203h-280v220q0 9 30 18.5t80.5 18.5t113 19t126.5 21v203zM40 500h280v-204h-140q-8 0 -30.5 1.5t-48 5t-43.5 10.5t-18 17v170zM650 0h-280v204h140q8 0 30.5 -1.5t48 -5t43.5 -10t18 -17.5v-170z
" />
    <glyph glyph-name="y" unicode="y" horiz-adv-x="700" 
d="M30 500h280v-432h80v432h280v-631q0 -10 -18 -17t-43.5 -10.5t-48 -5t-30.5 -1.5h-498v68h358v125q-6 -9 -24.5 -14.5t-41 -8.5t-43 -4t-29.5 -1h-82q-8 0 -30.5 1.5t-48 5t-43.5 10.5t-18 17v466z" />
    <glyph glyph-name="z" unicode="z" horiz-adv-x="620" 
d="M590 68v-68h-420q-8 0 -30.5 1.5t-48 5t-43.5 10.5t-18 17q0 1 17 27.5t43.5 68.5t57.5 89.5t60.5 92.5t50.5 77.5t28 42.5h-247v68h410q8 0 30.5 -1.5t48 -5t43.5 -10t18 -17.5q0 -1 -17 -27.5t-43.5 -68.5t-57.5 -89.5t-60.5 -92.5t-50.5 -77.5t-28 -42.5h257z" />
    <glyph glyph-name="braceleft" unicode="{" horiz-adv-x="398" 
d="M378 695v-60h-56q-4 -7 -4 -16v-17v-181q0 -36 -19 -58.5t-48 -34.5t-59 -17v-8q30 -5 59 -17t48 -34t19 -59v-147q0 -12 -0.5 -33.5t4.5 -31.5h56v-60h-130q-20 0 -49 2t-56.5 10t-46 24t-18.5 44v149q0 15 -1 36.5t-5.5 42.5t-16.5 34.5t-35 13.5v60q27 0 39.5 20
t15.5 46.5t3 46.5v165q0 28 18.5 44t46 24t56.5 10t49 2h130z" />
    <glyph glyph-name="bar" unicode="|" horiz-adv-x="210" 
d="M50 695h110v-755h-110v755z" />
    <glyph glyph-name="braceright" unicode="}" horiz-adv-x="398" 
d="M20 695h130q20 0 49 -2t56.5 -10t46 -24t18.5 -44v-165q0 -20 3.5 -46.5t15.5 -46.5t39 -20v-60q-22 0 -34.5 -13.5t-17 -34.5t-5.5 -42.5t-1 -36.5v-149q0 -28 -18.5 -44t-46 -24t-56.5 -10t-49 -2h-130v60h56q5 10 4.5 31.5t-0.5 33.5v147q0 37 19 59t48 34t59 17v8
q-30 5 -59 17t-48 34.5t-19 58.5v181v17t-4 16h-56v60z" />
    <glyph glyph-name="asciitilde" unicode="~" horiz-adv-x="709" 
d="M210 178h-180v160q0 27 16 41.5t40.5 21t50 8t44.5 1.5q59 0 96 -8t64 -25t54.5 -43.5t67.5 -63.5q9 -8 17.5 -16t18.5 -16v172h180v-160q0 -27 -16 -41.5t-40 -21t-49.5 -8t-44.5 -1.5q-56 0 -93 5t-63.5 15.5t-49 28.5t-49 44t-64.5 61v-154z" />
    <glyph glyph-name="uni00A0" unicode="&#xa0;" horiz-adv-x="260" 
 />
    <glyph glyph-name="exclamdown" unicode="&#xa1;" horiz-adv-x="300" 
d="M70 510h80q7 0 26 -1.5t36.5 -5.5t17.5 -12v-109h-80q-6 0 -25.5 1.5t-37 5.5t-17.5 12v109zM30 -155l38 452h164l38 -452h-240z" />
    <glyph glyph-name="cent" unicode="&#xa2;" horiz-adv-x="580" 
d="M530 500v-62h-230v-376h230v-62h-154l3 -145h-100l3 145h-112q-8 0 -28.5 1t-44 4.5t-40.5 9.5t-17 16v438q0 10 17 16t40.5 9.5t44 4.5t28.5 1h112l-3 145h100l-3 -145h154z" />
    <glyph glyph-name="sterling" unicode="&#xa3;" horiz-adv-x="577" 
d="M20 316v64h209v10q-12 0 -33 2t-42.5 5t-36.5 9.5t-15 15.5v161q0 30 20.5 46.5t51 24t61.5 9.5t52 2h260v-64h-172q-2 -4 -3 -19t-1 -31.5v-26.5l1 -144h158v-64h-153v-210q0 -10 -17.5 -16.5t-42 -10t-46 -4.5t-29.5 -1v-10h298v-64h-520v64h87v252h-87z" />
    <glyph glyph-name="currency" unicode="&#xa4;" horiz-adv-x="762" 
d="M658 604l74 -64l-111 -89v-272l111 -89l-74 -64l-87 108q-16 -2 -30 -3t-20 -1h-280q-6 0 -20 1t-30 3l-87 -108l-74 64l111 89v272l-111 89l74 64l87 -108q16 2 30 3t20 1h280q6 0 20 -1t30 -3zM341 190h80v250h-80v-250z" />
    <glyph glyph-name="yen" unicode="&#xa5;" horiz-adv-x="768" 
d="M502 0h-260v53q-34 -1 -69 -2t-70 -1v60q35 0 70 -1t69 -2v45q-34 -1 -69 -2t-70 -1v60q35 0 70 -1t69 -2v13q0 7 15 16t32.5 17t23.5 11l142 75v327h260v-318q0 -12 -15.5 -25t-32.5 -22.5t-23 -12.5l-142 -75v-7q41 2 81 2.5t80 1.5v-60l-80 2t-81 2v-47q41 2 81 2.5
t80 1.5v-60l-80 2t-81 2v-54zM30 665h260v-375h-130q-8 0 -28.5 1t-44 4.5t-40.5 9.5t-17 16v344z" />
    <glyph glyph-name="brokenbar" unicode="&#xa6;" horiz-adv-x="210" 
d="M50 695h110v-310h-110v310zM50 250h110v-310h-110v310z" />
    <glyph glyph-name="section" unicode="&#xa7;" horiz-adv-x="680" 
d="M640 665v-68h-330v-121l211 -43q8 -1 28.5 -5t43.5 -9t40 -12t17 -16v-150q0 -10 -18 -17t-43.5 -10.5t-48 -5t-30.5 -1.5h-140v169l-211 43q-7 2 -28 5.5t-44 8.5t-40 12t-17 16v170q0 11 18 17.5t43.5 10t48 5t30.5 1.5h470zM30 -100v68h340v121l-211 43q-7 2 -28 5.5
t-44 8.5t-40 12t-17 16v150q0 11 18 17.5t43.5 10t48 5t30.5 1.5h140v-169l211 -43q8 -1 28.5 -5t43.5 -9t40 -12t17 -16v-170q0 -10 -18 -17t-43.5 -10.5t-48 -5t-30.5 -1.5h-480z" />
    <glyph glyph-name="dieresis" unicode="&#xa8;" horiz-adv-x="420" 
d="M390 849v-81q0 -6 -13 -9t-27.5 -4.5t-19.5 -1.5h-59v82q0 6 13 9t27.5 4t18.5 1h60zM150 849v-81q0 -6 -13 -9t-27.5 -4.5t-19.5 -1.5h-59v82q0 6 13 9t27.5 4t18.5 1h60z" />
    <glyph glyph-name="copyright" unicode="&#xa9;" horiz-adv-x="790" 
d="M760 581v-497q0 -38 -26.5 -61t-63.5 -23h-550q-37 0 -63.5 23t-26.5 61v497q0 38 26.5 61t63.5 23h550q37 0 63.5 -23t26.5 -61zM680 85v495q0 10 -4 15l-1 1q-2 1 -6 1h-548q-7 0 -9 -5.5t-2 -11.5v-495q0 -10 4 -15l1 -1q2 -1 6 -1h548q7 0 9 5.5t2 11.5zM570 500v-48
h-150v-239h150v-48h-250q-6 0 -22 1t-34 3.5t-31 7.5t-13 12v287q0 8 13 12.5t31 7t34 3.5t22 1h250z" />
    <glyph glyph-name="ordfeminine" unicode="&#xaa;" horiz-adv-x="384" 
d="M39 544v34h245q6 0 23 -1.5t32 -5t15 -10.5v-216q0 -7 -15 -10.5t-32 -5t-23 -1.5h-184q-5 0 -22.5 1.5t-32.5 5t-15 10.5v138q0 7 15 10.5t32.5 5t22.5 1.5h44q6 0 23 -1.5t32 -5t15 -10.5v61h-175zM214 466h-44v-104h44v104z" />
    <glyph glyph-name="guillemotleft" unicode="&#xab;" horiz-adv-x="597" 
d="M180 426l158 -6q-4 -5 -21.5 -26.5t-40.5 -50.5t-45 -56.5t-37 -46l-15 -18.5l15 -18.5t37 -46t45 -56.5t40.5 -50.5t21.5 -26.5l-158 -6q-5 6 -22 28t-39 51.5t-43.5 57.5t-35.5 47t-14 20t14 20t35.5 47t43.5 57.5t39 51.5t22 28zM409 426l158 -6q-4 -5 -21.5 -26.5
t-40.5 -50.5t-45 -56.5t-37 -46l-15 -18.5l15 -18.5t37 -46t45 -56.5t40.5 -50.5t21.5 -26.5l-158 -6q-5 6 -22 28t-39 51.5t-43.5 57.5t-35.5 47t-14 20t14 20t35.5 47t43.5 57.5t39 51.5t22 28z" />
    <glyph glyph-name="logicalnot" unicode="&#xac;" horiz-adv-x="516" 
d="M30 206v67h396q10 0 24 -3t25 -10t11 -20v-190h-120v156h-336z" />
    <glyph glyph-name="softhyphen" unicode="&#xad;" horiz-adv-x="333" 
 />
    <glyph glyph-name="registered" unicode="&#xae;" horiz-adv-x="790" 
d="M760 581v-497q0 -38 -26.5 -61t-63.5 -23h-550q-37 0 -63.5 23t-26.5 61v497q0 38 26.5 61t63.5 23h550q37 0 63.5 -23t26.5 -61zM680 85v495q0 7 -1.5 12t-9.5 5h-548q-7 0 -9 -5.5t-2 -11.5v-495q0 -7 2 -12t9 -5h548q7 0 9 5.5t2 11.5zM358 165h-150v317
q0 8 16.5 11.5t34.5 5t24 1.5h211q6 0 24 -1.5t34.5 -5t16.5 -11.5v-130q0 -4 -13 -10.5t-27.5 -11t-19.5 -6.5l73 -157l-148 -4q-3 6 -14 28.5t-24 51t-24 52t-14 30.5v-160zM419 357v107h-61v-134q4 5 17 10.5t26.5 10.5t17.5 6z" />
    <glyph glyph-name="macron" unicode="&#xaf;" horiz-adv-x="426" 
d="M30 769v68h366v-68h-366z" />
    <glyph glyph-name="degree" unicode="&#xb0;" horiz-adv-x="390" 
d="M30 437v211q0 7 15 10.5t32.5 5t22.5 1.5h190q6 0 23 -1.5t32 -5t15 -10.5v-211q0 -7 -15 -10.5t-32 -5t-23 -1.5h-190q-5 0 -22.5 1.5t-32.5 5t-15 10.5zM170 454h50v177h-50v-177z" />
    <glyph glyph-name="plusminus" unicode="&#xb1;" horiz-adv-x="520" 
d="M30 271v68h150v161h160v-161h150v-68h-150v-161h-160v161h-150zM40 0v68h440v-68h-440z" />
    <glyph glyph-name="two.superior" unicode="&#xb2;" horiz-adv-x="335" 
d="M170 401h135v-34h-205q-5 0 -22.5 1.5t-32.5 5t-15 10.5v82q0 5 10 10.5t21.5 10.5t15.5 6l84 35v138h-125v34h195q6 0 23 -1.5t32 -5t15 -10.5v-158q0 -4 -10 -9.5t-21.5 -10t-15.5 -6.5l-84 -35v-63z" />
    <glyph glyph-name="three.superior" unicode="&#xb3;" horiz-adv-x="325" 
d="M45 516v34h92q15 10 15.5 29t0.5 35v52h-117v34h187q6 0 23 -1.5t32 -5t15 -10.5v-101q0 -28 -22.5 -36.5t-45.5 -9.5v-6q16 -1 32 -4.5t27 -12.5t11 -30v-59q0 -26 -19.5 -38.5t-45.5 -15.5t-45 -3h-155v34h118q5 8 6 15.5t1 15.5v39q0 13 -1.5 25t-13.5 20h-95z" />
    <glyph glyph-name="acute" unicode="&#xb4;" horiz-adv-x="352" 
d="M298 886l24 -78l-271 -65l-20 70z" />
    <glyph glyph-name="paragraph" unicode="&#xb6;" horiz-adv-x="721" 
d="M269 -165v330q-5 0 -10 -0.5t-8 -0.5h-81q-8 0 -30.5 1.5t-48 5t-43.5 10.5t-18 17v433q0 11 18 17.5t43.5 10t48 5t30.5 1.5h380q10 0 31 -1t44 -4.5t41 -9.5t23 -15q2 -2 1.5 -5t-0.5 -5v-790h-160v762h-61v-762h-200z" />
    <glyph glyph-name="periodcentered" unicode="&#xb7;" horiz-adv-x="220" 
d="M30 269v109q0 8 17.5 12t37 5.5t25.5 1.5h80v-109q0 -8 -17.5 -12t-36.5 -5.5t-26 -1.5h-80z" />
    <glyph glyph-name="cedilla" unicode="&#xb8;" horiz-adv-x="285" 
d="M24 33h90l-3 -87h99q7 0 25 -1.5t34 -6t16 -14.5v-124q0 -9 -16 -14t-34 -7t-25 -2h-210v45h135v79h-70q-6 0 -17 2t-19.5 7.5t-8.5 13.5z" />
    <glyph glyph-name="one.superior" unicode="&#xb9;" horiz-adv-x="230" 
d="M200 367h-140v299h-40v34h110q6 0 23 -1.5t32 -5t15 -10.5v-316z" />
    <glyph glyph-name="ordmasculine" unicode="&#xba;" horiz-adv-x="380" 
d="M30 345v216q0 7 15 10.5t32.5 5t22.5 1.5h180q6 0 23 -1.5t32 -5t15 -10.5v-216q0 -7 -15 -10.5t-32 -5t-23 -1.5h-180q-5 0 -22.5 1.5t-32.5 5t-15 10.5zM170 362h40v182h-40v-182z" />
    <glyph glyph-name="guillemotright" unicode="&#xbb;" horiz-adv-x="601" 
d="M417 426q5 -6 22 -28t39 -51.5t43.5 -57.5t35.5 -47t14 -20t-14 -20t-35.5 -47t-43.5 -57.5t-39 -51.5t-22 -28l-158 6q4 5 21.5 26.5t40.5 50.5t45 56.5t37 46l15 18.5l-15 18.5t-37 46t-45 56.5t-40.5 50.5t-21.5 26.5zM188 426q5 -6 22 -28t39 -51.5t43.5 -57.5
t35.5 -47t14 -20t-14 -20t-35.5 -47t-43.5 -57.5t-39 -51.5t-22 -28l-158 6q4 5 21.5 26.5t40.5 50.5t45 56.5t37 46l15 18.5l-15 18.5t-37 46t-45 56.5t-40.5 50.5t-21.5 26.5z" />
    <glyph glyph-name="questiondown" unicode="&#xbf;" horiz-adv-x="520" 
d="M482 288v-26q0 -2 0.5 -6t-1.5 -6q-5 -9 -23 -15t-41 -9.5t-44 -4.5t-31 -1h-30v-317h180v-68h-320q-8 0 -30.5 1.5t-48 5t-43.5 10.5t-18 17v385q0 11 18 17.5t43.5 10t48 5t30.5 1.5h310zM482 500v-109q0 -8 -17.5 -12t-36.5 -5.5t-26 -1.5h-80v109q0 8 17.5 12t37 5.5
t25.5 1.5h80z" />
    <glyph glyph-name="Agrave" unicode="&#xc0;" horiz-adv-x="790" 
d="M325 0h-290v630q0 11 19 18t45 10.5t49 5t32 1.5h430q9 0 32 -1.5t49 -5t45 -10.5t19 -18v-630h-290v271h-140v-271zM325 341h140v254h-140v-254zM499 747l-271 65l24 78l267 -73z" />
    <glyph glyph-name="Aacute" unicode="&#xc1;" horiz-adv-x="790" 
d="M325 0h-290v630q0 11 19 18t45 10.5t49 5t32 1.5h430q9 0 32 -1.5t49 -5t45 -10.5t19 -18v-630h-290v271h-140v-271zM325 341h140v254h-140v-254zM556 886l24 -78l-271 -65l-20 70z" />
    <glyph glyph-name="Acircumflex" unicode="&#xc2;" horiz-adv-x="790" 
d="M325 0h-290v630q0 11 19 18t45 10.5t49 5t32 1.5h430q9 0 32 -1.5t49 -5t45 -10.5t19 -18v-630h-290v271h-140v-271zM325 341h140v254h-140v-254zM227 739l-29 72l123 40q17 6 36.5 13t37.5 7q19 0 38 -7t36 -13l124 -40l-29 -72q-43 14 -85 28t-84 27z" />
    <glyph glyph-name="Atilde" unicode="&#xc3;" horiz-adv-x="790" 
d="M325 0h-290v630q0 11 19 18t45 10.5t49 5t32 1.5h430q9 0 32 -1.5t49 -5t45 -10.5t19 -18v-630h-290v271h-140v-271zM325 341h140v254h-140v-254zM302 735h-110v90q0 22 16.5 31.5t38 12.5t36.5 3q35 0 57 -4t39 -13.5t35 -24.5t45 -38q7 -6 13 -11.5t14 -10.5
q2 6 2 23.5v24.5v51h110v-90q0 -23 -18 -33t-41.5 -11.5t-40.5 -1.5q-39 0 -64.5 5.5t-44.5 17t-39 29t-48 40.5v-90z" />
    <glyph glyph-name="Adieresis" unicode="&#xc4;" horiz-adv-x="790" 
d="M325 0h-290v630q0 11 19 18t45 10.5t49 5t32 1.5h430q9 0 32 -1.5t49 -5t45 -10.5t19 -18v-630h-290v271h-140v-271zM325 341h140v254h-140v-254zM575 849v-81q0 -6 -13 -9t-27.5 -4.5t-19.5 -1.5h-59v82q0 6 13 9t27.5 4t18.5 1h60zM335 849v-81q0 -6 -13 -9t-27.5 -4.5
t-19.5 -1.5h-59v82q0 6 13 9t27.5 4t18.5 1h60z" />
    <glyph glyph-name="Aring" unicode="&#xc5;" horiz-adv-x="790" 
d="M325 0h-290v630q0 11 19 18t45 10.5t49 5t32 1.5h430q9 0 32 -1.5t49 -5t45 -10.5t19 -18v-630h-290v271h-140v-271zM325 341h140v254h-140v-254zM445 732h-100q-11 0 -29 1.5t-32 8.5t-14 23v90q0 16 14 23t32 8.5t29 1.5h100q11 0 29 -1.5t32 -8.5t14 -23v-90
q0 -16 -14 -23t-32 -8.5t-29 -1.5zM409 758q1 2 1 7v90q0 5 -1 7h-28q-1 -2 -1 -7v-90q0 -5 1 -7h28z" />
    <glyph glyph-name="AE" unicode="&#xc6;" horiz-adv-x="1073" 
d="M320 0h-290l70 632q1 11 20 17.5t44.5 9.5t48.5 4.5t32 1.5h139q10 0 29 -1t41.5 -3.5t40.5 -7.5q19 5 41.5 7.5t41 3.5t25.5 1h440v-70h-295v-225h285v-70h-285v-230h295v-70h-440q-9 0 -32 1.5t-49 5t-45 10.5t-19 18v236h-108zM358 341h100v256h-72z" />
    <glyph glyph-name="Ccedilla" unicode="&#xc7;" horiz-adv-x="636" 
d="M585 70v-70h-410q-9 0 -32 1.5t-49 5t-45 10.5t-19 18v595q0 11 19 18t45 10.5t49 5t32 1.5h410v-70h-265v-525h265zM275 33h90l-3 -87h99q7 0 25 -1.5t34 -6t16 -14.5v-124q0 -9 -16 -14t-34 -7t-25 -2h-210v45h135v79h-70q-6 0 -17 2t-19.5 7.5t-8.5 13.5z" />
    <glyph glyph-name="Egrave" unicode="&#xc8;" horiz-adv-x="645" 
d="M605 370v-70h-285v-230h295v-70h-440q-9 0 -32 1.5t-49 5t-45 10.5t-19 18v595q0 11 19 18t45 10.5t49 5t32 1.5h440v-70h-295v-225h285zM447 747l-271 65l24 78l267 -73z" />
    <glyph glyph-name="Eacute" unicode="&#xc9;" horiz-adv-x="645" 
d="M605 370v-70h-285v-230h295v-70h-440q-9 0 -32 1.5t-49 5t-45 10.5t-19 18v595q0 11 19 18t45 10.5t49 5t32 1.5h440v-70h-295v-225h285zM504 886l24 -78l-271 -65l-20 70z" />
    <glyph glyph-name="Ecircumflex" unicode="&#xca;" horiz-adv-x="645" 
d="M605 370v-70h-285v-230h295v-70h-440q-9 0 -32 1.5t-49 5t-45 10.5t-19 18v595q0 11 19 18t45 10.5t49 5t32 1.5h440v-70h-295v-225h285zM175 739l-29 72l123 40q17 6 36.5 13t37.5 7q19 0 38 -7t36 -13l124 -40l-29 -72q-43 14 -85 28t-84 27z" />
    <glyph glyph-name="Edieresis" unicode="&#xcb;" horiz-adv-x="645" 
d="M605 370v-70h-285v-230h295v-70h-440q-9 0 -32 1.5t-49 5t-45 10.5t-19 18v595q0 11 19 18t45 10.5t49 5t32 1.5h440v-70h-295v-225h285zM523 849v-81q0 -6 -13 -9t-27.5 -4.5t-19.5 -1.5h-59v82q0 6 13 9t27.5 4t18.5 1h60zM283 849v-81q0 -6 -13 -9t-27.5 -4.5
t-19.5 -1.5h-59v82q0 6 13 9t27.5 4t18.5 1h60z" />
    <glyph glyph-name="Igrave" unicode="&#xcc;" horiz-adv-x="350" 
d="M30 665h290v-665h-290v665zM279 747l-271 65l24 78l267 -73z" />
    <glyph glyph-name="Iacute" unicode="&#xcd;" horiz-adv-x="350" 
d="M30 665h290v-665h-290v665zM306 886l24 -78l-271 -65l-20 70z" />
    <glyph glyph-name="Icircumflex" unicode="&#xce;" horiz-adv-x="350" 
d="M30 665h290v-665h-290v665zM7 739l-29 72l123 40q17 6 36.5 13t37.5 7q19 0 38 -7t36 -13l124 -40l-29 -72q-43 14 -85 28t-84 27z" />
    <glyph glyph-name="Idieresis" unicode="&#xcf;" horiz-adv-x="350" 
d="M30 665h290v-665h-290v665zM355 849v-81q0 -6 -13 -9t-27.5 -4.5t-19.5 -1.5h-59v82q0 6 13 9t27.5 4t18.5 1h60zM115 849v-81q0 -6 -13 -9t-27.5 -4.5t-19.5 -1.5h-59v82q0 6 13 9t27.5 4t18.5 1h60z" />
    <glyph glyph-name="Eth" unicode="&#xd0;" horiz-adv-x="801" 
d="M50 0v299h-70v68h70v298h496q29 0 67.5 -3t74.5 -14t59.5 -34t23.5 -64v-435q0 -40 -23.5 -63.5t-59.5 -34.5t-74.5 -14t-67.5 -3h-496zM340 70h127q8 10 11 21.5t3 23.5v435q0 12 -3 23.5t-11 21.5h-127v-228h80v-68h-80v-229z" />
    <glyph glyph-name="Ntilde" unicode="&#xd1;" horiz-adv-x="773" 
d="M320 0h-290v630q0 11 19 18t45 10.5t49 5t32 1.5h373q21 0 54 -2t65 -10t54 -25.5t22 -47.5v-580h-290v387q0 9 0.5 31t0.5 50v55.5t-0.5 47t-2.5 24.5h-131v-595zM294 735h-110v90q0 22 16.5 31.5t38 12.5t36.5 3q35 0 57 -4t39 -13.5t35 -24.5t45 -38q7 -6 13 -11.5
t14 -10.5q2 6 2 23.5v24.5v51h110v-90q0 -23 -18 -33t-41.5 -11.5t-40.5 -1.5q-39 0 -64.5 5.5t-44.5 17t-39 29t-48 40.5v-90z" />
    <glyph glyph-name="Ograve" unicode="&#xd2;" horiz-adv-x="781" 
d="M606 0h-431q-9 0 -32 1.5t-49 5t-45 10.5t-19 18v595q0 11 19 18t45 10.5t49 5t32 1.5h431q9 0 32 -1.5t49 -5t45 -10.5t19 -18v-595q0 -11 -19 -18t-45 -10.5t-49 -5t-32 -1.5zM320 70h141v525h-141v-525zM495 747l-271 65l24 78l267 -73z" />
    <glyph glyph-name="Oacute" unicode="&#xd3;" horiz-adv-x="781" 
d="M606 0h-431q-9 0 -32 1.5t-49 5t-45 10.5t-19 18v595q0 11 19 18t45 10.5t49 5t32 1.5h431q9 0 32 -1.5t49 -5t45 -10.5t19 -18v-595q0 -11 -19 -18t-45 -10.5t-49 -5t-32 -1.5zM320 70h141v525h-141v-525zM552 886l24 -78l-271 -65l-20 70z" />
    <glyph glyph-name="Ocircumflex" unicode="&#xd4;" horiz-adv-x="781" 
d="M606 0h-431q-9 0 -32 1.5t-49 5t-45 10.5t-19 18v595q0 11 19 18t45 10.5t49 5t32 1.5h431q9 0 32 -1.5t49 -5t45 -10.5t19 -18v-595q0 -11 -19 -18t-45 -10.5t-49 -5t-32 -1.5zM320 70h141v525h-141v-525zM223 739l-29 72l123 40q17 6 36.5 13t37.5 7q19 0 38 -7t36 -13
l124 -40l-29 -72q-43 14 -85 28t-84 27z" />
    <glyph glyph-name="Otilde" unicode="&#xd5;" horiz-adv-x="781" 
d="M606 0h-431q-9 0 -32 1.5t-49 5t-45 10.5t-19 18v595q0 11 19 18t45 10.5t49 5t32 1.5h431q9 0 32 -1.5t49 -5t45 -10.5t19 -18v-595q0 -11 -19 -18t-45 -10.5t-49 -5t-32 -1.5zM320 70h141v525h-141v-525zM298 735h-110v90q0 22 16.5 31.5t38 12.5t36.5 3q35 0 57 -4
t39 -13.5t35 -24.5t45 -38q7 -6 13 -11.5t14 -10.5q2 6 2 23.5v24.5v51h110v-90q0 -23 -18 -33t-41.5 -11.5t-40.5 -1.5q-39 0 -64.5 5.5t-44.5 17t-39 29t-48 40.5v-90z" />
    <glyph glyph-name="Odieresis" unicode="&#xd6;" horiz-adv-x="781" 
d="M606 0h-431q-9 0 -32 1.5t-49 5t-45 10.5t-19 18v595q0 11 19 18t45 10.5t49 5t32 1.5h431q9 0 32 -1.5t49 -5t45 -10.5t19 -18v-595q0 -11 -19 -18t-45 -10.5t-49 -5t-32 -1.5zM320 70h141v525h-141v-525zM571 849v-81q0 -6 -13 -9t-27.5 -4.5t-19.5 -1.5h-59v82
q0 6 13 9t27.5 4t18.5 1h60zM331 849v-81q0 -6 -13 -9t-27.5 -4.5t-19.5 -1.5h-59v82q0 6 13 9t27.5 4t18.5 1h60z" />
    <glyph glyph-name="multiply" unicode="&#xd7;" horiz-adv-x="458" 
d="M104 65l-74 64q9 8 17.5 16.5t17.5 16.5l70 64q9 8 18 16.5t17 16.5q-8 8 -17 16.5t-18 16.5l-70 64q-9 8 -17.5 16.5t-17.5 16.5l74 64q32 -33 63 -67l62 -68q32 34 62.5 68t62.5 67l74 -64q-8 -8 -17 -16.5t-18 -16.5l-70 -64q-9 -8 -17.5 -16.5t-17.5 -16.5
q9 -8 17.5 -16.5t17.5 -16.5l70 -64q9 -8 18 -16.5t17 -16.5l-74 -64q-32 33 -62.5 67t-62.5 68l-62 -68t-63 -67z" />
    <glyph glyph-name="Oslash" unicode="&#xd8;" horiz-adv-x="781" 
d="M606 0h-313l-27 -69l-56 18l20 51h-55q-9 0 -32 1.5t-49 5t-45 10.5t-19 18v595q0 11 19 18t45 10.5t49 5t32 1.5h313l27 69l56 -18l-20 -51h55q9 0 32 -1.5t49 -5t45 -10.5t19 -18v-595q0 -11 -19 -18t-45 -10.5t-49 -5t-32 -1.5zM320 595v-363l141 363h-141zM461 70
v363l-141 -363h141z" />
    <glyph glyph-name="Ugrave" unicode="&#xd9;" horiz-adv-x="771" 
d="M451 665h290v-107l-1 -214v-107q0 -50 1 -101t-1 -101q0 -11 -19 -18t-45.5 -10.5t-49.5 -5t-31 -1.5h-420q-9 0 -32 1.5t-49 5t-45 10.5t-19 18v630h290v-595h130v298t1 297zM489 747l-271 65l24 78l267 -73z" />
    <glyph glyph-name="Uacute" unicode="&#xda;" horiz-adv-x="771" 
d="M451 665h290v-107l-1 -214v-107q0 -50 1 -101t-1 -101q0 -11 -19 -18t-45.5 -10.5t-49.5 -5t-31 -1.5h-420q-9 0 -32 1.5t-49 5t-45 10.5t-19 18v630h290v-595h130v298t1 297zM546 886l24 -78l-271 -65l-20 70z" />
    <glyph glyph-name="Ucircumflex" unicode="&#xdb;" horiz-adv-x="771" 
d="M451 665h290v-107l-1 -214v-107q0 -50 1 -101t-1 -101q0 -11 -19 -18t-45.5 -10.5t-49.5 -5t-31 -1.5h-420q-9 0 -32 1.5t-49 5t-45 10.5t-19 18v630h290v-595h130v298t1 297zM217 739l-29 72l123 40q17 6 36.5 13t37.5 7q19 0 38 -7t36 -13l124 -40l-29 -72
q-43 14 -85 28t-84 27z" />
    <glyph glyph-name="Udieresis" unicode="&#xdc;" horiz-adv-x="771" 
d="M451 665h290v-107l-1 -214v-107q0 -50 1 -101t-1 -101q0 -11 -19 -18t-45.5 -10.5t-49.5 -5t-31 -1.5h-420q-9 0 -32 1.5t-49 5t-45 10.5t-19 18v630h290v-595h130v298t1 297zM565 849v-81q0 -6 -13 -9t-27.5 -4.5t-19.5 -1.5h-59v82q0 6 13 9t27.5 4t18.5 1h60zM325 849
v-81q0 -6 -13 -9t-27.5 -4.5t-19.5 -1.5h-59v82q0 6 13 9t27.5 4t18.5 1h60z" />
    <glyph glyph-name="Yacute" unicode="&#xdd;" horiz-adv-x="790" 
d="M547 0h-290v190q0 10 17 17t37 12t27 7l132 38v401h290v-414q0 -9 -17 -16.5t-36.5 -12.5t-27.5 -7l-132 -38v-177zM30 665h290v-410h-145q-9 0 -32 1.5t-49 5t-45 10.5t-19 18v375zM556 886l24 -78l-271 -65l-20 70z" />
    <glyph glyph-name="Thorn" unicode="&#xde;" horiz-adv-x="700" 
d="M310 0h-280v665h280v-145h220q8 0 30.5 -1.5t48 -5t43.5 -10t18 -17.5v-305q0 -10 -18 -17t-43.5 -10.5t-48 -5t-30.5 -1.5h-220v-147zM310 215h80v237h-80v-237z" />
    <glyph glyph-name="germandbls" unicode="&#xdf;" horiz-adv-x="765" 
d="M315 0h-280v616q0 40 23 63t58 34t72.5 14t66.5 3h240q29 0 66.5 -3t73 -14t58.5 -34t23 -63v-146q0 -32 -15 -50.5t-38.5 -27t-51 -11.5t-51.5 -4v-13q25 0 55 -2t57.5 -10.5t45 -27.5t17.5 -54v-166q0 -42 -25 -65.5t-63 -33.5t-77.5 -12.5t-69.5 -2.5q-9 0 -33.5 1
t-53 4.5t-48.5 10t-20 18.5v34h96q10 12 12 26t2 29v135q0 26 -4 48.5t-28 38.5h-78v70h59q23 14 27.5 37.5t4.5 47.5v91q0 17 -1 43t-15 38h-90q-11 -9 -13 -30.5t-2 -34.5v-597z" />
    <glyph glyph-name="agrave" unicode="&#xe0;" horiz-adv-x="706" 
d="M49 432v68h490q8 0 30.5 -1.5t48 -5t43.5 -10t18 -17.5v-432q0 -10 -18 -17t-43.5 -10.5t-48 -5t-30.5 -1.5h-369q-8 0 -30.5 1.5t-48 5t-43.5 10.5t-18 17v275q0 11 18 17.5t43.5 10t48 5t30.5 1.5h89q11 0 31.5 -1t43.5 -4.5t41 -9.5t23 -15q1 -1 1 -4v123h-350z
M399 275h-89v-207h89v207zM479 582l-271 65l24 78l267 -73z" />
    <glyph glyph-name="aacute" unicode="&#xe1;" horiz-adv-x="706" 
d="M49 432v68h490q8 0 30.5 -1.5t48 -5t43.5 -10t18 -17.5v-432q0 -10 -18 -17t-43.5 -10.5t-48 -5t-30.5 -1.5h-369q-8 0 -30.5 1.5t-48 5t-43.5 10.5t-18 17v275q0 11 18 17.5t43.5 10t48 5t30.5 1.5h89q11 0 31.5 -1t43.5 -4.5t41 -9.5t23 -15q1 -1 1 -4v123h-350z
M399 275h-89v-207h89v207zM478 721l24 -78l-271 -65l-20 70z" />
    <glyph glyph-name="acircumflex" unicode="&#xe2;" horiz-adv-x="706" 
d="M49 432v68h490q8 0 30.5 -1.5t48 -5t43.5 -10t18 -17.5v-432q0 -10 -18 -17t-43.5 -10.5t-48 -5t-30.5 -1.5h-369q-8 0 -30.5 1.5t-48 5t-43.5 10.5t-18 17v275q0 11 18 17.5t43.5 10t48 5t30.5 1.5h89q11 0 31.5 -1t43.5 -4.5t41 -9.5t23 -15q1 -1 1 -4v123h-350z
M399 275h-89v-207h89v207zM187 574l-29 72l123 40q17 6 36.5 13t37.5 7q19 0 38 -7t36 -13l124 -40l-29 -72q-43 14 -85 28t-84 27z" />
    <glyph glyph-name="atilde" unicode="&#xe3;" horiz-adv-x="706" 
d="M49 432v68h490q8 0 30.5 -1.5t48 -5t43.5 -10t18 -17.5v-432q0 -10 -18 -17t-43.5 -10.5t-48 -5t-30.5 -1.5h-369q-8 0 -30.5 1.5t-48 5t-43.5 10.5t-18 17v275q0 11 18 17.5t43.5 10t48 5t30.5 1.5h89q11 0 31.5 -1t43.5 -4.5t41 -9.5t23 -15q1 -1 1 -4v123h-350z
M399 275h-89v-207h89v207zM262 570h-110v90q0 22 16.5 31.5t38 12.5t36.5 3q35 0 57 -4t39 -13.5t35 -24.5t45 -38q7 -6 13 -11.5t14 -10.5q2 6 2 23.5v24.5v51h110v-90q0 -23 -18 -33t-41.5 -11.5t-40.5 -1.5q-39 0 -64.5 5.5t-44.5 17t-39 29t-48 40.5v-90z" />
    <glyph glyph-name="adieresis" unicode="&#xe4;" horiz-adv-x="706" 
d="M49 432v68h490q8 0 30.5 -1.5t48 -5t43.5 -10t18 -17.5v-432q0 -10 -18 -17t-43.5 -10.5t-48 -5t-30.5 -1.5h-369q-8 0 -30.5 1.5t-48 5t-43.5 10.5t-18 17v275q0 11 18 17.5t43.5 10t48 5t30.5 1.5h89q11 0 31.5 -1t43.5 -4.5t41 -9.5t23 -15q1 -1 1 -4v123h-350z
M399 275h-89v-207h89v207zM535 684v-81q0 -6 -13 -9t-27.5 -4.5t-19.5 -1.5h-59v82q0 6 13 9t27.5 4t18.5 1h60zM295 684v-81q0 -6 -13 -9t-27.5 -4.5t-19.5 -1.5h-59v82q0 6 13 9t27.5 4t18.5 1h60z" />
    <glyph glyph-name="aring" unicode="&#xe5;" horiz-adv-x="706" 
d="M49 432v68h490q8 0 30.5 -1.5t48 -5t43.5 -10t18 -17.5v-432q0 -10 -18 -17t-43.5 -10.5t-48 -5t-30.5 -1.5h-369q-8 0 -30.5 1.5t-48 5t-43.5 10.5t-18 17v275q0 11 18 17.5t43.5 10t48 5t30.5 1.5h89q11 0 31.5 -1t43.5 -4.5t41 -9.5t23 -15q1 -1 1 -4v123h-350z
M399 275h-89v-207h89v207zM405 567h-100q-11 0 -29 1.5t-32 8.5t-14 23v90q0 16 14 23t32 8.5t29 1.5h100q11 0 29 -1.5t32 -8.5t14 -23v-90q0 -16 -14 -23t-32 -8.5t-29 -1.5zM369 593q1 2 1 7v90q0 5 -1 7h-28q-1 -2 -1 -7v-90q0 -5 1 -7h28z" />
    <glyph glyph-name="ae" unicode="&#xe6;" horiz-adv-x="1069" 
d="M1029 68v-68h-490q-8 0 -29 1.5t-45.5 5t-43.5 9.5t-22 15q-4 -9 -22.5 -15t-42 -9.5t-44 -5t-30.5 -1.5h-90q-8 0 -30.5 1.5t-48 5t-43.5 10.5t-18 17v276q0 11 18 17.5t43.5 10t48 5t30.5 1.5h89q10 0 32.5 -1t47.5 -5t42.5 -12t17.5 -22v128h-350v68h490q8 0 29 -1.5
t45.5 -5t43.5 -9.5t22 -15q5 9 23 15t41.5 9.5t44 5t30.5 1.5h81q8 0 30.5 -1.5t48 -5t43.5 -10t18 -17.5v-290q0 -10 -18 -17t-43.5 -10.5t-48 -5t-30.5 -1.5h-81q-10 0 -31 1.5t-44 4.5t-41 9t-23 15v-104h350zM679 210h80v222h-80v-222zM399 276h-89v-208h89v208z" />
    <glyph glyph-name="ccedilla" unicode="&#xe7;" horiz-adv-x="560" 
d="M530 500v-68h-220v-364h220v-68h-360q-8 0 -30.5 1.5t-48 5t-43.5 10.5t-18 17v432q0 11 18 17.5t43.5 10t48 5t30.5 1.5h360zM227 33h90l-3 -87h99q7 0 25 -1.5t34 -6t16 -14.5v-124q0 -9 -16 -14t-34 -7t-25 -2h-210v45h135v79h-70q-6 0 -17 2t-19.5 7.5t-8.5 13.5z
" />
    <glyph glyph-name="egrave" unicode="&#xe8;" horiz-adv-x="700" 
d="M660 68v-68h-490q-8 0 -30.5 1.5t-48 5t-43.5 10.5t-18 17v432q0 11 18 17.5t43.5 10t48 5t30.5 1.5h360q8 0 30.5 -1.5t48 -5t43.5 -10t18 -17.5v-290q0 -10 -18 -17t-43.5 -10.5t-48 -5t-30.5 -1.5h-81q-10 0 -31 1t-44 4.5t-41 9.5t-23 15v-104h350zM310 210h80v222
h-80v-222zM454 582l-271 65l24 78l267 -73z" />
    <glyph glyph-name="eacute" unicode="&#xe9;" horiz-adv-x="700" 
d="M660 68v-68h-490q-8 0 -30.5 1.5t-48 5t-43.5 10.5t-18 17v432q0 11 18 17.5t43.5 10t48 5t30.5 1.5h360q8 0 30.5 -1.5t48 -5t43.5 -10t18 -17.5v-290q0 -10 -18 -17t-43.5 -10.5t-48 -5t-30.5 -1.5h-81q-10 0 -31 1t-44 4.5t-41 9.5t-23 15v-104h350zM310 210h80v222
h-80v-222zM511 721l24 -78l-271 -65l-20 70z" />
    <glyph glyph-name="ecircumflex" unicode="&#xea;" horiz-adv-x="700" 
d="M660 68v-68h-490q-8 0 -30.5 1.5t-48 5t-43.5 10.5t-18 17v432q0 11 18 17.5t43.5 10t48 5t30.5 1.5h360q8 0 30.5 -1.5t48 -5t43.5 -10t18 -17.5v-290q0 -10 -18 -17t-43.5 -10.5t-48 -5t-30.5 -1.5h-81q-10 0 -31 1t-44 4.5t-41 9.5t-23 15v-104h350zM310 210h80v222
h-80v-222zM182 574l-29 72l123 40q17 6 36.5 13t37.5 7q19 0 38 -7t36 -13l124 -40l-29 -72q-43 14 -85 28t-84 27z" />
    <glyph glyph-name="edieresis" unicode="&#xeb;" horiz-adv-x="700" 
d="M660 68v-68h-490q-8 0 -30.5 1.5t-48 5t-43.5 10.5t-18 17v432q0 11 18 17.5t43.5 10t48 5t30.5 1.5h360q8 0 30.5 -1.5t48 -5t43.5 -10t18 -17.5v-290q0 -10 -18 -17t-43.5 -10.5t-48 -5t-30.5 -1.5h-81q-10 0 -31 1t-44 4.5t-41 9.5t-23 15v-104h350zM310 210h80v222
h-80v-222zM530 684v-81q0 -6 -13 -9t-27.5 -4.5t-19.5 -1.5h-59v82q0 6 13 9t27.5 4t18.5 1h60zM290 684v-81q0 -6 -13 -9t-27.5 -4.5t-19.5 -1.5h-59v82q0 6 13 9t27.5 4t18.5 1h60z" />
    <glyph glyph-name="igrave" unicode="&#xec;" horiz-adv-x="341" 
d="M30 500h280v-500h-280v500zM274 582l-271 65l24 78l267 -73z" />
    <glyph glyph-name="iacute" unicode="&#xed;" horiz-adv-x="341" 
d="M30 500h280v-500h-280v500zM301 721l24 -78l-271 -65l-20 70z" />
    <glyph glyph-name="icircumflex" unicode="&#xee;" horiz-adv-x="341" 
d="M30 500h280v-500h-280v500zM2 574l-29 72l123 40q17 6 36.5 13t37.5 7q19 0 38 -7t36 -13l124 -40l-29 -72q-43 14 -85 28t-84 27z" />
    <glyph glyph-name="idieresis" unicode="&#xef;" horiz-adv-x="341" 
d="M30 500h280v-500h-280v500zM350 684v-81q0 -6 -13 -9t-27.5 -4.5t-19.5 -1.5h-59v82q0 6 13 9t27.5 4t18.5 1h60zM110 684v-81q0 -6 -13 -9t-27.5 -4.5t-19.5 -1.5h-59v82q0 6 13 9t27.5 4t18.5 1h60z" />
    <glyph glyph-name="eth" unicode="&#xf0;" horiz-adv-x="720" 
d="M170 665h260q27 0 61 -2.5t67 -11.5t57.5 -27t31.5 -50l57 8l6 -46l-60 -8v-494q0 -10 -18 -17t-43.5 -10.5t-48 -5t-30.5 -1.5h-340q-8 0 -30.5 1.5t-48 5t-43.5 10.5t-18 17v360q0 12 22 19t53 10t58 4t37 1q12 0 37.5 -0.5t53.5 -3.5t50.5 -9t28.5 -17v90l-80 -11
l-6 46l86 12v2q0 18 -1.5 31t-12.5 29h-186v68zM310 68h60v292h-60v-292z" />
    <glyph glyph-name="ntilde" unicode="&#xf1;" horiz-adv-x="700" 
d="M310 0h-280v500h500q8 0 30.5 -1.5t48 -5t43.5 -10t18 -17.5v-466h-280v432h-80v-432zM257 570h-110v90q0 22 16.5 31.5t38 12.5t36.5 3q35 0 57 -4t39 -13.5t35 -24.5t45 -38q7 -6 13 -11.5t14 -10.5q2 6 2 23.5v24.5v51h110v-90q0 -23 -18 -33t-41.5 -11.5t-40.5 -1.5
q-39 0 -64.5 5.5t-44.5 17t-39 29t-48 40.5v-90z" />
    <glyph glyph-name="ograve" unicode="&#xf2;" horiz-adv-x="700" 
d="M530 0h-360q-8 0 -30.5 1.5t-48 5t-43.5 10.5t-18 17v432q0 11 18 17.5t43.5 10t48 5t30.5 1.5h360q8 0 30.5 -1.5t48 -5t43.5 -10t18 -17.5v-432q0 -10 -18 -17t-43.5 -10.5t-48 -5t-30.5 -1.5zM310 68h80v364h-80v-364zM454 582l-271 65l24 78l267 -73z" />
    <glyph glyph-name="oacute" unicode="&#xf3;" horiz-adv-x="700" 
d="M530 0h-360q-8 0 -30.5 1.5t-48 5t-43.5 10.5t-18 17v432q0 11 18 17.5t43.5 10t48 5t30.5 1.5h360q8 0 30.5 -1.5t48 -5t43.5 -10t18 -17.5v-432q0 -10 -18 -17t-43.5 -10.5t-48 -5t-30.5 -1.5zM310 68h80v364h-80v-364zM511 721l24 -78l-271 -65l-20 70z" />
    <glyph glyph-name="ocircumflex" unicode="&#xf4;" horiz-adv-x="700" 
d="M530 0h-360q-8 0 -30.5 1.5t-48 5t-43.5 10.5t-18 17v432q0 11 18 17.5t43.5 10t48 5t30.5 1.5h360q8 0 30.5 -1.5t48 -5t43.5 -10t18 -17.5v-432q0 -10 -18 -17t-43.5 -10.5t-48 -5t-30.5 -1.5zM310 68h80v364h-80v-364zM182 574l-29 72l123 40q17 6 36.5 13t37.5 7
q19 0 38 -7t36 -13l124 -40l-29 -72q-43 14 -85 28t-84 27z" />
    <glyph glyph-name="otilde" unicode="&#xf5;" horiz-adv-x="700" 
d="M530 0h-360q-8 0 -30.5 1.5t-48 5t-43.5 10.5t-18 17v432q0 11 18 17.5t43.5 10t48 5t30.5 1.5h360q8 0 30.5 -1.5t48 -5t43.5 -10t18 -17.5v-432q0 -10 -18 -17t-43.5 -10.5t-48 -5t-30.5 -1.5zM310 68h80v364h-80v-364zM257 570h-110v90q0 22 16.5 31.5t38 12.5t36.5 3
q35 0 57 -4t39 -13.5t35 -24.5t45 -38q7 -6 13 -11.5t14 -10.5q2 6 2 23.5v24.5v51h110v-90q0 -23 -18 -33t-41.5 -11.5t-40.5 -1.5q-39 0 -64.5 5.5t-44.5 17t-39 29t-48 40.5v-90z" />
    <glyph glyph-name="odieresis" unicode="&#xf6;" horiz-adv-x="700" 
d="M530 0h-360q-8 0 -30.5 1.5t-48 5t-43.5 10.5t-18 17v432q0 11 18 17.5t43.5 10t48 5t30.5 1.5h360q8 0 30.5 -1.5t48 -5t43.5 -10t18 -17.5v-432q0 -10 -18 -17t-43.5 -10.5t-48 -5t-30.5 -1.5zM310 68h80v364h-80v-364zM530 684v-81q0 -6 -13 -9t-27.5 -4.5t-19.5 -1.5
h-59v82q0 6 13 9t27.5 4t18.5 1h60zM290 684v-81q0 -6 -13 -9t-27.5 -4.5t-19.5 -1.5h-59v82q0 6 13 9t27.5 4t18.5 1h60z" />
    <glyph glyph-name="divide" unicode="&#xf7;" horiz-adv-x="520" 
d="M330 463v-97q0 -7 -15 -10.5t-32 -5t-23 -1.5h-70v97q0 7 15 10.5t32 5t23 1.5h70zM30 209v68h460v-68h-460zM330 137v-97q0 -7 -15 -10.5t-32 -5t-23 -1.5h-70v97q0 7 15 10.5t32 5t23 1.5h70z" />
    <glyph glyph-name="oslash" unicode="&#xf8;" horiz-adv-x="700" 
d="M530 0h-246l-27 -69l-56 18l20 51h-51q-8 0 -30.5 1.5t-48 5t-43.5 10.5t-18 17v432q0 11 18 17.5t43.5 10t48 5t30.5 1.5h245l27 69l56 -18l-20 -51h52q8 0 30.5 -1.5t48 -5t43.5 -10t18 -17.5v-432q0 -10 -18 -17t-43.5 -10.5t-48 -5t-30.5 -1.5zM310 432v-203l79 203
h-79zM390 68v205l-80 -205h80z" />
    <glyph glyph-name="ugrave" unicode="&#xf9;" horiz-adv-x="700" 
d="M30 500h280v-432h80v432h280v-466q0 -10 -18 -17t-43.5 -10.5t-48 -5t-30.5 -1.5h-360q-8 0 -30.5 1.5t-48 5t-43.5 10.5t-18 17v466zM454 582l-271 65l24 78l267 -73z" />
    <glyph glyph-name="uacute" unicode="&#xfa;" horiz-adv-x="700" 
d="M30 500h280v-432h80v432h280v-466q0 -10 -18 -17t-43.5 -10.5t-48 -5t-30.5 -1.5h-360q-8 0 -30.5 1.5t-48 5t-43.5 10.5t-18 17v466zM511 721l24 -78l-271 -65l-20 70z" />
    <glyph glyph-name="ucircumflex" unicode="&#xfb;" horiz-adv-x="700" 
d="M30 500h280v-432h80v432h280v-466q0 -10 -18 -17t-43.5 -10.5t-48 -5t-30.5 -1.5h-360q-8 0 -30.5 1.5t-48 5t-43.5 10.5t-18 17v466zM182 574l-29 72l123 40q17 6 36.5 13t37.5 7q19 0 38 -7t36 -13l124 -40l-29 -72q-43 14 -85 28t-84 27z" />
    <glyph glyph-name="udieresis" unicode="&#xfc;" horiz-adv-x="700" 
d="M30 500h280v-432h80v432h280v-466q0 -10 -18 -17t-43.5 -10.5t-48 -5t-30.5 -1.5h-360q-8 0 -30.5 1.5t-48 5t-43.5 10.5t-18 17v466zM530 684v-81q0 -6 -13 -9t-27.5 -4.5t-19.5 -1.5h-59v82q0 6 13 9t27.5 4t18.5 1h60zM290 684v-81q0 -6 -13 -9t-27.5 -4.5t-19.5 -1.5
h-59v82q0 6 13 9t27.5 4t18.5 1h60z" />
    <glyph glyph-name="yacute" unicode="&#xfd;" horiz-adv-x="700" 
d="M30 500h280v-432h80v432h280v-631q0 -10 -18 -17t-43.5 -10.5t-48 -5t-30.5 -1.5h-498v68h358v125q-6 -9 -24.5 -14.5t-41 -8.5t-43 -4t-29.5 -1h-82q-8 0 -30.5 1.5t-48 5t-43.5 10.5t-18 17v466zM511 721l24 -78l-271 -65l-20 70z" />
    <glyph glyph-name="thorn" unicode="&#xfe;" horiz-adv-x="700" 
d="M310 -165h-280v830h280v-195q5 9 23 15t41.5 9t44 4.5t30.5 1.5h81q8 0 30.5 -1.5t48 -5t43.5 -10t18 -17.5v-432q0 -10 -18 -17t-43.5 -10.5t-48 -5t-30.5 -1.5h-81q-10 0 -31 1.5t-44 4.5t-41 9t-23 15v-195zM310 68h80v364h-80v-364z" />
    <glyph glyph-name="ydieresis" unicode="&#xff;" horiz-adv-x="700" 
d="M30 500h280v-432h80v432h280v-631q0 -10 -18 -17t-43.5 -10.5t-48 -5t-30.5 -1.5h-498v68h358v125q-6 -9 -24.5 -14.5t-41 -8.5t-43 -4t-29.5 -1h-82q-8 0 -30.5 1.5t-48 5t-43.5 10.5t-18 17v466zM530 684v-81q0 -6 -13 -9t-27.5 -4.5t-19.5 -1.5h-59v82q0 6 13 9
t27.5 4t18.5 1h60zM290 684v-81q0 -6 -13 -9t-27.5 -4.5t-19.5 -1.5h-59v82q0 6 13 9t27.5 4t18.5 1h60z" />
    <glyph glyph-name="Amacron" unicode="&#x100;" horiz-adv-x="780" 
d="M320 0h-290v630q0 11 19 18t45 10.5t49 5t32 1.5h430q9 0 32 -1.5t49 -5t45 -10.5t19 -18v-630h-290v271h-140v-271zM320 341h140v254h-140v-254zM207 769v68h366v-68h-366z" />
    <glyph glyph-name="amacron" unicode="&#x101;" horiz-adv-x="706" 
d="M49 432v68h490q8 0 30.5 -1.5t48 -5t43.5 -10t18 -17.5v-432q0 -10 -18 -17t-43.5 -10.5t-48 -5t-30.5 -1.5h-369q-8 0 -30.5 1.5t-48 5t-43.5 10.5t-18 17v275q0 11 18 17.5t43.5 10t48 5t30.5 1.5h89q11 0 31.5 -1t43.5 -4.5t41 -9.5t23 -15q1 -1 1 -4v123h-350z
M399 275h-89v-207h89v207zM172 604v68h366v-68h-366z" />
    <glyph glyph-name="Abreve" unicode="&#x102;" horiz-adv-x="780" 
d="M320 0h-290v630q0 11 19 18t45 10.5t49 5t32 1.5h430q9 0 32 -1.5t49 -5t45 -10.5t19 -18v-630h-290v271h-140v-271zM320 341h140v254h-140v-254zM213 866h94v-62h166v62h94v-80q0 -27 -21 -42.5t-46 -15.5h-220q-25 0 -46 15.5t-21 42.5v80z" />
    <glyph glyph-name="abreve" unicode="&#x103;" horiz-adv-x="706" 
d="M49 432v68h490q8 0 30.5 -1.5t48 -5t43.5 -10t18 -17.5v-432q0 -10 -18 -17t-43.5 -10.5t-48 -5t-30.5 -1.5h-369q-8 0 -30.5 1.5t-48 5t-43.5 10.5t-18 17v275q0 11 18 17.5t43.5 10t48 5t30.5 1.5h89q11 0 31.5 -1t43.5 -4.5t41 -9.5t23 -15q1 -1 1 -4v123h-350z
M399 275h-89v-207h89v207zM178 701h94v-62h166v62h94v-80q0 -27 -21 -42.5t-46 -15.5h-220q-25 0 -46 15.5t-21 42.5v80z" />
    <glyph glyph-name="Aogonek" unicode="&#x104;" horiz-adv-x="790" 
d="M325 0h-290v630q0 11 19 18t45 10.5t49 5t32 1.5h430q9 0 32 -1.5t49 -5t45 -10.5t19 -18v-630h-290v271h-140v-271zM325 341h140v254h-140v-254zM537 17h151q-1 -6 -5.5 -21.5t-9.5 -33.5t-8.5 -32.5t-3.5 -17.5v-90h48v-45h-123q-7 0 -25 2t-34 7t-16 14v113
q0 6 5.5 27.5t12 44.5t8.5 32z" />
    <glyph glyph-name="aogonek" unicode="&#x105;" horiz-adv-x="706" 
d="M49 432v68h490q8 0 30.5 -1.5t48 -5t43.5 -10t18 -17.5v-432q0 -10 -18 -17t-43.5 -10.5t-48 -5t-30.5 -1.5h-369q-8 0 -30.5 1.5t-48 5t-43.5 10.5t-18 17v275q0 11 18 17.5t43.5 10t48 5t30.5 1.5h89q11 0 31.5 -1t43.5 -4.5t41 -9.5t23 -15q1 -1 1 -4v123h-350z
M399 275h-89v-207h89v207zM507 17h151q-1 -6 -5.5 -21.5t-9.5 -33.5t-8.5 -32.5t-3.5 -17.5v-90h48v-45h-123q-7 0 -25 2t-34 7t-16 14v113q0 6 5.5 27.5t12 44.5t8.5 32z" />
    <glyph glyph-name="Cacute" unicode="&#x106;" horiz-adv-x="615" 
d="M585 70v-70h-410q-9 0 -32 1.5t-49 5t-45 10.5t-19 18v595q0 11 19 18t45 10.5t49 5t32 1.5h410v-70h-265v-525h265zM469 886l24 -78l-271 -65l-20 70z" />
    <glyph glyph-name="cacute" unicode="&#x107;" horiz-adv-x="560" 
d="M530 500v-68h-220v-364h220v-68h-360q-8 0 -30.5 1.5t-48 5t-43.5 10.5t-18 17v432q0 11 18 17.5t43.5 10t48 5t30.5 1.5h360zM461 721l24 -78l-271 -65l-20 70z" />
    <glyph glyph-name="Ccircumflex" unicode="&#x108;" horiz-adv-x="615" 
d="M585 70v-70h-410q-9 0 -32 1.5t-49 5t-45 10.5t-19 18v595q0 11 19 18t45 10.5t49 5t32 1.5h410v-70h-265v-525h265zM160 739l-29 72l123 40q17 6 36.5 13t37.5 7q19 0 38 -7t36 -13l124 -40l-29 -72q-43 14 -85 28t-84 27z" />
    <glyph glyph-name="ccircumflex" unicode="&#x109;" horiz-adv-x="560" 
d="M530 500v-68h-220v-364h220v-68h-360q-8 0 -30.5 1.5t-48 5t-43.5 10.5t-18 17v432q0 11 18 17.5t43.5 10t48 5t30.5 1.5h360zM132 574l-29 72l123 40q17 6 36.5 13t37.5 7q19 0 38 -7t36 -13l124 -40l-29 -72q-43 14 -85 28t-84 27z" />
    <glyph glyph-name="Cdotaccent" unicode="&#x10a;" horiz-adv-x="615" 
d="M585 70v-70h-410q-9 0 -32 1.5t-49 5t-45 10.5t-19 18v595q0 11 19 18t45 10.5t49 5t32 1.5h410v-70h-265v-525h265zM269 753v82q0 6 12.5 9t27 4t19.5 1h60v-81q0 -6 -13 -9t-27.5 -4.5t-19.5 -1.5h-59z" />
    <glyph glyph-name="cdotaccent" unicode="&#x10b;" horiz-adv-x="560" 
d="M530 500v-68h-220v-364h220v-68h-360q-8 0 -30.5 1.5t-48 5t-43.5 10.5t-18 17v432q0 11 18 17.5t43.5 10t48 5t30.5 1.5h360zM241 588v82q0 6 12.5 9t27 4t19.5 1h60v-81q0 -6 -13 -9t-27.5 -4.5t-19.5 -1.5h-59z" />
    <glyph glyph-name="Ccaron" unicode="&#x10c;" horiz-adv-x="615" 
d="M585 70v-70h-410q-9 0 -32 1.5t-49 5t-45 10.5t-19 18v595q0 11 19 18t45 10.5t49 5t32 1.5h410v-70h-265v-525h265zM150 861l168 -55l84 28t85 27l29 -72l-124 -40q-17 -6 -36 -13t-38 -7q-18 0 -37.5 7t-36.5 13l-123 40z" />
    <glyph glyph-name="ccaron" unicode="&#x10d;" horiz-adv-x="560" 
d="M530 500v-68h-220v-364h220v-68h-360q-8 0 -30.5 1.5t-48 5t-43.5 10.5t-18 17v432q0 11 18 17.5t43.5 10t48 5t30.5 1.5h360zM132 696l168 -55l84 28t85 27l29 -72l-124 -40q-17 -6 -36 -13t-38 -7q-18 0 -37.5 7t-36.5 13l-123 40z" />
    <glyph glyph-name="Dcaron" unicode="&#x10e;" horiz-adv-x="781" 
d="M30 0v665h496q29 0 67.5 -3t74.5 -14t59.5 -34t23.5 -64v-435q0 -40 -23.5 -63.5t-59.5 -34.5t-74.5 -14t-67.5 -3h-496zM320 70h127q8 10 11 21.5t3 23.5v435q0 12 -3 23.5t-11 21.5h-127v-525zM223 861l168 -55l84 28t85 27l29 -72l-124 -40q-17 -6 -36 -13t-38 -7
q-18 0 -37.5 7t-36.5 13l-123 40z" />
    <glyph glyph-name="dcaron" unicode="&#x10f;" horiz-adv-x="950" 
d="M770 452v243h75q6 0 24 -1.5t34.5 -5t16.5 -11.5v-225h-150zM390 665h280v-631q0 -10 -18 -17t-43.5 -10.5t-48 -5t-30.5 -1.5h-360q-8 0 -30.5 1.5t-48 5t-43.5 10.5t-18 17v432q0 11 18 17.5t43.5 10t48 5t30.5 1.5h81q11 0 31.5 -1t43.5 -4.5t41 -9.5t23 -15v195z
M310 68h80v364h-80v-364z" />
    <glyph glyph-name="Dcroat" unicode="&#x110;" horiz-adv-x="801" 
d="M50 0v299h-70v68h70v298h496q29 0 67.5 -3t74.5 -14t59.5 -34t23.5 -64v-435q0 -40 -23.5 -63.5t-59.5 -34.5t-74.5 -14t-67.5 -3h-496zM340 70h127q8 10 11 21.5t3 23.5v435q0 12 -3 23.5t-11 21.5h-127v-228h80v-68h-80v-229z" />
    <glyph glyph-name="dcroat" unicode="&#x111;" horiz-adv-x="730" 
d="M300 546v48h90v71h280v-71h50v-48h-50v-512q0 -10 -18 -17t-43.5 -10.5t-48 -5t-30.5 -1.5h-360q-8 0 -30.5 1.5t-48 5t-43.5 10.5t-18 17v432q0 11 18 17.5t43.5 10t48 5t30.5 1.5h81q11 0 31.5 -1t43.5 -4.5t41 -9.5t23 -15v76h-90zM310 68h80v364h-80v-364z" />
    <glyph glyph-name="Emacron" unicode="&#x112;" horiz-adv-x="645" 
d="M605 370v-70h-285v-230h295v-70h-440q-9 0 -32 1.5t-49 5t-45 10.5t-19 18v595q0 11 19 18t45 10.5t49 5t32 1.5h440v-70h-295v-225h285zM170 769v68h366v-68h-366z" />
    <glyph glyph-name="emacron" unicode="&#x113;" horiz-adv-x="700" 
d="M660 68v-68h-490q-8 0 -30.5 1.5t-48 5t-43.5 10.5t-18 17v432q0 11 18 17.5t43.5 10t48 5t30.5 1.5h360q8 0 30.5 -1.5t48 -5t43.5 -10t18 -17.5v-290q0 -10 -18 -17t-43.5 -10.5t-48 -5t-30.5 -1.5h-81q-10 0 -31 1t-44 4.5t-41 9.5t-23 15v-104h350zM310 210h80v222
h-80v-222zM167 604v68h366v-68h-366z" />
    <glyph glyph-name="Ebreve" unicode="&#x114;" horiz-adv-x="645" 
d="M605 370v-70h-285v-230h295v-70h-440q-9 0 -32 1.5t-49 5t-45 10.5t-19 18v595q0 11 19 18t45 10.5t49 5t32 1.5h440v-70h-295v-225h285zM176 866h94v-62h166v62h94v-80q0 -27 -21 -42.5t-46 -15.5h-220q-25 0 -46 15.5t-21 42.5v80z" />
    <glyph glyph-name="ebreve" unicode="&#x115;" horiz-adv-x="700" 
d="M660 68v-68h-490q-8 0 -30.5 1.5t-48 5t-43.5 10.5t-18 17v432q0 11 18 17.5t43.5 10t48 5t30.5 1.5h360q8 0 30.5 -1.5t48 -5t43.5 -10t18 -17.5v-290q0 -10 -18 -17t-43.5 -10.5t-48 -5t-30.5 -1.5h-81q-10 0 -31 1t-44 4.5t-41 9.5t-23 15v-104h350zM310 210h80v222
h-80v-222zM173 701h94v-62h166v62h94v-80q0 -27 -21 -42.5t-46 -15.5h-220q-25 0 -46 15.5t-21 42.5v80z" />
    <glyph glyph-name="Edotaccent" unicode="&#x116;" horiz-adv-x="645" 
d="M605 370v-70h-285v-230h295v-70h-440q-9 0 -32 1.5t-49 5t-45 10.5t-19 18v595q0 11 19 18t45 10.5t49 5t32 1.5h440v-70h-295v-225h285zM294 753v82q0 6 12.5 9t27 4t19.5 1h60v-81q0 -6 -13 -9t-27.5 -4.5t-19.5 -1.5h-59z" />
    <glyph glyph-name="edotaccent" unicode="&#x117;" horiz-adv-x="700" 
d="M660 68v-68h-490q-8 0 -30.5 1.5t-48 5t-43.5 10.5t-18 17v432q0 11 18 17.5t43.5 10t48 5t30.5 1.5h360q8 0 30.5 -1.5t48 -5t43.5 -10t18 -17.5v-290q0 -10 -18 -17t-43.5 -10.5t-48 -5t-30.5 -1.5h-81q-10 0 -31 1t-44 4.5t-41 9.5t-23 15v-104h350zM310 210h80v222
h-80v-222zM291 588v82q0 6 12.5 9t27 4t19.5 1h60v-81q0 -6 -13 -9t-27.5 -4.5t-19.5 -1.5h-59z" />
    <glyph glyph-name="Eogonek" unicode="&#x118;" horiz-adv-x="645" 
d="M605 370v-70h-285v-230h295v-70h-440q-9 0 -32 1.5t-49 5t-45 10.5t-19 18v595q0 11 19 18t45 10.5t49 5t32 1.5h440v-70h-295v-225h285zM440 17h151q-1 -6 -5.5 -21.5t-9.5 -33.5t-8.5 -32.5t-3.5 -17.5v-90h48v-45h-123q-7 0 -25 2t-34 7t-16 14v113q0 6 5.5 27.5
t12 44.5t8.5 32z" />
    <glyph glyph-name="eogonek" unicode="&#x119;" horiz-adv-x="700" 
d="M660 68v-68h-490q-8 0 -30.5 1.5t-48 5t-43.5 10.5t-18 17v432q0 11 18 17.5t43.5 10t48 5t30.5 1.5h360q8 0 30.5 -1.5t48 -5t43.5 -10t18 -17.5v-290q0 -10 -18 -17t-43.5 -10.5t-48 -5t-30.5 -1.5h-81q-10 0 -31 1t-44 4.5t-41 9.5t-23 15v-104h350zM310 210h80v222
h-80v-222zM487 17h151q-1 -6 -5.5 -21.5t-9.5 -33.5t-8.5 -32.5t-3.5 -17.5v-90h48v-45h-123q-7 0 -25 2t-34 7t-16 14v113q0 6 5.5 27.5t12 44.5t8.5 32z" />
    <glyph glyph-name="Ecaron" unicode="&#x11a;" horiz-adv-x="645" 
d="M605 370v-70h-285v-230h295v-70h-440q-9 0 -32 1.5t-49 5t-45 10.5t-19 18v595q0 11 19 18t45 10.5t49 5t32 1.5h440v-70h-295v-225h285zM185 861l168 -55l84 28t85 27l29 -72l-124 -40q-17 -6 -36 -13t-38 -7q-18 0 -37.5 7t-36.5 13l-123 40z" />
    <glyph glyph-name="ecaron" unicode="&#x11b;" horiz-adv-x="700" 
d="M660 68v-68h-490q-8 0 -30.5 1.5t-48 5t-43.5 10.5t-18 17v432q0 11 18 17.5t43.5 10t48 5t30.5 1.5h360q8 0 30.5 -1.5t48 -5t43.5 -10t18 -17.5v-290q0 -10 -18 -17t-43.5 -10.5t-48 -5t-30.5 -1.5h-81q-10 0 -31 1t-44 4.5t-41 9.5t-23 15v-104h350zM310 210h80v222
h-80v-222zM182 696l168 -55l84 28t85 27l29 -72l-124 -40q-17 -6 -36 -13t-38 -7q-18 0 -37.5 7t-36.5 13l-123 40z" />
    <glyph glyph-name="Gcircumflex" unicode="&#x11c;" horiz-adv-x="760" 
d="M715 665v-70h-395v-525h120v290h290v-325q0 -11 -19 -18t-45 -10.5t-49 -5t-32 -1.5h-410q-9 0 -32 1.5t-49 5t-45 10.5t-19 18v595q0 11 19 18t45 10.5t49 5t32 1.5h540zM222 739l-29 72l123 40q17 6 36.5 13t37.5 7q19 0 38 -7t36 -13l124 -40l-29 -72q-43 14 -85 28
t-84 27z" />
    <glyph glyph-name="gcircumflex" unicode="&#x11d;" horiz-adv-x="725" 
d="M310 -107h80v130h-220q-8 0 -30.5 1.5t-48 5t-43.5 10.5t-18 17v118q0 11 18 17.5t43.5 10t48 5t30.5 1.5h220v223h-80v-173h-140q-8 0 -30.5 1.5t-48 5t-43.5 10.5t-18 17v173q0 11 18 17.5t43.5 10t48 5t30.5 1.5h535v-68h-159v-9q15 -1 35.5 -3t41 -6t34 -10t13.5 -15
v-214q0 -10 -18 -17t-43.5 -10.5t-48 -5t-30.5 -1.5h-220v-50h220q8 0 30.5 -1.5t48 -5t43.5 -10t18 -17.5v-198q0 -10 -18 -17t-43.5 -10.5t-48 -5t-30.5 -1.5h-360q-8 0 -30.5 1.5t-48 5t-43.5 10.5t-18 17v80q0 11 18 17.5t43.5 10t48 5t30.5 1.5h140v-80zM210 574
l-29 72l123 40q17 6 36.5 13t37.5 7q19 0 38 -7t36 -13l124 -40l-29 -72q-43 14 -85 28t-84 27z" />
    <glyph glyph-name="Gbreve" unicode="&#x11e;" horiz-adv-x="760" 
d="M715 665v-70h-395v-525h120v290h290v-325q0 -11 -19 -18t-45 -10.5t-49 -5t-32 -1.5h-410q-9 0 -32 1.5t-49 5t-45 10.5t-19 18v595q0 11 19 18t45 10.5t49 5t32 1.5h540zM223 866h94v-62h166v62h94v-80q0 -27 -21 -42.5t-46 -15.5h-220q-25 0 -46 15.5t-21 42.5v80z" />
    <glyph glyph-name="gbreve" unicode="&#x11f;" horiz-adv-x="725" 
d="M310 -107h80v130h-220q-8 0 -30.5 1.5t-48 5t-43.5 10.5t-18 17v118q0 11 18 17.5t43.5 10t48 5t30.5 1.5h220v223h-80v-173h-140q-8 0 -30.5 1.5t-48 5t-43.5 10.5t-18 17v173q0 11 18 17.5t43.5 10t48 5t30.5 1.5h535v-68h-159v-9q15 -1 35.5 -3t41 -6t34 -10t13.5 -15
v-214q0 -10 -18 -17t-43.5 -10.5t-48 -5t-30.5 -1.5h-220v-50h220q8 0 30.5 -1.5t48 -5t43.5 -10t18 -17.5v-198q0 -10 -18 -17t-43.5 -10.5t-48 -5t-30.5 -1.5h-360q-8 0 -30.5 1.5t-48 5t-43.5 10.5t-18 17v80q0 11 18 17.5t43.5 10t48 5t30.5 1.5h140v-80zM201 701h94
v-62h166v62h94v-80q0 -27 -21 -42.5t-46 -15.5h-220q-25 0 -46 15.5t-21 42.5v80z" />
    <glyph glyph-name="Gdotaccent" unicode="&#x120;" horiz-adv-x="760" 
d="M715 665v-70h-395v-525h120v290h290v-325q0 -11 -19 -18t-45 -10.5t-49 -5t-32 -1.5h-410q-9 0 -32 1.5t-49 5t-45 10.5t-19 18v595q0 11 19 18t45 10.5t49 5t32 1.5h540zM331 753v82q0 6 12.5 9t27 4t19.5 1h60v-81q0 -6 -13 -9t-27.5 -4.5t-19.5 -1.5h-59z" />
    <glyph glyph-name="gdotaccent" unicode="&#x121;" horiz-adv-x="725" 
d="M310 -107h80v130h-220q-8 0 -30.5 1.5t-48 5t-43.5 10.5t-18 17v118q0 11 18 17.5t43.5 10t48 5t30.5 1.5h220v223h-80v-173h-140q-8 0 -30.5 1.5t-48 5t-43.5 10.5t-18 17v173q0 11 18 17.5t43.5 10t48 5t30.5 1.5h535v-68h-159v-9q15 -1 35.5 -3t41 -6t34 -10t13.5 -15
v-214q0 -10 -18 -17t-43.5 -10.5t-48 -5t-30.5 -1.5h-220v-50h220q8 0 30.5 -1.5t48 -5t43.5 -10t18 -17.5v-198q0 -10 -18 -17t-43.5 -10.5t-48 -5t-30.5 -1.5h-360q-8 0 -30.5 1.5t-48 5t-43.5 10.5t-18 17v80q0 11 18 17.5t43.5 10t48 5t30.5 1.5h140v-80zM319 588v82
q0 6 12.5 9t27 4t19.5 1h60v-81q0 -6 -13 -9t-27.5 -4.5t-19.5 -1.5h-59z" />
    <glyph glyph-name="Gcommaaccent" unicode="&#x122;" horiz-adv-x="760" 
d="M715 665v-70h-395v-525h120v290h290v-325q0 -11 -19 -18t-45 -10.5t-49 -5t-32 -1.5h-410q-9 0 -32 1.5t-49 5t-45 10.5t-19 18v595q0 11 19 18t45 10.5t49 5t32 1.5h540zM310 -83v23h75q6 0 24.5 -1.5t35 -5t15.5 -11.5l-10 -200h-150z" />
    <glyph glyph-name="gcommaaccent" unicode="&#x123;" horiz-adv-x="725" 
d="M422 564l-96 26l68 188l90 -24zM310 -107h80v130h-220q-8 0 -30.5 1.5t-48 5t-43.5 10.5t-18 17v118q0 11 18 17.5t43.5 10t48 5t30.5 1.5h220v223h-80v-173h-140q-8 0 -30.5 1.5t-48 5t-43.5 10.5t-18 17v173q0 11 18 17.5t43.5 10t48 5t30.5 1.5h535v-68h-159v-9
q15 -1 35.5 -3t41 -6t34 -10t13.5 -15v-214q0 -10 -18 -17t-43.5 -10.5t-48 -5t-30.5 -1.5h-220v-50h220q8 0 30.5 -1.5t48 -5t43.5 -10t18 -17.5v-198q0 -10 -18 -17t-43.5 -10.5t-48 -5t-30.5 -1.5h-360q-8 0 -30.5 1.5t-48 5t-43.5 10.5t-18 17v80q0 11 18 17.5t43.5 10
t48 5t30.5 1.5h140v-80z" />
    <glyph glyph-name="Hcircumflex" unicode="&#x124;" horiz-adv-x="780" 
d="M460 665h290v-665h-290v313h-140v-313h-290v665h290v-282h140v282zM222 739l-29 72l123 40q17 6 36.5 13t37.5 7q19 0 38 -7t36 -13l124 -40l-29 -72q-43 14 -85 28t-84 27z" />
    <glyph glyph-name="hcircumflex" unicode="&#x125;" horiz-adv-x="700" 
d="M310 0h-280v665h280v-195q5 9 23 15t41.5 9t44 4.5t30.5 1.5h81q8 0 30.5 -1.5t48 -5t43.5 -10t18 -17.5v-466h-280v432h-80v-432zM2 739l-29 72l123 40q17 6 36.5 13t37.5 7q19 0 38 -7t36 -13l124 -40l-29 -72q-43 14 -85 28t-84 27z" />
    <glyph glyph-name="Hbar" unicode="&#x126;" horiz-adv-x="820" 
d="M0 476v48h50v141h290v-141h140v141h290v-141h50v-48h-50v-476h-290v313h-140v-313h-290v476h-50zM340 383h140v93h-140v-93z" />
    <glyph glyph-name="hbar" unicode="&#x127;" horiz-adv-x="730" 
d="M340 0h-280v546h-50v48h50v71h280v-71h90v-48h-90v-76q5 9 23 15t41.5 9t44 4.5t30.5 1.5h81q8 0 30.5 -1.5t48 -5t43.5 -10t18 -17.5v-466h-280v432h-80v-432z" />
    <glyph glyph-name="Itilde" unicode="&#x128;" horiz-adv-x="350" 
d="M30 665h290v-665h-290v665zM82 735h-110v90q0 22 16.5 31.5t38 12.5t36.5 3q35 0 57 -4t39 -13.5t35 -24.5t45 -38q7 -6 13 -11.5t14 -10.5q2 6 2 23.5v24.5v51h110v-90q0 -23 -18 -33t-41.5 -11.5t-40.5 -1.5q-39 0 -64.5 5.5t-44.5 17t-39 29t-48 40.5v-90z" />
    <glyph glyph-name="itilde" unicode="&#x129;" horiz-adv-x="341" 
d="M30 500h280v-500h-280v500zM77 570h-110v90q0 22 16.5 31.5t38 12.5t36.5 3q35 0 57 -4t39 -13.5t35 -24.5t45 -38q7 -6 13 -11.5t14 -10.5q2 6 2 23.5v24.5v51h110v-90q0 -23 -18 -33t-41.5 -11.5t-40.5 -1.5q-39 0 -64.5 5.5t-44.5 17t-39 29t-48 40.5v-90z" />
    <glyph glyph-name="Imacron" unicode="&#x12a;" horiz-adv-x="350" 
d="M30 665h290v-665h-290v665zM-8 769v68h366v-68h-366z" />
    <glyph glyph-name="imacron" unicode="&#x12b;" horiz-adv-x="341" 
d="M30 500h280v-500h-280v500zM-13 604v68h366v-68h-366z" />
    <glyph glyph-name="Iogonek" unicode="&#x12e;" horiz-adv-x="350" 
d="M30 665h290v-665h-290v665zM102 17h151q-1 -6 -5.5 -21.5t-9.5 -33.5t-8.5 -32.5t-3.5 -17.5v-90h48v-45h-123q-7 0 -25 2t-34 7t-16 14v113q0 6 5.5 27.5t12 44.5t8.5 32z" />
    <glyph glyph-name="iogonek" unicode="&#x12f;" horiz-adv-x="341" 
d="M311 550h-280v81q0 11 18 17.5t43.5 10t48 5t30.5 1.5h140v-115zM30 500h280v-500h-280v500zM98 17h151q-1 -6 -5.5 -21.5t-9.5 -33.5t-8.5 -32.5t-3.5 -17.5v-90h48v-45h-123q-7 0 -25 2t-34 7t-16 14v113q0 6 5.5 27.5t12 44.5t8.5 32z" />
    <glyph glyph-name="Idotaccent" unicode="&#x130;" horiz-adv-x="350" 
d="M30 665h290v-665h-290v665zM116 753v82q0 6 12.5 9t27 4t19.5 1h60v-81q0 -6 -13 -9t-27.5 -4.5t-19.5 -1.5h-59z" />
    <glyph glyph-name="dotlessi" unicode="&#x131;" horiz-adv-x="341" 
d="M30 500h280v-500h-280v500z" />
    <glyph glyph-name="IJ" unicode="&#x132;" horiz-adv-x="732" 
d="M30 665h290v-665h-290v665zM412 665h290v-599q0 -30 -9 -56.5t-20 -54.5l-45 -123l-288 6l44 123q9 24 15 41t9.5 35t3.5 44v584z" />
    <glyph glyph-name="ij" unicode="&#x133;" horiz-adv-x="691" 
d="M311 550h-280v81q0 11 18 17.5t43.5 10t48 5t30.5 1.5h140v-115zM30 500h280v-500h-280v500zM660 551h-280v80q0 11 18 17.5t43.5 10t48 5t30.5 1.5h140v-114zM381 500h280v-631q0 -10 -18 -17t-43.5 -10.5t-48 -5t-30.5 -1.5h-230v68h90v597z" />
    <glyph glyph-name="Jcircumflex" unicode="&#x134;" horiz-adv-x="382" 
d="M62 665h290v-599q0 -30 -9 -56.5t-20 -54.5l-45 -123l-288 6l44 123q9 24 15 41t9.5 35t3.5 44v584zM39 739l-29 72l123 40q17 6 36.5 13t37.5 7q19 0 38 -7t36 -13l124 -40l-29 -72q-43 14 -85 28t-84 27z" />
    <glyph glyph-name="jcircumflex" unicode="&#x135;" horiz-adv-x="350" 
d="M40 500h280v-631q0 -10 -18 -17t-43.5 -10.5t-48 -5t-30.5 -1.5l-230 1v67h90v597zM13 574l-29 72l123 40q17 6 36.5 13t37.5 7q19 0 38 -7t36 -13l124 -40l-29 -72q-43 14 -85 28t-84 27z" />
    <glyph glyph-name="Kcommaaccent" unicode="&#x136;" horiz-adv-x="750" 
d="M320 0h-290v665h290v-288l63 14l57 276l290 -4l-47 -224q-1 -5 -4 -21t-6 -31.5t-5 -17.5q-7 -8 -27 -14.5t-41 -10.5t-32 -7l-248 -57v-280zM710 0h-290v290h145q9 0 32 -1.5t49 -5t45 -10.5t19 -18v-255zM310 -83v23h75q6 0 24.5 -1.5t35 -5t15.5 -11.5l-10 -200h-150z
" />
    <glyph glyph-name="kcommaaccent" unicode="&#x137;" horiz-adv-x="700" 
d="M30 665h280v-378l52 10l28 202h280q-1 -7 -4.5 -32t-7.5 -57t-8 -62.5t-7.5 -51.5t-4.5 -22q-6 -7 -37 -15.5t-74.5 -17.5t-88.5 -17t-80 -14.5t-48 -8.5v-201h-280v665zM660 0h-280v204h140q8 0 30.5 -1.5t48 -5t43.5 -10t18 -17.5v-170zM280 -83v23h75q6 0 24.5 -1.5
t35 -5t15.5 -11.5l-10 -200h-150z" />
    <glyph glyph-name="kgreenlandic" unicode="&#x138;" horiz-adv-x="700" 
d="M30 500h280v-213l52 10l28 204h280l-29 -218q-1 -7 -18.5 -14t-41.5 -13.5t-46 -11t-32 -6.5l-193 -37v-201h-280v500zM660 0h-280v204h140q8 0 30.5 -1.5t48 -5t43.5 -10t18 -17.5v-170z" />
    <glyph glyph-name="Lacute" unicode="&#x139;" horiz-adv-x="595" 
d="M575 70v-70h-400q-9 0 -32 1.5t-49 5t-45 10.5t-19 18v630h290v-595h255zM306 886l24 -78l-271 -65l-20 70z" />
    <glyph glyph-name="lacute" unicode="&#x13a;" horiz-adv-x="340" 
d="M310 0h-280v695h280v-695zM301 916l24 -78l-271 -65l-20 70z" />
    <glyph glyph-name="Lcommaaccent" unicode="&#x13b;" horiz-adv-x="595" 
d="M575 70v-70h-400q-9 0 -32 1.5t-49 5t-45 10.5t-19 18v630h290v-595h255zM233 -83v23h75q6 0 24.5 -1.5t35 -5t15.5 -11.5l-10 -200h-150z" />
    <glyph glyph-name="lcommaaccent" unicode="&#x13c;" horiz-adv-x="340" 
d="M310 0h-280v695h280v-695zM100 -83v23h75q6 0 24.5 -1.5t35 -5t15.5 -11.5l-10 -200h-150z" />
    <glyph glyph-name="Lcaron" unicode="&#x13d;" horiz-adv-x="595" 
d="M422 452v243h75q6 0 24 -1.5t34.5 -5t16.5 -11.5v-225h-150zM575 70v-70h-400q-9 0 -32 1.5t-49 5t-45 10.5t-19 18v630h290v-595h255z" />
    <glyph glyph-name="lcaron" unicode="&#x13e;" horiz-adv-x="580" 
d="M310 0h-280v695h280v-695zM410 452v243h75q6 0 24.5 -1.5t34.5 -5t16 -11.5v-225h-150z" />
    <glyph glyph-name="Ldot" unicode="&#x13f;" horiz-adv-x="595" 
d="M575 70v-70h-400q-9 0 -32 1.5t-49 5t-45 10.5t-19 18v630h290v-595h255zM418 298v109q0 8 17.5 12t37 5.5t25.5 1.5h80v-109q0 -8 -17.5 -12t-36.5 -5.5t-26 -1.5h-80z" />
    <glyph glyph-name="ldot" unicode="&#x140;" horiz-adv-x="560" 
d="M310 0h-280v695h280v-695zM370 284v109q0 8 17.5 12t37 5.5t25.5 1.5h80v-109q0 -8 -17.5 -12t-36.5 -5.5t-26 -1.5h-80z" />
    <glyph glyph-name="Lslash" unicode="&#x141;" horiz-adv-x="595" 
d="M575 70v-70h-400q-9 0 -32 1.5t-49 5t-45 10.5t-19 18v630h290v-595h255z" />
    <glyph glyph-name="lslash" unicode="&#x142;" horiz-adv-x="340" 
d="M310 0h-280v695h280v-695z" />
    <glyph glyph-name="Nacute" unicode="&#x143;" horiz-adv-x="773" 
d="M320 0h-290v630q0 11 19 18t45 10.5t49 5t32 1.5h373q21 0 54 -2t65 -10t54 -25.5t22 -47.5v-580h-290v387q0 9 0.5 31t0.5 50v55.5t-0.5 47t-2.5 24.5h-131v-595zM548 886l24 -78l-271 -65l-20 70z" />
    <glyph glyph-name="nacute" unicode="&#x144;" horiz-adv-x="700" 
d="M310 0h-280v500h500q8 0 30.5 -1.5t48 -5t43.5 -10t18 -17.5v-466h-280v432h-80v-432zM511 721l24 -78l-271 -65l-20 70z" />
    <glyph glyph-name="Ncommaaccent" unicode="&#x145;" horiz-adv-x="773" 
d="M320 0h-290v630q0 11 19 18t45 10.5t49 5t32 1.5h373q21 0 54 -2t65 -10t54 -25.5t22 -47.5v-580h-290v387q0 9 0.5 31t0.5 50v55.5t-0.5 47t-2.5 24.5h-131v-595zM317 -83v23h75q6 0 24.5 -1.5t35 -5t15.5 -11.5l-10 -200h-150z" />
    <glyph glyph-name="ncommaaccent" unicode="&#x146;" horiz-adv-x="700" 
d="M310 0h-280v500h500q8 0 30.5 -1.5t48 -5t43.5 -10t18 -17.5v-466h-280v432h-80v-432zM280 -83v23h75q6 0 24.5 -1.5t35 -5t15.5 -11.5l-10 -200h-150z" />
    <glyph glyph-name="Ncaron" unicode="&#x147;" horiz-adv-x="773" 
d="M320 0h-290v630q0 11 19 18t45 10.5t49 5t32 1.5h373q21 0 54 -2t65 -10t54 -25.5t22 -47.5v-580h-290v387q0 9 0.5 31t0.5 50v55.5t-0.5 47t-2.5 24.5h-131v-595zM219 861l168 -55l84 28t85 27l29 -72l-124 -40q-17 -6 -36 -13t-38 -7q-18 0 -37.5 7t-36.5 13l-123 40z
" />
    <glyph glyph-name="ncaron" unicode="&#x148;" horiz-adv-x="700" 
d="M310 0h-280v500h500q8 0 30.5 -1.5t48 -5t43.5 -10t18 -17.5v-466h-280v432h-80v-432zM182 696l168 -55l84 28t85 27l29 -72l-124 -40q-17 -6 -36 -13t-38 -7q-18 0 -37.5 7t-36.5 13l-123 40z" />
    <glyph glyph-name="napostrophe" unicode="&#x149;" horiz-adv-x="889" 
d="M499 0h-280v500h500q8 0 30.5 -1.5t48 -5t43.5 -10t18 -17.5v-466h-280v432h-80v-432zM37 673v36h47h21.5t35 -1.5t32 -5.5t13.5 -11l-13 -225h-142z" />
    <glyph glyph-name="Eng" unicode="&#x14a;" horiz-adv-x="773" 
d="M320 0h-290v630q0 11 19 18t45 10.5t49 5t32 1.5h373q21 0 54 -2t65 -10t54 -25.5t22 -47.5v-550q0 -23 -10.5 -51t-24 -55l-24.5 -49l-288 10q10 20 23 45.5t23.5 52t10.5 47.5v550v7.5t-2 7.5h-131v-595z" />
    <glyph glyph-name="eng" unicode="&#x14b;" horiz-adv-x="700" 
d="M310 0h-280v500h500q8 0 30.5 -1.5t48 -5t43.5 -10t18 -17.5v-456q0 -2 -0.5 -5.5t-2.5 -8.5l-59 -130l-279 8l58 123q2 5 2.5 10t0.5 8v417h-80v-432z" />
    <glyph glyph-name="Omacron" unicode="&#x14c;" horiz-adv-x="781" 
d="M606 0h-431q-9 0 -32 1.5t-49 5t-45 10.5t-19 18v595q0 11 19 18t45 10.5t49 5t32 1.5h431q9 0 32 -1.5t49 -5t45 -10.5t19 -18v-595q0 -11 -19 -18t-45 -10.5t-49 -5t-32 -1.5zM320 70h141v525h-141v-525zM208 769v68h366v-68h-366z" />
    <glyph glyph-name="omacron" unicode="&#x14d;" horiz-adv-x="700" 
d="M530 0h-360q-8 0 -30.5 1.5t-48 5t-43.5 10.5t-18 17v432q0 11 18 17.5t43.5 10t48 5t30.5 1.5h360q8 0 30.5 -1.5t48 -5t43.5 -10t18 -17.5v-432q0 -10 -18 -17t-43.5 -10.5t-48 -5t-30.5 -1.5zM310 68h80v364h-80v-364zM167 604v68h366v-68h-366z" />
    <glyph glyph-name="Obreve" unicode="&#x14e;" horiz-adv-x="781" 
d="M606 0h-431q-9 0 -32 1.5t-49 5t-45 10.5t-19 18v595q0 11 19 18t45 10.5t49 5t32 1.5h431q9 0 32 -1.5t49 -5t45 -10.5t19 -18v-595q0 -11 -19 -18t-45 -10.5t-49 -5t-32 -1.5zM320 70h141v525h-141v-525zM214 866h94v-62h166v62h94v-80q0 -27 -21 -42.5t-46 -15.5h-220
q-25 0 -46 15.5t-21 42.5v80z" />
    <glyph glyph-name="obreve" unicode="&#x14f;" horiz-adv-x="700" 
d="M530 0h-360q-8 0 -30.5 1.5t-48 5t-43.5 10.5t-18 17v432q0 11 18 17.5t43.5 10t48 5t30.5 1.5h360q8 0 30.5 -1.5t48 -5t43.5 -10t18 -17.5v-432q0 -10 -18 -17t-43.5 -10.5t-48 -5t-30.5 -1.5zM310 68h80v364h-80v-364zM173 701h94v-62h166v62h94v-80q0 -27 -21 -42.5
t-46 -15.5h-220q-25 0 -46 15.5t-21 42.5v80z" />
    <glyph glyph-name="Ohungarumlaut" unicode="&#x150;" horiz-adv-x="781" 
d="M606 0h-431q-9 0 -32 1.5t-49 5t-45 10.5t-19 18v595q0 11 19 18t45 10.5t49 5t32 1.5h431q9 0 32 -1.5t49 -5t45 -10.5t19 -18v-595q0 -11 -19 -18t-45 -10.5t-49 -5t-32 -1.5zM320 70h141v525h-141v-525zM557 881l118 -6l-148 -144l-104 6zM371 881l118 -6l-137 -144
l-104 6z" />
    <glyph glyph-name="ohungarumlaut" unicode="&#x151;" horiz-adv-x="700" 
d="M530 0h-360q-8 0 -30.5 1.5t-48 5t-43.5 10.5t-18 17v432q0 11 18 17.5t43.5 10t48 5t30.5 1.5h360q8 0 30.5 -1.5t48 -5t43.5 -10t18 -17.5v-432q0 -10 -18 -17t-43.5 -10.5t-48 -5t-30.5 -1.5zM310 68h80v364h-80v-364zM516 716l118 -6l-148 -144l-104 6zM330 716
l118 -6l-137 -144l-104 6z" />
    <glyph glyph-name="OE" unicode="&#x152;" horiz-adv-x="1426" 
d="M1036 370v-70h-285v-230h295v-70h-440q-8 0 -29.5 1.5t-46 4.5t-44 9t-24.5 15v0q-4 -9 -23 -15t-43.5 -9.5t-46 -4.5t-31.5 -1h-143q-9 0 -32 1.5t-49 5t-45 10.5t-19 18v595q0 11 19 18t45 10.5t49 5t32 1.5h143q11 0 32.5 -1t45.5 -4.5t42.5 -9.5t23.5 -15v0
q5 9 24.5 15t44 9t46 4.5t29.5 1.5h440v-70h-295v-225h285zM320 70h141v525h-141v-525z" />
    <glyph glyph-name="oe" unicode="&#x153;" horiz-adv-x="1060" 
d="M1020 68v-68h-490q-8 0 -29 1.5t-45.5 4.5t-43 9t-22.5 16v-1q-4 -9 -22.5 -15t-42 -9t-44 -4.5t-30.5 -1.5h-81q-8 0 -30.5 1.5t-48 5t-43.5 10.5t-18 17v432q0 11 18 17.5t43.5 10t48 5t30.5 1.5h81q10 0 31 -1t44 -4.5t41 -9.5t23 -15v-2q3 10 22 16.5t43.5 9.5
t45.5 4.5t29 1.5h360q8 0 30.5 -1.5t48 -5t43.5 -10t18 -17.5v-290q0 -10 -18 -17t-43.5 -10.5t-48 -5t-30.5 -1.5h-81q-10 0 -31 1t-44 4.5t-41 9.5t-23 15v-104h350zM310 68h80v365h-80v-365zM670 210h80v222h-80v-222z" />
    <glyph glyph-name="Racute" unicode="&#x154;" horiz-adv-x="778" 
d="M320 0h-290v630q0 11 19 18t45 10.5t49 5t32 1.5h400q9 0 32 -1.5t49 -5t45 -10.5t19 -18v-259q0 -7 -15.5 -15t-36.5 -16.5t-39.5 -14.5t-25.5 -9l145 -311l-288 -10q-4 9 -16 35t-29 62t-35 74.5t-34 73t-26 56.5v-296zM430 381v214h-110v-257q13 8 33 15.5t41.5 14.5
t35.5 13zM550 886l24 -78l-271 -65l-20 70z" />
    <glyph glyph-name="racute" unicode="&#x155;" horiz-adv-x="491" 
d="M310 0h-280v466q0 11 18 17.5t43.5 10t48 5t30.5 1.5h301v-68h-161v-432zM412 721l24 -78l-271 -65l-20 70z" />
    <glyph glyph-name="Rcommaaccent" unicode="&#x156;" horiz-adv-x="778" 
d="M320 0h-290v630q0 11 19 18t45 10.5t49 5t32 1.5h400q9 0 32 -1.5t49 -5t45 -10.5t19 -18v-259q0 -7 -15.5 -15t-36.5 -16.5t-39.5 -14.5t-25.5 -9l145 -311l-288 -10q-4 9 -16 35t-29 62t-35 74.5t-34 73t-26 56.5v-296zM430 381v214h-110v-257q13 8 33 15.5t41.5 14.5
t35.5 13zM319 -83v23h75q6 0 24.5 -1.5t35 -5t15.5 -11.5l-10 -200h-150z" />
    <glyph glyph-name="rcommaaccent" unicode="&#x157;" horiz-adv-x="491" 
d="M310 0h-280v466q0 11 18 17.5t43.5 10t48 5t30.5 1.5h301v-68h-161v-432zM100 -83v23h75q6 0 24.5 -1.5t35 -5t15.5 -11.5l-10 -200h-150z" />
    <glyph glyph-name="Rcaron" unicode="&#x158;" horiz-adv-x="778" 
d="M320 0h-290v630q0 11 19 18t45 10.5t49 5t32 1.5h400q9 0 32 -1.5t49 -5t45 -10.5t19 -18v-259q0 -7 -15.5 -15t-36.5 -16.5t-39.5 -14.5t-25.5 -9l145 -311l-288 -10q-4 9 -16 35t-29 62t-35 74.5t-34 73t-26 56.5v-296zM430 381v214h-110v-257q13 8 33 15.5t41.5 14.5
t35.5 13zM221 861l168 -55l84 28t85 27l29 -72l-124 -40q-17 -6 -36 -13t-38 -7q-18 0 -37.5 7t-36.5 13l-123 40z" />
    <glyph glyph-name="rcaron" unicode="&#x159;" horiz-adv-x="491" 
d="M310 0h-280v466q0 11 18 17.5t43.5 10t48 5t30.5 1.5h301v-68h-161v-432zM83 696l168 -55l84 28t85 27l29 -72l-124 -40q-17 -6 -36 -13t-38 -7q-18 0 -37.5 7t-36.5 13l-123 40z" />
    <glyph glyph-name="Sacute" unicode="&#x15a;" horiz-adv-x="695" 
d="M650 665v-70h-325v-225h195q9 0 32 -1.5t49 -5t45 -10.5t19 -18v-300q0 -11 -19 -18t-45 -10.5t-49 -5t-32 -1.5h-480v70h335v230h-195q-9 0 -32 1.5t-49 5t-45 10.5t-19 18v295q0 11 19 18t45 10.5t49 5t32 1.5h470zM511 886l24 -78l-271 -65l-20 70z" />
    <glyph glyph-name="sacute" unicode="&#x15b;" horiz-adv-x="639" 
d="M594 500v-68h-284v-146h116h28.5t47 -1.5t51 -5t40.5 -10t16 -17.5v-218q0 -10 -18 -17t-43.5 -10.5t-48 -5t-30.5 -1.5h-439v68h299v150h-116h-28.5t-47 1.5t-51 5t-40.5 10.5t-16 17v214q0 11 18 17.5t43.5 10t48 5t30.5 1.5h424zM481 721l24 -78l-271 -65l-20 70z" />
    <glyph glyph-name="Scircumflex" unicode="&#x15c;" horiz-adv-x="695" 
d="M650 665v-70h-325v-225h195q9 0 32 -1.5t49 -5t45 -10.5t19 -18v-300q0 -11 -19 -18t-45 -10.5t-49 -5t-32 -1.5h-480v70h335v230h-195q-9 0 -32 1.5t-49 5t-45 10.5t-19 18v295q0 11 19 18t45 10.5t49 5t32 1.5h470zM182 739l-29 72l123 40q17 6 36.5 13t37.5 7
q19 0 38 -7t36 -13l124 -40l-29 -72q-43 14 -85 28t-84 27z" />
    <glyph glyph-name="scircumflex" unicode="&#x15d;" horiz-adv-x="639" 
d="M594 500v-68h-284v-146h116h28.5t47 -1.5t51 -5t40.5 -10t16 -17.5v-218q0 -10 -18 -17t-43.5 -10.5t-48 -5t-30.5 -1.5h-439v68h299v150h-116h-28.5t-47 1.5t-51 5t-40.5 10.5t-16 17v214q0 11 18 17.5t43.5 10t48 5t30.5 1.5h424zM152 574l-29 72l123 40q17 6 36.5 13
t37.5 7q19 0 38 -7t36 -13l124 -40l-29 -72q-43 14 -85 28t-84 27z" />
    <glyph glyph-name="Scedilla" unicode="&#x15e;" horiz-adv-x="695" 
d="M650 665v-70h-325v-225h195q9 0 32 -1.5t49 -5t45 -10.5t19 -18v-300q0 -11 -19 -18t-45 -10.5t-49 -5t-32 -1.5h-480v70h335v230h-195q-9 0 -32 1.5t-49 5t-45 10.5t-19 18v295q0 11 19 18t45 10.5t49 5t32 1.5h470zM297 33h90l-3 -87h99q7 0 25 -1.5t34 -6t16 -14.5
v-124q0 -9 -16 -14t-34 -7t-25 -2h-210v45h135v79h-70q-6 0 -17 2t-19.5 7.5t-8.5 13.5z" />
    <glyph glyph-name="scedilla" unicode="&#x15f;" horiz-adv-x="639" 
d="M594 500v-68h-284v-146h116h28.5t47 -1.5t51 -5t40.5 -10t16 -17.5v-218q0 -10 -18 -17t-43.5 -10.5t-48 -5t-30.5 -1.5h-439v68h299v150h-116h-28.5t-47 1.5t-51 5t-40.5 10.5t-16 17v214q0 11 18 17.5t43.5 10t48 5t30.5 1.5h424zM267 33h90l-3 -87h99q7 0 25 -1.5
t34 -6t16 -14.5v-124q0 -9 -16 -14t-34 -7t-25 -2h-210v45h135v79h-70q-6 0 -17 2t-19.5 7.5t-8.5 13.5z" />
    <glyph glyph-name="Scaron" unicode="&#x160;" horiz-adv-x="695" 
d="M650 665v-70h-325v-225h195q9 0 32 -1.5t49 -5t45 -10.5t19 -18v-300q0 -11 -19 -18t-45 -10.5t-49 -5t-32 -1.5h-480v70h335v230h-195q-9 0 -32 1.5t-49 5t-45 10.5t-19 18v295q0 11 19 18t45 10.5t49 5t32 1.5h470zM182 861l168 -55l84 28t85 27l29 -72l-124 -40
q-17 -6 -36 -13t-38 -7q-18 0 -37.5 7t-36.5 13l-123 40z" />
    <glyph glyph-name="scaron" unicode="&#x161;" horiz-adv-x="639" 
d="M594 500v-68h-284v-146h116h28.5t47 -1.5t51 -5t40.5 -10t16 -17.5v-218q0 -10 -18 -17t-43.5 -10.5t-48 -5t-30.5 -1.5h-439v68h299v150h-116h-28.5t-47 1.5t-51 5t-40.5 10.5t-16 17v214q0 11 18 17.5t43.5 10t48 5t30.5 1.5h424zM152 696l168 -55l84 28t85 27l29 -72
l-124 -40q-17 -6 -36 -13t-38 -7q-18 0 -37.5 7t-36.5 13l-123 40z" />
    <glyph glyph-name="Tcedilla" unicode="&#x162;" horiz-adv-x="640" 
d="M465 0h-290v595h-155v70h600v-70h-155v-595zM250 -83v23h75q6 0 24.5 -1.5t35 -5t15.5 -11.5l-10 -200h-150z" />
    <glyph glyph-name="tcedilla" unicode="&#x163;" horiz-adv-x="530" 
d="M30 412v68h90v140h260v-140h120v-68h-120v-344h120v-68h-260q-8 0 -30.5 1.5t-48 5t-43.5 10.5t-18 17v335q0 9 13.5 15t33.5 9.5t40.5 5.5t35.5 3v10h-193zM192 33h90l-3 -87h99q7 0 25 -1.5t34 -6t16 -14.5v-124q0 -9 -16 -14t-34 -7t-25 -2h-210v45h135v79h-70
q-6 0 -17 2t-19.5 7.5t-8.5 13.5z" />
    <glyph glyph-name="Tcaron" unicode="&#x164;" horiz-adv-x="640" 
d="M465 0h-290v595h-155v70h600v-70h-155v-595zM152 861l168 -55l84 28t85 27l29 -72l-124 -40q-17 -6 -36 -13t-38 -7q-18 0 -37.5 7t-36.5 13l-123 40z" />
    <glyph glyph-name="tcaron" unicode="&#x165;" horiz-adv-x="740" 
d="M560 452v243h75q6 0 24 -1.5t34.5 -5t16.5 -11.5v-225h-150zM30 412v68h90v140h260v-140h120v-68h-120v-344h120v-68h-260q-8 0 -30.5 1.5t-48 5t-43.5 10.5t-18 17v335q0 9 13.5 15t33.5 9.5t40.5 5.5t35.5 3v10h-193z" />
    <glyph glyph-name="Tbar" unicode="&#x166;" horiz-adv-x="640" 
d="M86 346v48h89v201h-155v70h600v-70h-155v-201h81v-48h-81v-346h-290v346h-89z" />
    <glyph glyph-name="tbar" unicode="&#x167;" horiz-adv-x="530" 
d="M30 246v48h70v75q0 9 13.5 15t33.5 9.5t40.5 5.5t35.5 3v10h-193v68h90v140h260v-140h120v-68h-120v-118h110v-48h-110v-178h120v-68h-260q-8 0 -30.5 1.5t-48 5t-43.5 10.5t-18 17v212h-70z" />
    <glyph glyph-name="Utilde" unicode="&#x168;" horiz-adv-x="772" 
d="M451 665h290v-107l-1 -214v-107q0 -50 1 -101t-1 -101q0 -11 -19 -18t-45.5 -10.5t-49.5 -5t-31 -1.5h-420q-9 0 -32 1.5t-49 5t-45 10.5t-19 18v630h290v-595h130v298t1 297zM292 735h-110v90q0 22 16.5 31.5t38 12.5t36.5 3q35 0 57 -4t39 -13.5t35 -24.5t45 -38
q7 -6 13 -11.5t14 -10.5q2 6 2 23.5v24.5v51h110v-90q0 -23 -18 -33t-41.5 -11.5t-40.5 -1.5q-39 0 -64.5 5.5t-44.5 17t-39 29t-48 40.5v-90z" />
    <glyph glyph-name="utilde" unicode="&#x169;" horiz-adv-x="700" 
d="M30 500h280v-432h80v432h280v-466q0 -10 -18 -17t-43.5 -10.5t-48 -5t-30.5 -1.5h-360q-8 0 -30.5 1.5t-48 5t-43.5 10.5t-18 17v466zM257 570h-110v90q0 22 16.5 31.5t38 12.5t36.5 3q35 0 57 -4t39 -13.5t35 -24.5t45 -38q7 -6 13 -11.5t14 -10.5q2 6 2 23.5v24.5v51
h110v-90q0 -23 -18 -33t-41.5 -11.5t-40.5 -1.5q-39 0 -64.5 5.5t-44.5 17t-39 29t-48 40.5v-90z" />
    <glyph glyph-name="Umacron" unicode="&#x16a;" horiz-adv-x="772" 
d="M451 665h290v-107l-1 -214v-107q0 -50 1 -101t-1 -101q0 -11 -19 -18t-45.5 -10.5t-49.5 -5t-31 -1.5h-420q-9 0 -32 1.5t-49 5t-45 10.5t-19 18v630h290v-595h130v298t1 297zM202 769v68h366v-68h-366z" />
    <glyph glyph-name="umacron" unicode="&#x16b;" horiz-adv-x="700" 
d="M30 500h280v-432h80v432h280v-466q0 -10 -18 -17t-43.5 -10.5t-48 -5t-30.5 -1.5h-360q-8 0 -30.5 1.5t-48 5t-43.5 10.5t-18 17v466zM167 604v68h366v-68h-366z" />
    <glyph glyph-name="Ubreve" unicode="&#x16c;" horiz-adv-x="772" 
d="M451 665h290v-107l-1 -214v-107q0 -50 1 -101t-1 -101q0 -11 -19 -18t-45.5 -10.5t-49.5 -5t-31 -1.5h-420q-9 0 -32 1.5t-49 5t-45 10.5t-19 18v630h290v-595h130v298t1 297zM208 866h94v-62h166v62h94v-80q0 -27 -21 -42.5t-46 -15.5h-220q-25 0 -46 15.5t-21 42.5v80z
" />
    <glyph glyph-name="ubreve" unicode="&#x16d;" horiz-adv-x="700" 
d="M30 500h280v-432h80v432h280v-466q0 -10 -18 -17t-43.5 -10.5t-48 -5t-30.5 -1.5h-360q-8 0 -30.5 1.5t-48 5t-43.5 10.5t-18 17v466zM173 701h94v-62h166v62h94v-80q0 -27 -21 -42.5t-46 -15.5h-220q-25 0 -46 15.5t-21 42.5v80z" />
    <glyph glyph-name="Uring" unicode="&#x16e;" horiz-adv-x="772" 
d="M451 665h290v-107l-1 -214v-107q0 -50 1 -101t-1 -101q0 -11 -19 -18t-45.5 -10.5t-49.5 -5t-31 -1.5h-420q-9 0 -32 1.5t-49 5t-45 10.5t-19 18v630h290v-595h130v298t1 297zM435 732h-100q-11 0 -29 1.5t-32 8.5t-14 23v90q0 16 14 23t32 8.5t29 1.5h100q11 0 29 -1.5
t32 -8.5t14 -23v-90q0 -16 -14 -23t-32 -8.5t-29 -1.5zM399 758q1 2 1 7v90q0 5 -1 7h-28q-1 -2 -1 -7v-90q0 -5 1 -7h28z" />
    <glyph glyph-name="uring" unicode="&#x16f;" horiz-adv-x="700" 
d="M30 500h280v-432h80v432h280v-466q0 -10 -18 -17t-43.5 -10.5t-48 -5t-30.5 -1.5h-360q-8 0 -30.5 1.5t-48 5t-43.5 10.5t-18 17v466zM400 567h-100q-11 0 -29 1.5t-32 8.5t-14 23v90q0 16 14 23t32 8.5t29 1.5h100q11 0 29 -1.5t32 -8.5t14 -23v-90q0 -16 -14 -23
t-32 -8.5t-29 -1.5zM364 593q1 2 1 7v90q0 5 -1 7h-28q-1 -2 -1 -7v-90q0 -5 1 -7h28z" />
    <glyph glyph-name="Uhungarumlaut" unicode="&#x170;" horiz-adv-x="772" 
d="M451 665h290v-107l-1 -214v-107q0 -50 1 -101t-1 -101q0 -11 -19 -18t-45.5 -10.5t-49.5 -5t-31 -1.5h-420q-9 0 -32 1.5t-49 5t-45 10.5t-19 18v630h290v-595h130v298t1 297zM551 881l118 -6l-148 -144l-104 6zM365 881l118 -6l-137 -144l-104 6z" />
    <glyph glyph-name="uhungarumlaut" unicode="&#x171;" horiz-adv-x="700" 
d="M30 500h280v-432h80v432h280v-466q0 -10 -18 -17t-43.5 -10.5t-48 -5t-30.5 -1.5h-360q-8 0 -30.5 1.5t-48 5t-43.5 10.5t-18 17v466zM516 716l118 -6l-148 -144l-104 6zM330 716l118 -6l-137 -144l-104 6z" />
    <glyph glyph-name="Uogonek" unicode="&#x172;" horiz-adv-x="772" 
d="M451 665h290v-107l-1 -214v-107q0 -50 1 -101t-1 -101q0 -11 -19 -18t-45.5 -10.5t-49.5 -5t-31 -1.5h-420q-9 0 -32 1.5t-49 5t-45 10.5t-19 18v630h290v-595h130v298t1 297zM312 17h151q-1 -6 -5.5 -21.5t-9.5 -33.5t-8.5 -32.5t-3.5 -17.5v-90h48v-45h-123q-7 0 -25 2
t-34 7t-16 14v113q0 6 5.5 27.5t12 44.5t8.5 32z" />
    <glyph glyph-name="uogonek" unicode="&#x173;" horiz-adv-x="700" 
d="M30 500h280v-432h80v432h280v-466q0 -10 -18 -17t-43.5 -10.5t-48 -5t-30.5 -1.5h-360q-8 0 -30.5 1.5t-48 5t-43.5 10.5t-18 17v466zM457 17h151q-1 -6 -5.5 -21.5t-9.5 -33.5t-8.5 -32.5t-3.5 -17.5v-90h48v-45h-123q-7 0 -25 2t-34 7t-16 14v113q0 6 5.5 27.5t12 44.5
t8.5 32z" />
    <glyph glyph-name="Wcircumflex" unicode="&#x174;" horiz-adv-x="1130" 
d="M810 665h290v-580q0 -30 -22 -47.5t-54 -25.5t-65 -10t-54 -2h-51q-10 0 -32 1t-46 4.5t-42.5 9.5t-23.5 15q-4 -9 -23.5 -15t-44.5 -9.5t-47 -4.5t-30 -1h-340q-21 0 -54 2t-65 10t-54 25.5t-22 47.5v580h290l2 -595h98v595h290v-595h98zM397 739l-29 72l123 40
q17 6 36.5 13t37.5 7q19 0 38 -7t36 -13l124 -40l-29 -72q-43 14 -85 28t-84 27z" />
    <glyph glyph-name="wcircumflex" unicode="&#x175;" horiz-adv-x="1020" 
d="M370 500h280v-432h60v432h280v-466q0 -10 -18 -17t-43.5 -10.5t-48 -5t-30.5 -1.5h-62q-10 0 -31 1.5t-44 4.5t-41 9t-23 15q-4 -9 -23 -15t-43 -9t-44.5 -4.5t-28.5 -1.5h-340q-8 0 -30.5 1.5t-48 5t-43.5 10.5t-18 17v466h280v-432h60v432zM342 574l-29 72l123 40
q17 6 36.5 13t37.5 7q19 0 38 -7t36 -13l124 -40l-29 -72q-43 14 -85 28t-84 27z" />
    <glyph glyph-name="Ycircumflex" unicode="&#x176;" horiz-adv-x="790" 
d="M547 0h-290v190q0 10 17 17t37 12t27 7l132 38v401h290v-414q0 -9 -17 -16.5t-36.5 -12.5t-27.5 -7l-132 -38v-177zM30 665h290v-410h-145q-9 0 -32 1.5t-49 5t-45 10.5t-19 18v375zM227 739l-29 72l123 40q17 6 36.5 13t37.5 7q19 0 38 -7t36 -13l124 -40l-29 -72
q-43 14 -85 28t-84 27z" />
    <glyph glyph-name="ycircumflex" unicode="&#x177;" horiz-adv-x="700" 
d="M30 500h280v-432h80v432h280v-631q0 -10 -18 -17t-43.5 -10.5t-48 -5t-30.5 -1.5h-498v68h358v125q-6 -9 -24.5 -14.5t-41 -8.5t-43 -4t-29.5 -1h-82q-8 0 -30.5 1.5t-48 5t-43.5 10.5t-18 17v466zM182 574l-29 72l123 40q17 6 36.5 13t37.5 7q19 0 38 -7t36 -13l124 -40
l-29 -72q-43 14 -85 28t-84 27z" />
    <glyph glyph-name="Ydieresis" unicode="&#x178;" horiz-adv-x="790" 
d="M547 0h-290v190q0 10 17 17t37 12t27 7l132 38v401h290v-414q0 -9 -17 -16.5t-36.5 -12.5t-27.5 -7l-132 -38v-177zM30 665h290v-410h-145q-9 0 -32 1.5t-49 5t-45 10.5t-19 18v375zM575 849v-81q0 -6 -13 -9t-27.5 -4.5t-19.5 -1.5h-59v82q0 6 13 9t27.5 4t18.5 1h60z
M335 849v-81q0 -6 -13 -9t-27.5 -4.5t-19.5 -1.5h-59v82q0 6 13 9t27.5 4t18.5 1h60z" />
    <glyph glyph-name="Zacute" unicode="&#x179;" horiz-adv-x="654" 
d="M52 593v72h423q9 0 32.5 -1.5t51 -5t46.5 -10.5t19 -19l-275 -557h270v-72h-440q-9 0 -32.5 1.5t-50.5 5t-46.5 10.5t-18.5 19l274 557h-253zM488 886l24 -78l-271 -65l-20 70z" />
    <glyph glyph-name="zacute" unicode="&#x17a;" horiz-adv-x="620" 
d="M590 68v-68h-420q-8 0 -30.5 1.5t-48 5t-43.5 10.5t-18 17q0 1 17 27.5t43.5 68.5t57.5 89.5t60.5 92.5t50.5 77.5t28 42.5h-247v68h410q8 0 30.5 -1.5t48 -5t43.5 -10t18 -17.5q0 -1 -17 -27.5t-43.5 -68.5t-57.5 -89.5t-60.5 -92.5t-50.5 -77.5t-28 -42.5h257zM471 721
l24 -78l-271 -65l-20 70z" />
    <glyph glyph-name="Zdotaccent" unicode="&#x17b;" horiz-adv-x="654" 
d="M52 593v72h423q9 0 32.5 -1.5t51 -5t46.5 -10.5t19 -19l-275 -557h270v-72h-440q-9 0 -32.5 1.5t-50.5 5t-46.5 10.5t-18.5 19l274 557h-253zM268 753v82q0 6 12.5 9t27 4t19.5 1h60v-81q0 -6 -13 -9t-27.5 -4.5t-19.5 -1.5h-59z" />
    <glyph glyph-name="zdotaccent" unicode="&#x17c;" horiz-adv-x="620" 
d="M590 68v-68h-420q-8 0 -30.5 1.5t-48 5t-43.5 10.5t-18 17q0 1 17 27.5t43.5 68.5t57.5 89.5t60.5 92.5t50.5 77.5t28 42.5h-247v68h410q8 0 30.5 -1.5t48 -5t43.5 -10t18 -17.5q0 -1 -17 -27.5t-43.5 -68.5t-57.5 -89.5t-60.5 -92.5t-50.5 -77.5t-28 -42.5h257zM251 588
v82q0 6 12.5 9t27 4t19.5 1h60v-81q0 -6 -13 -9t-27.5 -4.5t-19.5 -1.5h-59z" />
    <glyph glyph-name="Zcaron" unicode="&#x17d;" horiz-adv-x="654" 
d="M52 593v72h423q9 0 32.5 -1.5t51 -5t46.5 -10.5t19 -19l-275 -557h270v-72h-440q-9 0 -32.5 1.5t-50.5 5t-46.5 10.5t-18.5 19l274 557h-253zM159 861l168 -55l84 28t85 27l29 -72l-124 -40q-17 -6 -36 -13t-38 -7q-18 0 -37.5 7t-36.5 13l-123 40z" />
    <glyph glyph-name="zcaron" unicode="&#x17e;" horiz-adv-x="620" 
d="M590 68v-68h-420q-8 0 -30.5 1.5t-48 5t-43.5 10.5t-18 17q0 1 17 27.5t43.5 68.5t57.5 89.5t60.5 92.5t50.5 77.5t28 42.5h-247v68h410q8 0 30.5 -1.5t48 -5t43.5 -10t18 -17.5q0 -1 -17 -27.5t-43.5 -68.5t-57.5 -89.5t-60.5 -92.5t-50.5 -77.5t-28 -42.5h257zM142 696
l168 -55l84 28t85 27l29 -72l-124 -40q-17 -6 -36 -13t-38 -7q-18 0 -37.5 7t-36.5 13l-123 40z" />
    <glyph glyph-name="longs" unicode="&#x17f;" horiz-adv-x="400" 
d="M310 0h-280v581q0 40 23 63t58 34t72.5 14t66.5 3h150v-67h-75q-10 -16 -12.5 -30.5t-2.5 -33.5v-564z" />
    <glyph glyph-name="florin" unicode="&#x192;" horiz-adv-x="585" 
d="M67 363l5 68h184l1 9q-9 0 -30.5 1.5t-45 5t-40.5 10.5t-16 17l8 107q1 11 19 17.5t42 10t46 5t30 1.5h305l-4 -68h-160l-10 -116h161l-5 -68h-141l-28 -414q-1 -10 -19.5 -17t-44 -10.5t-48 -5t-30.5 -1.5h-226l4 68h86l26 380h-69z" />
    <glyph glyph-name="Acaron" unicode="&#x1cd;" horiz-adv-x="780" 
d="M320 0h-290v630q0 11 19 18t45 10.5t49 5t32 1.5h430q9 0 32 -1.5t49 -5t45 -10.5t19 -18v-630h-290v271h-140v-271zM320 341h140v254h-140v-254zM222 861l168 -55l84 28t85 27l29 -72l-124 -40q-17 -6 -36 -13t-38 -7q-18 0 -37.5 7t-36.5 13l-123 40z" />
    <glyph glyph-name="acaron" unicode="&#x1ce;" horiz-adv-x="706" 
d="M49 432v68h490q8 0 30.5 -1.5t48 -5t43.5 -10t18 -17.5v-432q0 -10 -18 -17t-43.5 -10.5t-48 -5t-30.5 -1.5h-369q-8 0 -30.5 1.5t-48 5t-43.5 10.5t-18 17v275q0 11 18 17.5t43.5 10t48 5t30.5 1.5h89q11 0 31.5 -1t43.5 -4.5t41 -9.5t23 -15q1 -1 1 -4v123h-350z
M399 275h-89v-207h89v207zM187 696l168 -55l84 28t85 27l29 -72l-124 -40q-17 -6 -36 -13t-38 -7q-18 0 -37.5 7t-36.5 13l-123 40z" />
    <glyph glyph-name="Scommaaccent" unicode="&#x218;" horiz-adv-x="695" 
d="M650 665v-70h-325v-225h195q9 0 32 -1.5t49 -5t45 -10.5t19 -18v-300q0 -11 -19 -18t-45 -10.5t-49 -5t-32 -1.5h-480v70h335v230h-195q-9 0 -32 1.5t-49 5t-45 10.5t-19 18v295q0 11 19 18t45 10.5t49 5t32 1.5h470zM280 -83v23h75q6 0 24.5 -1.5t35 -5t15.5 -11.5
l-10 -200h-150z" />
    <glyph glyph-name="scommaaccent" unicode="&#x219;" horiz-adv-x="639" 
d="M594 500v-68h-284v-146h116h28.5t47 -1.5t51 -5t40.5 -10t16 -17.5v-218q0 -10 -18 -17t-43.5 -10.5t-48 -5t-30.5 -1.5h-439v68h299v150h-116h-28.5t-47 1.5t-51 5t-40.5 10.5t-16 17v214q0 11 18 17.5t43.5 10t48 5t30.5 1.5h424zM250 -83v23h75q6 0 24.5 -1.5t35 -5
t15.5 -11.5l-10 -200h-150z" />
    <glyph glyph-name="Tcommaaccent" unicode="&#x21a;" horiz-adv-x="640" 
d="M465 0h-290v595h-155v70h600v-70h-155v-595zM250 -83v23h75q6 0 24.5 -1.5t35 -5t15.5 -11.5l-10 -200h-150z" />
    <glyph glyph-name="tcommaaccent" unicode="&#x21b;" horiz-adv-x="530" 
d="M30 412v68h90v140h260v-140h120v-68h-120v-344h120v-68h-260q-8 0 -30.5 1.5t-48 5t-43.5 10.5t-18 17v335q0 9 13.5 15t33.5 9.5t40.5 5.5t35.5 3v10h-193zM195 -83v23h75q6 0 24.5 -1.5t35 -5t15.5 -11.5l-10 -200h-150z" />
    <glyph glyph-name="dotlessj" unicode="&#x237;" horiz-adv-x="350" 
d="M40 500h280v-631q0 -10 -18 -17t-43.5 -10.5t-48 -5t-30.5 -1.5l-230 1v67h90v597z" />
    <glyph glyph-name="circumflex" unicode="&#x2c6;" horiz-adv-x="456" 
d="M60 739l-29 72l123 40q17 6 36.5 13t37.5 7q19 0 38 -7t36 -13l124 -40l-29 -72q-43 14 -85 28t-84 27z" />
    <glyph glyph-name="caron" unicode="&#x2c7;" horiz-adv-x="456" 
d="M60 861l168 -55l84 28t85 27l29 -72l-124 -40q-17 -6 -36 -13t-38 -7q-18 0 -37.5 7t-36.5 13l-123 40z" />
    <glyph glyph-name="macronmod" unicode="&#x2c9;" horiz-adv-x="377" 
 />
    <glyph glyph-name="breve" unicode="&#x2d8;" horiz-adv-x="410" 
d="M28 866h94v-62h166v62h94v-80q0 -27 -21 -42.5t-46 -15.5h-220q-25 0 -46 15.5t-21 42.5v80z" />
    <glyph glyph-name="dotaccent" unicode="&#x2d9;" horiz-adv-x="180" 
d="M31 753v82q0 6 12.5 9t27 4t19.5 1h60v-81q0 -6 -13 -9t-27.5 -4.5t-19.5 -1.5h-59z" />
    <glyph glyph-name="ring" unicode="&#x2da;" horiz-adv-x="310" 
d="M205 732h-100q-11 0 -29 1.5t-32 8.5t-14 23v90q0 16 14 23t32 8.5t29 1.5h100q11 0 29 -1.5t32 -8.5t14 -23v-90q0 -16 -14 -23t-32 -8.5t-29 -1.5zM169 758q1 2 1 7v90q0 5 -1 7h-28q-1 -2 -1 -7v-90q0 -5 1 -7h28z" />
    <glyph glyph-name="ogonek" unicode="&#x2db;" horiz-adv-x="258" 
d="M56 17h151q-1 -6 -5.5 -21.5t-9.5 -33.5t-8.5 -32.5t-3.5 -17.5v-90h48v-45h-123q-7 0 -25 2t-34 7t-16 14v113q0 6 5.5 27.5t12 44.5t8.5 32z" />
    <glyph glyph-name="tilde" unicode="&#x2dc;" horiz-adv-x="466" 
d="M140 735h-110v90q0 22 16.5 31.5t38 12.5t36.5 3q35 0 57 -4t39 -13.5t35 -24.5t45 -38q7 -6 13 -11.5t14 -10.5q2 6 2 23.5v24.5v51h110v-90q0 -23 -18 -33t-41.5 -11.5t-40.5 -1.5q-39 0 -64.5 5.5t-44.5 17t-39 29t-48 40.5v-90z" />
    <glyph glyph-name="hungarumlaut" unicode="&#x2dd;" horiz-adv-x="487" 
d="M339 881l118 -6l-148 -144l-104 6zM153 881l118 -6l-137 -144l-104 6z" />
    <glyph glyph-name="gravecomb" unicode="&#x300;" horiz-adv-x="352" 
d="M301 747l-271 65l24 78l267 -73z" />
    <glyph glyph-name="acutecomb" unicode="&#x301;" horiz-adv-x="352" 
d="M298 886l24 -78l-271 -65l-20 70z" />
    <glyph glyph-name="circumflexcomb" unicode="&#x302;" horiz-adv-x="456" 
d="M60 739l-29 72l123 40q17 6 36.5 13t37.5 7q19 0 38 -7t36 -13l124 -40l-29 -72q-43 14 -85 28t-84 27z" />
    <glyph glyph-name="tildecomb" unicode="&#x303;" horiz-adv-x="466" 
d="M140 735h-110v90q0 22 16.5 31.5t38 12.5t36.5 3q35 0 57 -4t39 -13.5t35 -24.5t45 -38q7 -6 13 -11.5t14 -10.5q2 6 2 23.5v24.5v51h110v-90q0 -23 -18 -33t-41.5 -11.5t-40.5 -1.5q-39 0 -64.5 5.5t-44.5 17t-39 29t-48 40.5v-90z" />
    <glyph glyph-name="macroncomb" unicode="&#x304;" horiz-adv-x="426" 
d="M30 769v68h366v-68h-366z" />
    <glyph glyph-name="brevecomb" unicode="&#x306;" horiz-adv-x="410" 
d="M28 866h94v-62h166v62h94v-80q0 -27 -21 -42.5t-46 -15.5h-220q-25 0 -46 15.5t-21 42.5v80z" />
    <glyph glyph-name="dotaccentcomb" unicode="&#x307;" horiz-adv-x="180" 
d="M31 753v82q0 6 12.5 9t27 4t19.5 1h60v-81q0 -6 -13 -9t-27.5 -4.5t-19.5 -1.5h-59z" />
    <glyph glyph-name="dieresiscomb" unicode="&#x308;" horiz-adv-x="420" 
d="M390 849v-81q0 -6 -13 -9t-27.5 -4.5t-19.5 -1.5h-59v82q0 6 13 9t27.5 4t18.5 1h60zM150 849v-81q0 -6 -13 -9t-27.5 -4.5t-19.5 -1.5h-59v82q0 6 13 9t27.5 4t18.5 1h60z" />
    <glyph glyph-name="ringcomb" unicode="&#x30a;" horiz-adv-x="310" 
d="M205 732h-100q-11 0 -29 1.5t-32 8.5t-14 23v90q0 16 14 23t32 8.5t29 1.5h100q11 0 29 -1.5t32 -8.5t14 -23v-90q0 -16 -14 -23t-32 -8.5t-29 -1.5zM169 758q1 2 1 7v90q0 5 -1 7h-28q-1 -2 -1 -7v-90q0 -5 1 -7h28z" />
    <glyph glyph-name="hungarumlautcomb" unicode="&#x30b;" horiz-adv-x="487" 
d="M339 881l118 -6l-148 -144l-104 6zM153 881l118 -6l-137 -144l-104 6z" />
    <glyph glyph-name="caroncomb" unicode="&#x30c;" horiz-adv-x="456" 
d="M60 861l168 -55l84 28t85 27l29 -72l-124 -40q-17 -6 -36 -13t-38 -7q-18 0 -37.5 7t-36.5 13l-123 40z" />
    <glyph glyph-name="commaturnedabovecomb" unicode="&#x312;" horiz-adv-x="333" 
 />
    <glyph glyph-name="commaaccentcomb" unicode="&#x326;" horiz-adv-x="221" 
d="M40 -53v23h75q6 0 24.5 -1.5t35 -5t15.5 -11.5l-10 -200h-150z" />
    <glyph glyph-name="cedillacomb" unicode="&#x327;" horiz-adv-x="285" 
d="M24 33h90l-3 -87h99q7 0 25 -1.5t34 -6t16 -14.5v-124q0 -9 -16 -14t-34 -7t-25 -2h-210v45h135v79h-70q-6 0 -17 2t-19.5 7.5t-8.5 13.5z" />
    <glyph glyph-name="ogonekcomb" unicode="&#x328;" horiz-adv-x="258" 
d="M56 17h151q-1 -6 -5.5 -21.5t-9.5 -33.5t-8.5 -32.5t-3.5 -17.5v-90h48v-45h-123q-7 0 -25 2t-34 7t-16 14v113q0 6 5.5 27.5t12 44.5t8.5 32z" />
    <glyph glyph-name="Delta" unicode="&#x394;" horiz-adv-x="871" 
d="M711 0h-551q-8 0 -30.5 1.5t-48 5t-43.5 10.5t-18 17q0 5 4 22t10 38.5t11 40.5t7 27l105 424q1 5 4 16.5t7 22t7 13.5q12 11 38.5 17t54.5 8t44 2h247q16 0 44 -2t55 -8t38 -17q3 -3 7 -13.5t7 -22t4 -16.5l105 -424q2 -8 7 -27t11 -40.5t10 -38.5t4 -22q0 -10 -18 -17
t-43.5 -10.5t-48 -5t-30.5 -1.5zM309 68h253l-107 432l-13 73h-12l-13 -73z" />
    <glyph glyph-name="Omega" unicode="&#x3a9;" horiz-adv-x="791" 
d="M771 68v-68h-300v597h-151v-597h-300v68h220v10q-31 1 -66 5.5t-65.5 16.5t-49.5 34t-19 58v439q0 11 18 17.5t43.5 10t48 5t30.5 1.5h431q8 0 30.5 -1.5t48 -5t43.5 -10t18 -17.5v-439q0 -36 -19 -58t-49.5 -34t-65.5 -16.5t-66 -5.5v-10h220z" />
    <glyph glyph-name="mu" unicode="&#x3bc;" horiz-adv-x="700" 
d="M390 500h280v-466q0 -10 -18 -17t-43.5 -10.5t-48 -5t-30.5 -1.5h-81q-10 0 -31 1.5t-44 4.5t-41 9t-23 15v-195h-280v665h280v-432h80v432z" />
    <glyph glyph-name="pi" unicode="&#x3c0;" horiz-adv-x="659" 
 />
    <glyph glyph-name="uni0900" unicode="&#x900;" horiz-adv-x="0" 
d="M-380 751q2 21 2.5 43.5t4.5 43.5q7 30 28.5 45.5t50 21t54.5 5.5h250q26 0 54.5 -5.5t50.5 -21t28 -45.5q5 -21 5.5 -43.5t1.5 -43.5l-160 -2q-1 13 -2 33t-3 39t-8 29h-184q-5 -10 -7.5 -29t-3.5 -39t-2 -33zM-50 688h-60q-4 0 -18.5 1t-27.5 4t-14 8v85h60q5 0 19 -1
t27.5 -3.5t13.5 -8.5v-85z" />
    <glyph glyph-name="Chandrabindu.dv" unicode="&#x901;" horiz-adv-x="0" 
d="M-50 913v-85q0 -5 -13.5 -8t-27.5 -4t-19 -1h-60v85q1 6 14 8.5t27.5 3.5t18.5 1h60zM-380 850l160 2q1 -12 2 -32.5t3.5 -39.5t7.5 -29h184q6 10 8 29t3 39.5t2 32.5l160 -2q-1 -21 -1.5 -43.5t-5.5 -43.5q-6 -29 -28 -45t-50.5 -21.5t-54.5 -5.5h-250q-26 0 -54.5 5.5
t-50 21.5t-28.5 45q-4 21 -4.5 43.5t-2.5 43.5z" />
    <glyph glyph-name="Bindu.dv" unicode="&#x902;" horiz-adv-x="0" 
d="M-70 717v87q0 7 15 10.5t32.5 5t22.5 1.5h70v-87q0 -7 -15 -10.5t-32 -5t-23 -1.5h-70z" />
    <glyph glyph-name="Visarga.dv" unicode="&#x903;" horiz-adv-x="280" 
d="M230 500v-92q0 -7 -11.5 -11t-28 -6.5t-31 -3.5t-19.5 -1h-90v92q0 7 11.5 11t28 6.5t31 3.5t19.5 1h90zM230 194v-92q0 -7 -11.5 -11t-28 -6.5t-31 -3.5t-19.5 -1h-90v92q0 7 11.5 11t28 6.5t31 3.5t19.5 1h90z" />
    <glyph glyph-name="vowelShortA.dv" unicode="&#x904;" horiz-adv-x="980" 
d="M620 579v62h168l-21 77q-19 8 -51.5 8t-54.5 1l-93 3q-14 1 -28.5 1t-28.5 2q-48 9 -80 41t-54.5 74t-42.5 81l52 26l32 -64q26 -19 48.5 -19.5t52.5 -2.5l130 -7q17 -1 35 -1.5t34 -7.5q40 -16 64 -48.5t38.5 -71.5t24.5 -77l4 -15h131v-62h-50v-579h-260v243
q-16 1 -39.5 3.5t-43.5 7.5t-27 13v-107q0 -39 -21.5 -61t-55 -33t-69 -14t-64.5 -3h-290v62h223q11 11 14 27t3 31v158h-200v62h182q10 10 14 23.5t4 26.5v120q0 12 -4 20h-216v62h295q20 0 49.5 -2t58 -9.5t48 -23.5t19.5 -45v-118q0 -34 -17 -55t-44 -32.5t-58 -16.5v-10
q8 0 26 -1t38.5 -4t38 -7.5t23.5 -11.5h113v274h-50z" />
    <glyph glyph-name="vowelA.dv" unicode="&#x905;" horiz-adv-x="980" 
d="M620 579v62h360v-62h-50v-579h-260v243q-16 1 -39.5 3.5t-43.5 7.5t-27 13v-107q0 -39 -21.5 -61t-55 -33t-69 -14t-64.5 -3h-290v62h223q11 11 14 27t3 31v158h-200v62h182q10 10 14 23.5t4 26.5v120q0 12 -4 20h-216v62h295q20 0 49.5 -2t58 -9.5t48 -23.5t19.5 -45
v-118q0 -34 -17 -55t-44 -32.5t-58 -16.5v-10q8 0 26 -1t38.5 -4t38 -7.5t23.5 -11.5h113v274h-50z" />
    <glyph glyph-name="vowelAa.dv" unicode="&#x906;" horiz-adv-x="1340" 
d="M620 579v62h720v-62h-50v-579h-260v579h-100v-579h-260v243q-16 1 -39.5 3.5t-43.5 7.5t-27 13v-107q0 -39 -21.5 -61t-55 -33t-69 -14t-64.5 -3h-290v62h223q11 11 14 27t3 31v158h-200v62h182q10 10 14 23.5t4 26.5v120q0 12 -4 20h-216v62h295q20 0 49.5 -2t58 -9.5
t48 -23.5t19.5 -45v-118q0 -34 -17 -55t-44 -32.5t-58 -16.5v-10q8 0 26 -1t38.5 -4t38 -7.5t23.5 -11.5h113v274h-50z" />
    <glyph glyph-name="vowelI.dv" unicode="&#x907;" horiz-adv-x="740" 
d="M0 579v62h740v-62h-90v-139q0 -10 -17 -16t-40.5 -9.5t-44 -4.5t-28.5 -1h-210v-98h250q8 0 28.5 -1t44 -4.5t40.5 -9.5t17 -16v-190q0 -10 -17 -16t-40.5 -9.5t-44 -4.5t-28.5 -1h-240v-69h-260v149q0 10 17 16t40.5 9.5t44 4.5t28.5 1h130v-49h110v128h-250
q-8 0 -28.5 1t-44 4.5t-40.5 9.5t-17 16v160q0 10 17 16t40.5 9.5t44 4.5t28.5 1h210v108h-390z" />
    <glyph glyph-name="vowelIi.dv" unicode="&#x908;" horiz-adv-x="740" 
d="M0 579v62h470l-49 85q-11 18 -11 39q0 16 6 39.5t17.5 44.5t27.5 27q5 2 10.5 3t10.5 1h223l-30 -116h-172l72 -123h165v-62h-90v-139q0 -10 -17 -16t-40.5 -9.5t-44 -4.5t-28.5 -1h-210v-98h250q8 0 28.5 -1t44 -4.5t40.5 -9.5t17 -16v-190q0 -10 -17 -16t-40.5 -9.5
t-44 -4.5t-28.5 -1h-240v-69h-260v149q0 10 17 16t40.5 9.5t44 4.5t28.5 1h130v-49h110v128h-250q-8 0 -28.5 1t-44 4.5t-40.5 9.5t-17 16v160q0 10 17 16t40.5 9.5t44 4.5t28.5 1h210v108h-390z" />
    <glyph glyph-name="vowelU.dv" unicode="&#x909;" horiz-adv-x="640" 
d="M0 579v62h640v-62h-63q3 -9 3 -20v-153q0 -35 -18 -56.5t-46.5 -32.5t-60.5 -16v-10q8 0 29.5 -1t46 -4.5t42 -9.5t17.5 -16v-149q0 -39 -21.5 -61t-55 -33t-69 -14t-64.5 -3h-340v62h273q11 11 14 27.5t3 31.5v169h-249v62h231q10 10 14 23.5t4 26.5v157q0 12 -4 20
h-326z" />
    <glyph glyph-name="vowelUu.dv" unicode="&#x90a;" horiz-adv-x="1010" 
d="M0 579v62h1010v-62h-433q3 -9 3 -20v-153q0 -35 -18 -56.5t-46.5 -32.5t-60.5 -16v-10q7 0 24.5 -1t39 -3.5t40 -6.5t26.5 -11v21q0 9 14 14.5t34 8.5t37.5 4t24.5 1h135q7 0 24.5 -1t37.5 -4t34 -8.5t14 -14.5v-259q0 -9 -14 -14t-34 -8t-37.5 -4t-24.5 -1h-83
q-7 0 -24.5 1t-37.5 4t-34 8t-14 14v31h83v197h-130v-148q0 -39 -21.5 -61t-55 -33t-69 -14t-64.5 -3h-340v62h273q11 11 14 27.5t3 31.5v169h-249v62h231q10 10 14 23.5t4 26.5v157q0 12 -4 20h-326z" />
    <glyph glyph-name="vowelRu.dv" unicode="&#x90b;" horiz-adv-x="1170" 
d="M0 579v62h1170v-62h-440v-189h140v108q0 10 15.5 16t38 9t42.5 4t29 1q8 0 27.5 -1t42.5 -4t39 -9t16 -16v-138q0 -11 -22.5 -17.5t-47.5 -9.5v-252q0 -25 -14.5 -40.5t-36.5 -23.5t-46 -10.5t-43 -2.5h-140v54h94q6 11 6.5 24.5t0.5 26.5l-1 221h-23q-7 0 -23.5 1
t-35.5 3.5t-35.5 7t-22.5 11.5v-353h-260v240q-19 -16 -39 -40.5t-30 -35.5l-124 -140l-214 12l148 169q22 26 43.5 43t49.5 29t68 20t100 15v6q-22 11 -46.5 21.5t-42 17.5t-20.5 7l-13 -7t-33 -17.5t-40.5 -21.5t-36.5 -19.5t-20 -10.5l-240 78l113 59q33 17 63 28.5
t75 11.5q59 0 117.5 -19t121.5 -47v180h-470z" />
    <glyph glyph-name="vowelLru.dv" unicode="&#x90c;" horiz-adv-x="980" 
d="M910 -82v-43h-190q-18 0 -42 2t-46.5 8.5t-37 21t-14.5 39.5v114q0 9 17.5 13.5t38.5 6.5t30 2q4 8 4 18v310q0 11 -4 19h-21q-8 -5 -16.5 -20t-15.5 -31t-12 -26l-66 -133l-152 10l63 129q8 18 16.5 36.5t18.5 34.5h-167q-4 -8 -4 -19v-310q0 -11 4 -19h126v-62h-210
q-21 0 -51 2t-59.5 9.5t-49.5 24t-20 45.5v310q0 29 20 45.5t49.5 24t59.5 9.5t51 2h135q9 0 28.5 -1t41 -4t38.5 -8t21 -14q1 -2 1 -5v-5v-8q24 25 60.5 35t69.5 10h115v88h-740v62h980v-62h-140v-85q0 -3 -10 -6v-2q38 -5 69 -22t31 -54v-310q0 -27 -17 -43t-43 -24
t-55.5 -11t-54.5 -3v-52q0 -13 1 -27.5t8 -21.5h141z" />
    <glyph glyph-name="vowelChandraE.dv" unicode="&#x90d;" horiz-adv-x="740" 
d="M130 850h160q1 -12 2 -32t3.5 -38.5t7.5 -28.5h184q6 10 8 28.5t3 38.5t2 32h160q-1 -21 -1.5 -43.5t-5.5 -43.5q-6 -29 -28 -45t-50.5 -21.5t-54.5 -5.5h-250q-26 0 -54.5 5.5t-50 21.5t-28.5 45q-4 21 -4.5 43.5t-2.5 43.5zM0 579v62h740v-62h-50v-327q0 -10 -17 -16
t-40.5 -9.5t-44 -4.5t-28.5 -1h-110q-9 0 -28.5 1t-41.5 4t-38.5 8t-21.5 14v35h110v296h-120v-202v-76t2 -48t6 -35t12 -37l65 -178l-260 -6l-46 127q-15 41 -27 77t-12 81v297h-50z" />
    <glyph glyph-name="vowelShortE.dv" unicode="&#x90e;" horiz-adv-x="740" 
d="M94 929l52 26l32 -64q26 -19 48.5 -19.5t52.5 -2.5l130 -7q66 -3 103.5 -30t57.5 -72t35 -104l4 -15h131v-62h-50v-327q0 -10 -17 -16t-40.5 -9.5t-44 -4.5t-28.5 -1h-110q-9 0 -28.5 1t-41.5 4t-38.5 8t-21.5 14v35h110v296h-120v-202v-76t2 -48t6 -35t12 -37l65 -178
l-260 -6l-46 127q-15 41 -27 77t-12 81v297h-50v62h548l-21 77q-16 7 -49 8.5t-72 1.5t-75.5 0.5t-59.5 4.5q-48 9 -80 41t-54.5 74t-42.5 81z" />
    <glyph glyph-name="vowelE.dv" unicode="&#x90f;" horiz-adv-x="740" 
d="M0 579v62h740v-62h-50v-327q0 -10 -17 -16t-40.5 -9.5t-44 -4.5t-28.5 -1h-110q-9 0 -28.5 1t-41.5 4t-38.5 8t-21.5 14v35h110v296h-120v-202v-76t2 -48t6 -35t12 -37l65 -178l-260 -6l-46 127q-15 41 -27 77t-12 81v297h-50z" />
    <glyph glyph-name="vowelAi.dv" unicode="&#x910;" horiz-adv-x="740" 
d="M259 781l-18 158l145 -38q54 -14 88 -28.5t55 -34.5t34.5 -52t26.5 -82l16 -63h134v-62h-50v-327q0 -10 -17 -16t-40.5 -9.5t-44 -4.5t-28.5 -1h-110q-9 0 -28.5 1t-41.5 4t-38.5 8t-21.5 14v35h110v296h-120v-202v-76t2 -48t6 -35t12 -37l65 -178l-260 -6l-46 127
q-15 41 -27 77t-12 81v297h-50v62h550l-3 13q-2 10 -4.5 21t-6.5 20q-22 28 -56.5 36t-65.5 15z" />
    <glyph glyph-name="vowelChandraO.dv" unicode="&#x911;" horiz-adv-x="1340" 
d="M780 850h160q1 -12 2 -32t3.5 -38.5t7.5 -28.5h184q6 10 8 28.5t3 38.5t2 32h160q-1 -21 -1.5 -43.5t-5.5 -43.5q-6 -29 -28 -45t-50.5 -21.5t-54.5 -5.5h-250q-26 0 -54.5 5.5t-50 21.5t-28.5 45q-4 21 -4.5 43.5t-2.5 43.5zM620 579v62h720v-62h-50v-579h-260v579h-100
v-579h-260v243q-16 1 -39.5 3.5t-43.5 7.5t-27 13v-107q0 -39 -21.5 -61t-55 -33t-69 -14t-64.5 -3h-290v62h223q11 11 14 27t3 31v158h-200v62h182q10 10 14 23.5t4 26.5v120q0 12 -4 20h-216v62h295q20 0 49.5 -2t58 -9.5t48 -23.5t19.5 -45v-118q0 -34 -17 -55t-44 -32.5
t-58 -16.5v-10q8 0 26 -1t38.5 -4t38 -7.5t23.5 -11.5h113v274h-50z" />
    <glyph glyph-name="vowelShortO.dv" unicode="&#x912;" horiz-adv-x="1340" 
d="M620 579v62h528l-21 77q-19 8 -51.5 8t-54.5 1l-93 3q-55 3 -90 17t-58 39t-42.5 61t-43.5 82l52 26l32 -64q26 -19 48.5 -19.5t52.5 -2.5l130 -7q66 -3 103.5 -30t57.5 -72t35 -104l4 -15h131v-62h-50v-579h-260v579h-100v-579h-260v243q-16 1 -39.5 3.5t-43.5 7.5
t-27 13v-107q0 -39 -21.5 -61t-55 -33t-69 -14t-64.5 -3h-290v62h223q11 11 14 27t3 31v158h-200v62h182q10 10 14 23.5t4 26.5v120q0 12 -4 20h-216v62h295q20 0 49.5 -2t58 -9.5t48 -23.5t19.5 -45v-118q0 -34 -17 -55t-44 -32.5t-58 -16.5v-10q8 0 26 -1t38.5 -4t38 -7.5
t23.5 -11.5h113v274h-50z" />
    <glyph glyph-name="vowelO.dv" unicode="&#x913;" horiz-adv-x="1340" 
d="M620 579v62h530l-3 13q-2 10 -4.5 21t-6.5 20q-22 28 -56.5 36t-65.5 15l-155 35l-18 158l145 -38q43 -11 77.5 -21.5t61 -33t44.5 -69.5q7 -18 12 -36.5t9 -36.5l16 -63h134v-62h-50v-579h-260v579h-100v-579h-260v243q-16 1 -39.5 3.5t-43.5 7.5t-27 13v-107
q0 -39 -21.5 -61t-55 -33t-69 -14t-64.5 -3h-290v62h223q11 11 14 27t3 31v158h-200v62h182q10 10 14 23.5t4 26.5v120q0 12 -4 20h-216v62h295q20 0 49.5 -2t58 -9.5t48 -23.5t19.5 -45v-118q0 -34 -17 -55t-44 -32.5t-58 -16.5v-10q8 0 26 -1t38.5 -4t38 -7.5t23.5 -11.5
h113v274h-50z" />
    <glyph glyph-name="vowelAu.dv" unicode="&#x914;" horiz-adv-x="1340" 
d="M620 579v62h518q-13 24 -35.5 32.5t-48.5 9.5t-50 3l-175 15l-18 118l176 -20q28 -3 55.5 -5.5t51.5 -13t39 -38.5q2 -3 8.5 -18.5t14.5 -34.5t14 -34l8 2l-40 119q-4 13 -20 22.5t-36 16t-38.5 10.5t-29.5 6l-156 35l-16 148l222 -57q46 -11 71 -43t38 -73t22 -80
l30 -120h115v-62h-50v-579h-260v579h-100v-579h-260v243q-16 1 -39.5 3.5t-43.5 7.5t-27 13v-107q0 -39 -21.5 -61t-55 -33t-69 -14t-64.5 -3h-290v62h223q11 11 14 27t3 31v158h-200v62h182q10 10 14 23.5t4 26.5v120q0 12 -4 20h-216v62h295q20 0 49.5 -2t58 -9.5
t48 -23.5t19.5 -45v-118q0 -34 -17 -55t-44 -32.5t-58 -16.5v-10q8 0 26 -1t38.5 -4t38 -7.5t23.5 -11.5h113v274h-50z" />
    <glyph glyph-name="Ka.dv" unicode="&#x915;" horiz-adv-x="1100" 
d="M0 579v62h1100v-62h-420v-106q4 9 21 14t38.5 8t41 4t28.5 1h111q8 0 28.5 -1t44 -4.5t40.5 -9.5t17 -16v-379q0 -10 -17 -16t-40.5 -9.5t-44 -4.5t-28.5 -1h-67q-10 0 -31 1t-44 4t-39 9.5t-16 16.5v31h67v317h-110v-438h-260v106q-4 -9 -21 -14t-38.5 -8t-41 -4
t-28.5 -1h-111q-8 0 -28.5 1t-44 4.5t-40.5 9.5t-17 16v359q0 10 17 16t40.5 9.5t44 4.5t28.5 1h69q10 0 31 -1t44 -4.5t39 -9.5t16 -16v-31h-69v-297h110v438h-420z" />
    <glyph glyph-name="Kha.dv" unicode="&#x916;" horiz-adv-x="1130" 
d="M0 579v62h1130v-62h-50v-579h-260v71q-11 -8 -35 -13.5t-51.5 -9t-50 -6t-30.5 -3.5l-176 -19h-113q-16 0 -39.5 1.5t-46 6t-36.5 12.5q-1 1 -16 21.5t-38 53t-48.5 68.5t-48 68t-37 53.5t-14.5 22.5q0 10 17 16t40.5 9.5t44 4.5t28.5 1h40v221h-210zM324 296l150 -214
q86 5 173 11t173 13v37h-190q-7 0 -24.5 1t-37.5 3.5t-34 8t-14 13.5v280q0 8 14 13.5t34 8t37.5 3.5t24.5 1h60q7 0 24.5 -1t37.5 -3.5t34 -8t14 -13.5v-31h-60v-223h80v384h-350v-252q0 -11 -19 -17t-45.5 -9t-50 -4t-31.5 -1z" />
    <glyph glyph-name="Ga.dv" unicode="&#x917;" horiz-adv-x="820" 
d="M0 579v62h820v-62h-50v-579h-260v579h-100v-448q0 -10 -17 -16t-40.5 -9.5t-44 -4.5t-28.5 -1h-100q-8 0 -28.5 1t-44 4.5t-40.5 9.5t-17 16v200q0 11 19.5 17t45.5 9t45 4v218h-160z" />
    <glyph glyph-name="Gha.dv" unicode="&#x918;" horiz-adv-x="820" 
d="M0 579v62h820v-62h-50v-579h-260v107q-4 -8 -21.5 -13.5t-39.5 -8.5t-41 -4t-27 -1h-141q-21 0 -51 2t-59.5 9.5t-49.5 24t-20 45.5v128q0 24 13.5 36t34.5 17t43 6t38 1v11q-17 1 -40.5 2t-46 6.5t-37.5 18.5t-15 38v154h-50zM320 220q0 -22 0.5 -46.5t3.5 -31.5h186
v437h-200v-104q0 -22 -1 -44t14 -40h126v-62h-110q-16 -13 -17.5 -31t-1.5 -38v-40z" />
    <glyph glyph-name="Nga.dv" unicode="&#x919;" horiz-adv-x="900" 
d="M0 579v62h900v-62h-220v-129q0 -10 -17 -16t-40.5 -9.5t-44 -4.5t-28.5 -1h-230v-108h270q8 0 28.5 -1t44 -4.5t40.5 -9.5t17 -16v-232q0 -10 -17 -16t-40.5 -9.5t-44 -4.5t-28.5 -1h-410q-8 0 -28.5 1t-44 4.5t-40.5 9.5t-17 16v130h260v-99h150v170h-270q-8 0 -28.5 1
t-44 4.5t-40.5 9.5t-17 16v170q0 10 17 16t40.5 9.5t44 4.5t28.5 1h230v98h-420zM876 431v-78q0 -7 -16.5 -11t-34.5 -5.5t-24 -1.5h-75v78q0 8 16.5 11.5t34.5 5t24 1.5h75z" />
    <glyph glyph-name="Ca.dv" unicode="&#x91a;" horiz-adv-x="820" 
d="M20 409v62h440v-62h-80v-260h130v430h-510v62h820v-62h-50v-579h-260v114q-4 -9 -21 -14t-38.5 -8t-41 -4t-28.5 -1h-131q-8 0 -28.5 1t-44 4.5t-40.5 9.5t-17 16v250q0 9 13.5 14.5t33.5 9t40 5.5t33 2v10h-220z" />
    <glyph glyph-name="Cha.dv" unicode="&#x91b;" horiz-adv-x="980" 
d="M0 579v62h980v-62h-110v-102q39 -17 49.5 -44.5t10.5 -67.5v-253q0 -39 -21.5 -61.5t-55 -33.5t-69 -14t-64.5 -3h-480q-21 0 -51 2t-59.5 9.5t-49.5 24.5t-20 46v147q0 24 13.5 36t34.5 17t43 6t38 1v11q-17 1 -40.5 2t-46 6.5t-37.5 19t-15 37.5v145q0 10 17 16
t40.5 9.5t44 4.5t28.5 1h130v-135v-39t13 -36h67v-62h-51q-16 -13 -17.5 -31t-1.5 -38v-40v-39t1 -37t3 -21h329q9 9 13 23t4 26v269q0 43 -17 57h-23q-7 -7 -10 -18t-3 -21v-279h-90q-9 0 -31 2.5t-40.5 9.5t-18.5 19v248q0 31 15.5 51t40 31t52.5 15t52 4h110h30t33 -2v81
h-770z" />
    <glyph glyph-name="Ja.dv" unicode="&#x91c;" horiz-adv-x="1020" 
d="M310 451v-330h70v299q0 10 17 16t40.5 9.5t44 4.5t28.5 1h77q11 0 36 -1.5t50 -6t37 -13.5v149h-710v62h1020v-62h-50v-579h-260v389h-70v-299q0 -10 -16 -16t-38.5 -9.5t-43.5 -4.5t-32 -1h-330q-8 0 -28.5 1t-44 4.5t-40.5 9.5t-17 16v330q0 10 17 16t40.5 9.5t44 4.5
t28.5 1h130z" />
    <glyph glyph-name="Jha.dv" unicode="&#x91d;" horiz-adv-x="1020" 
d="M0 579v62h1020v-62h-50v-579h-260v231q-25 2 -50 8t-30 16v-165q0 -10 -17 -16t-40.5 -9.5t-44 -4.5t-28.5 -1h-190v-59h-260v159q0 10 17 16t40.5 9.5t44 4.5t28.5 1h130v-69h60v138h-190q-8 0 -28.5 1t-44 4.5t-40.5 9.5t-17 16v150q0 10 17 16t40.5 9.5t44 4.5t28.5 1
h160v108h-340zM310 321h190q8 0 28.5 -1t44 -4.5t40.5 -9.5t17 -16h80v289h-110v-139q0 -10 -17 -16t-40.5 -9.5t-44 -4.5t-28.5 -1h-160v-88z" />
    <glyph glyph-name="Nya.dv" unicode="&#x91e;" horiz-adv-x="900" 
d="M0 579v62h900v-62h-50v-579h-260v230q-27 2 -56 8t-34 17v-85q0 -39 -21.5 -61t-55 -33t-69 -14t-64.5 -3h-240v62h173q14 14 15.5 34t1.5 37v217h-190v62h320q8 0 28.5 -1t44 -4.5t40.5 -9.5t17 -16v-150h90v289h-590z" />
    <glyph glyph-name="Tta.dv" unicode="&#x91f;" horiz-adv-x="730" 
d="M0 579v62h730v-62h-50v-219q0 -10 -17 -16t-40.5 -9.5t-44 -4.5t-28.5 -1h-240v-187q0 -23 5 -43t23 -37h342v-62h-400q-33 0 -73 4t-75.5 17t-58.5 39t-23 71v229q0 10 17 16t40.5 9.5t44 4.5t28.5 1h240v188h-420z" />
    <glyph glyph-name="Ttha.dv" unicode="&#x920;" horiz-adv-x="900" 
d="M0 579v62h900v-62h-220v-209q0 -10 -17 -16t-40.5 -9.5t-44 -4.5t-28.5 -1h-240v-179q0 -73 28 -98h247q4 7 4.5 19.5t0.5 19.5v218h130q8 0 28.5 -1t44 -4.5t40.5 -9.5t17 -16v-207q0 -29 -20 -45.5t-49.5 -24t-59.5 -9.5t-51 -2h-390q-33 0 -73 4t-75.5 17t-58.5 39
t-23 71v239q0 10 17 16t40.5 9.5t44 4.5t28.5 1h240v178h-420z" />
    <glyph glyph-name="Dda.dv" unicode="&#x921;" horiz-adv-x="770" 
d="M0 579v62h770v-62h-90v-129q0 -10 -17 -16t-40.5 -9.5t-44 -4.5t-28.5 -1h-230v-108h270q8 0 28.5 -1t44 -4.5t40.5 -9.5t17 -16v-232q0 -10 -17 -16t-40.5 -9.5t-44 -4.5t-28.5 -1h-410q-8 0 -28.5 1t-44 4.5t-40.5 9.5t-17 16v130h260v-99h150v170h-270q-8 0 -28.5 1
t-44 4.5t-40.5 9.5t-17 16v170q0 10 17 16t40.5 9.5t44 4.5t28.5 1h230v98h-420z" />
    <glyph glyph-name="Ddha.dv" unicode="&#x922;" horiz-adv-x="770" 
d="M0 579v62h770v-62h-90v-189q0 -10 -17 -16t-40.5 -9.5t-44 -4.5t-28.5 -1h-240v-180q0 -11 -0.5 -36t0 -49t4.5 -32h146v129q0 11 18.5 17.5t48 10t61.5 3.5q33 0 63 -3.5t49.5 -10.5t19.5 -17v-160q0 -10 -17 -16t-40.5 -9.5t-44 -4.5t-28.5 -1h-360q-21 0 -51 2
t-59.5 9.5t-49.5 24t-20 45.5v309q0 10 17 16t40.5 9.5t44 4.5t28.5 1h240v158h-420z" />
    <glyph glyph-name="Nna.dv" unicode="&#x923;" horiz-adv-x="1020" 
d="M0 579v62h1020v-62h-50v-579h-260v579h-70v-440q0 -10 -17 -16t-40.5 -9.5t-44 -4.5t-28.5 -1h-330q-8 0 -28.5 1t-44 4.5t-40.5 9.5t-17 16v440h-50zM310 170h70v409h-70v-409z" />
    <glyph glyph-name="Ta.dv" unicode="&#x924;" horiz-adv-x="730" 
d="M0 579v62h730v-62h-50v-579h-260v419h-110v-348h60v-25v-5t-1 -5q-4 -9 -21 -14t-38.5 -8t-41 -4t-28.5 -1h-60q-8 0 -28.5 1t-44 4.5t-40.5 9.5t-17 16v410q0 10 17 16t40.5 9.5t44 4.5t28.5 1h111q9 0 28.5 -1t41 -4t38.5 -8t21 -14v125h-420z" />
    <glyph glyph-name="Tha.dv" unicode="&#x925;" horiz-adv-x="1020" 
d="M970 0h-260v107q-5 -9 -21.5 -14t-38 -8t-40.5 -4t-29 -1h-401q-8 0 -28.5 1t-44 4.5t-40.5 9.5t-17 16v179q0 10 17 16t40.5 9.5t44 4.5t28.5 1h200v258h-70v-210h-125q-7 0 -27 1t-43 4.5t-39 9.5t-16 16v210q0 10 16 16t39 9.5t43 4.5t27 1h325q8 0 28.5 -1t44 -4.5
t40.5 -9.5t17 -16v-320q0 -10 -17 -16t-40.5 -9.5t-44 -4.5t-28.5 -1h-200v-117h400v468q0 10 17 16t40.5 9.5t44 4.5t28.5 1h180v-62h-50v-579z" />
    <glyph glyph-name="Da.dv" unicode="&#x926;" horiz-adv-x="730" 
d="M0 579v62h730v-62h-50v-168q0 -10 -17 -16t-40.5 -9.5t-44 -4.5t-28.5 -1h-240v-141q0 -9 -0.5 -29.5t0 -40t4.5 -27.5h116v99h130q8 0 28.5 -1t44 -4.5t40.5 -9.5t17 -16v-220h-260v90h-200q-21 0 -51 2t-59.5 9.5t-49.5 24t-20 45.5v250q0 10 17 16t40.5 9.5t44 4.5
t28.5 1h240v137h-420z" />
    <glyph glyph-name="Dha.dv" unicode="&#x927;" horiz-adv-x="820" 
d="M770 0h-260v107q-4 -8 -21.5 -13.5t-39.5 -8.5t-41 -4t-27 -1h-141q-21 0 -51 2t-59.5 9.5t-49.5 24t-20 45.5v128q0 24 13.5 36t34.5 17t43 6t38 1v11q-17 1 -40.5 2t-46 6.5t-37.5 19t-15 37.5v154h-50v62h180q8 0 28.5 -1t44 -4.5t40.5 -9.5t17 -16v-144v-39t13 -36
h126v-62h-110q-16 -13 -17.5 -31t-1.5 -38v-40q0 -22 0.5 -46.5t3.5 -31.5h186v437h-51v62h360v-62h-49v-579z" />
    <glyph glyph-name="Na.dv" unicode="&#x928;" horiz-adv-x="780" 
d="M0 579v62h780v-62h-50v-579h-260v350h-120v-183q0 -9 -19 -14.5t-46 -8t-51 -3.5t-34 -1q-9 0 -32.5 1t-51 4t-47 9t-19.5 17v210q0 10 17 16t40.5 9.5t44 4.5t28.5 1h161q8 0 27 -1t41 -4t39.5 -8.5t21.5 -13.5v194h-470z" />
    <glyph glyph-name="NaNukta.dv" unicode="&#x929;" horiz-adv-x="780" 
d="M0 579v62h780v-62h-50v-579h-260v350h-120v-183q0 -9 -19 -14.5t-46 -8t-51 -3.5t-34 -1q-9 0 -32.5 1t-51 4t-47 9t-19.5 17v210q0 10 17 16t40.5 9.5t44 4.5t28.5 1h161q8 0 27 -1t41 -4t39.5 -8.5t21.5 -13.5v194h-470zM350 40v-78q0 -7 -16 -11t-34.5 -5.5
t-24.5 -1.5h-75v78q0 8 16.5 11.5t34.5 5t24 1.5h75z" />
    <glyph glyph-name="Pa.dv" unicode="&#x92a;" horiz-adv-x="730" 
d="M0 579v62h730v-62h-50v-579h-260v136q-4 -9 -21 -14t-38.5 -8t-41 -4t-28.5 -1h-111q-8 0 -28.5 1t-44 4.5t-40.5 9.5t-17 16v439h-50zM310 171h110v408h-110v-408z" />
    <glyph glyph-name="Pha.dv" unicode="&#x92b;" horiz-adv-x="1100" 
d="M723 131h67v307h-110v-438h-260v146q-4 -9 -21 -14t-38.5 -8t-41 -4t-28.5 -1h-111q-8 0 -28.5 1t-44 4.5t-40.5 9.5t-17 16v429h-50v62h1100v-62h-420v-106q4 9 21 14t38.5 8t41 4t28.5 1h111q8 0 28.5 -1t44 -4.5t40.5 -9.5t17 -16v-369q0 -10 -17 -16t-40.5 -9.5
t-44 -4.5t-28.5 -1h-67q-9 0 -28.5 1t-41 4t-38.5 8t-21 14q-1 2 -1 5v5v25zM310 181h110v398h-110v-398z" />
    <glyph glyph-name="Ba.dv" unicode="&#x92c;" horiz-adv-x="730" 
d="M410 429h-100v-1l74 -130l34 -68h5l-3 94v255h-420v62h730v-62h-50v-579h-260v97q-4 -9 -21 -14t-38.5 -8t-41 -4t-28.5 -1h-111q-8 0 -28.5 1t-44 4.5t-40.5 9.5t-17 16v359q0 10 17 16t40.5 9.5t44 4.5t28.5 1h100q9 0 30 -1t44 -4.5t39.5 -9.5t16.5 -16v-31zM310 132
h110v2l-78 137l-30 60h-5l3 -94v-105z" />
    <glyph glyph-name="Bha.dv" unicode="&#x92d;" horiz-adv-x="1020" 
d="M970 0h-260v279h-80v-169q0 -10 -17 -16t-40.5 -9.5t-44 -4.5t-28.5 -1h-310q-8 0 -28.5 1t-44 4.5t-40.5 9.5t-17 16v200q0 10 17 16t40.5 9.5t44 4.5t28.5 1h180v238h-60v-180h-130q-8 0 -28.5 1t-44 4.5t-40.5 9.5t-17 16v180q0 10 17 16t40.5 9.5t44 4.5t28.5 1h320
q8 0 28.5 -1t44 -4.5t40.5 -9.5t17 -16v-272q26 -2 49.5 -7.5t30.5 -16.5v296q0 10 17 16t40.5 9.5t44 4.5t28.5 1h180v-62h-50v-579zM320 141h50v138h-50v-138z" />
    <glyph glyph-name="Ma.dv" unicode="&#x92e;" horiz-adv-x="820" 
d="M0 579v62h820v-62h-50v-579h-260v290h-100v-169q0 -10 -17 -16t-40.5 -9.5t-44 -4.5t-28.5 -1h-100q-8 0 -28.5 1t-44 4.5t-40.5 9.5t-17 16v200q0 11 19.5 17t45.5 9t45 4v228h-160zM510 325v254h-100v-228q19 -1 40.5 -4t38.5 -8.5t21 -13.5z" />
    <glyph glyph-name="Ya.dv" unicode="&#x92f;" horiz-adv-x="900" 
d="M0 579v62h900v-62h-50v-579h-260v134q-6 -8 -23 -13t-38 -7.5t-39.5 -3.5t-27.5 -1h-282q-8 0 -28.5 1t-44 4.5t-40.5 9.5t-17 16v190q0 12 22 18.5t52.5 9t57 3t35.5 0.5h19q4 7 4 20.5v21.5v176h-240zM310 171h280v408h-90v-199q0 -29 -21.5 -45.5t-53 -24t-63 -9.5
t-52.5 -2v-128z" />
    <glyph glyph-name="Ra.dv" unicode="&#x930;" horiz-adv-x="560" 
d="M0 579v62h560v-62h-90v-252q0 -11 -19.5 -17t-46 -9t-50 -4t-32.5 -1l191 -291l-256 -10l-24 36t-42.5 64t-50.5 77t-49 74.5t-37 57t-14 23.5q0 10 17 16t40.5 9.5t44 4.5t28.5 1h40v221h-210z" />
    <glyph glyph-name="RaNukta.dv" unicode="&#x931;" horiz-adv-x="560" 
d="M0 579v62h560v-62h-90v-252q0 -11 -19.5 -17t-46 -9t-50 -4t-32.5 -1l191 -291l-256 -10l-24 36t-42.5 64t-50.5 77t-49 74.5t-37 57t-14 23.5q0 10 17 16t40.5 9.5t44 4.5t28.5 1h40v221h-210zM170 40v-78q0 -7 -16 -11t-34.5 -5.5t-24.5 -1.5h-75v78q0 8 16 11.5
t34.5 5t24.5 1.5h75z" />
    <glyph glyph-name="La.dv" unicode="&#x932;" horiz-adv-x="980" 
d="M0 579v62h980v-62h-50v-579h-260v429h-15q-8 -5 -16.5 -20t-15.5 -31t-12 -26l-66 -133l-152 10l63 129q8 18 16.5 36.5t18.5 34.5h-177q-4 -8 -4 -19v-310q0 -11 4 -19h126v-62h-210q-21 0 -51 2t-59.5 9.5t-49.5 24t-20 45.5v310q0 29 20 45.5t49.5 24t59.5 9.5t51 2
h135q9 0 30 -0.5t44 -3.5t39.5 -9.5t16.5 -17.5v-26q23 32 63 44.5t77 12.5h35v88h-670z" />
    <glyph glyph-name="Lla.dv" unicode="&#x933;" horiz-adv-x="980" 
d="M0 579v62h980v-62h-140v-94q35 -7 62.5 -24t27.5 -51v-290q0 -29 -20 -45.5t-49.5 -24t-59.5 -9.5t-51 -2h-138q-10 0 -31 1t-44 4t-39 11t-16 21v18q-21 -28 -54 -41t-68 -13h-130q-21 0 -51 2t-59.5 9.5t-49.5 24t-20 45.5v289q0 29 20 45.5t49.5 24t59.5 9.5t51 2h136
q10 0 31 -0.5t44 -3.5t39 -9.5t16 -17.5v-24q23 32 62 43.5t76 11.5h106v88h-740zM666 429h-11q-7 -4 -16 -19.5t-16.5 -32t-11.5 -25.5l-80 -163q-11 -22 -21 -44.5t-24 -43.5h180q4 8 4 19v290q0 11 -4 19zM314 102h10q8 4 16 19t15.5 32t11.5 25l77 156q11 23 22 48
t25 47h-177q-4 -8 -4 -19v-289q0 -11 4 -19z" />
    <glyph glyph-name="LlaNukta.dv" unicode="&#x934;" horiz-adv-x="980" 
d="M0 579v62h980v-62h-140v-94q35 -7 62.5 -24t27.5 -51v-290q0 -29 -20 -45.5t-49.5 -24t-59.5 -9.5t-51 -2h-138q-10 0 -31 1t-44 4t-39 11t-16 21v18q-21 -28 -54 -41t-68 -13h-130q-21 0 -51 2t-59.5 9.5t-49.5 24t-20 45.5v289q0 29 20 45.5t49.5 24t59.5 9.5t51 2h136
q10 0 31 -0.5t44 -3.5t39 -9.5t16 -17.5v-24q23 32 62 43.5t76 11.5h106v88h-740zM666 429h-11q-7 -4 -16 -19.5t-16.5 -32t-11.5 -25.5l-80 -163q-11 -22 -21 -44.5t-24 -43.5h180q4 8 4 19v290q0 11 -4 19zM314 102h10q8 4 16 19t15.5 32t11.5 25l77 156q11 23 22 48
t25 47h-177q-4 -8 -4 -19v-289q0 -11 4 -19zM559 0v-78q0 -7 -16 -11t-34.5 -5.5t-24.5 -1.5h-75v78q0 8 16.5 11.5t34.5 5t24 1.5h75z" />
    <glyph glyph-name="Va.dv" unicode="&#x935;" horiz-adv-x="730" 
d="M400 429h-90v-297h110v447h-420v62h730v-62h-50v-579h-260v97q-4 -9 -21 -14t-38.5 -8t-41 -4t-28.5 -1h-111q-8 0 -28.5 1t-44 4.5t-40.5 9.5t-17 16v359q0 10 17 16t40.5 9.5t44 4.5t28.5 1h90q8 0 28.5 -1t44 -4.5t40.5 -9.5t17 -16v-31z" />
    <glyph glyph-name="Sha.dv" unicode="&#x936;" horiz-adv-x="1020" 
d="M970 0h-260v610q0 10 17 16t40.5 9.5t44 4.5t28.5 1h180v-62h-50v-579zM446 4l-258 -8q-4 8 -17 32t-31 57t-37 68t-35.5 65.5t-27 50.5t-10.5 21q0 10 17 16t40.5 9.5t44 4.5t28.5 1h230v258h-60v-210h-130q-8 0 -28.5 1t-44 4.5t-40.5 9.5t-17 16v210q0 10 17 16
t40.5 9.5t44 4.5t28.5 1h320q8 0 28.5 -1t44 -4.5t40.5 -9.5t17 -16v-320q0 -10 -18.5 -16.5t-44 -9.5t-47.5 -4t-30 -1h-202z" />
    <glyph glyph-name="Ssa.dv" unicode="&#x937;" horiz-adv-x="730" 
d="M0 579v62h730v-62h-50v-579h-260v126q-14 -7 -38 -11t-46.5 -5t-33.5 -1h-122q-8 0 -28.5 1t-44 4.5t-40.5 9.5t-17 16v439h-50zM423 301l-3 114v164h-110v-1l76 -190l32 -87h5zM310 171h110l-79 196l-27 80h-5l1 -86v-190z" />
    <glyph glyph-name="Sa.dv" unicode="&#x938;" horiz-adv-x="900" 
d="M0 579v62h900v-62h-50v-579h-260v251q-13 0 -33 2t-39.5 5.5t-33 9t-13.5 14.5v31h119v266h-120v-252q0 -11 -19.5 -17t-46 -9t-50 -4t-32.5 -1l191 -291l-256 -10l-24 36t-42.5 64t-50.5 77t-49 74.5t-37 57t-14 23.5q0 10 17 16t40.5 9.5t44 4.5t28.5 1h40v221h-210z
" />
    <glyph glyph-name="Ha.dv" unicode="&#x939;" horiz-adv-x="760" 
d="M0 579v62h760v-62h-80v-110q0 -10 -17 -16t-40.5 -9.5t-44 -4.5t-28.5 -1h-240v-48q0 -14 0.5 -36t11.5 -33h258q8 0 28.5 -1t44 -4.5t40.5 -9.5t17 -16v-110q0 -10 -17 -16t-40.5 -9.5t-44 -4.5t-28.5 -1h-130v110h-104q-12 -7 -14 -27t-2 -33v-85q0 -18 1 -32.5
t3 -19.5h356v-62h-440q-21 0 -51 2t-59.5 9.5t-49.5 24t-20 45.5v138q0 25 15 38t37.5 18t45.5 6t40 1v10q-18 0 -44 0.5t-52.5 5.5t-44 18.5t-17.5 40.5v112q0 10 17 16t40.5 9.5t44 4.5t28.5 1h240v79h-420z" />
    <glyph glyph-name="uni093A" unicode="&#x93a;" horiz-adv-x="0" 
d="M-100 880h200v-350h-200v350z" />
    <glyph glyph-name="uni093B" unicode="&#x93b;" 
d="M0 579v62h80v239h200v-239h80v-62h-50v-579h-260v579h-50z" />
    <glyph glyph-name="Nukta.dv" unicode="&#x93c;" horiz-adv-x="0" 
d="M75 0v-78q0 -7 -16 -11t-34.5 -5.5t-24.5 -1.5h-75v78q0 8 16.5 11.5t34.5 5t24 1.5h75z" />
    <glyph glyph-name="Avagraha.dv" unicode="&#x93d;" horiz-adv-x="615" 
d="M540 641v-62h-230v-47q0 -31 1 -60.5t25 -54.5q14 -14 42 -21.5t59 -14t53 -17.5q34 -16 54.5 -43.5t20.5 -65.5v-144q0 -39 -21.5 -61t-55 -33t-69 -14t-64.5 -3h-305v62h238q9 9 13 23t4 26v144q0 14 -5.5 31.5t-16.5 31.5t-26 18l-68 18q-16 5 -32.5 9t-31.5 11
q-34 16 -54.5 43.5t-20.5 65.5v127q0 10 17 16t40.5 9.5t44 4.5t28.5 1h360z" />
    <glyph glyph-name="matraA.dv" unicode="&#x93e;" 
d="M0 579v62h360v-62h-50v-579h-260v579h-50z" />
    <glyph glyph-name="matraI.dv" unicode="&#x93f;" 
d="M0 579v62h50v208q0 10 16 16t39 9.5t43 4.5t27 1h610q38 0 80.5 -5.5t80 -20.5t61 -45t23.5 -80v-64h-250v55.5t-8 54t-33 43.5h-439v-177h60v-62h-50v-579h-260v579h-50z" />
    <glyph glyph-name="matraIi.dv" unicode="&#x940;" 
d="M0 579v62h60v60q0 35 -5 65t-36 52h-69v-153h-250v184q0 10 16 16t39 9.5t43 4.5t27 1h240q38 0 80.5 -5.5t80 -20.5t61 -45t23.5 -80v-88h50v-62h-50v-579h-260v579h-50z" />
    <glyph glyph-name="matraU.dv" unicode="&#x941;" horiz-adv-x="0" 
d="M-438 -139l177 79l69 -65q11 -10 23 -21.5t25 -22.5q25 -19 54.5 -28t60.5 -9h11v60q0 29 -15.5 47t-44.5 22h-52v59h216q33 0 54 -20t21 -53v-46q0 -12 -4.5 -25t-12.5 -23q-12 -14 -42 -31.5t-66.5 -33.5t-69.5 -26.5t-51 -10.5h-125q-25 0 -50.5 8t-47.5 21
q-15 11 -28.5 23t-26.5 25z" />
    <glyph glyph-name="matraUu.dv" unicode="&#x942;" horiz-adv-x="0" 
d="M377 -264l-191 -9l-78 116q-8 13 -21.5 33.5t-29.5 37t-33 16.5h-41q-10 -7 -14.5 -21.5t-4.5 -26.5v-68q0 -16 5.5 -29t15.5 -18h103v-23q0 -9 -17 -14t-41 -7t-45.5 -2h-29.5q-25 0 -56.5 2t-61 10t-48.5 27.5t-19 53.5v68q0 32 17 51t43 28t55 12t53 3h124
q34 0 72.5 -4.5t72.5 -19t53 -44.5z" />
    <glyph glyph-name="matraRu.dv" unicode="&#x943;" horiz-adv-x="0" 
d="M146 -246v-52h-176q-27 0 -59.5 3t-62.5 13.5t-49 32t-19 57.5v66q0 36 19 57.5t49 32t62.5 13.5t59.5 3h160v-52h-109q-11 -9 -16 -24.5t-5 -29.5v-66q0 -13 5 -29t16 -25h125z" />
    <glyph glyph-name="matraRuu.dv" unicode="&#x944;" horiz-adv-x="0" 
d="M0 -117q0 -42 35 -66h115v-52h-95q-22 -14 -28.5 -33.5t-6.5 -43.5q0 -16 4 -31.5t17 -26.5h125v-52h-176q-27 0 -59.5 3t-62.5 13.5t-49 32t-19 57.5v11q0 37 17.5 55.5t45.5 26t57 9.5v9q-31 2 -63.5 7.5t-54.5 24.5t-22 59v10q0 36 19 57.5t49 32t62.5 13.5t59.5 3
h160v-52h-109q-15 -12 -18 -31t-3 -36z" />
    <glyph glyph-name="Chandra.dv" unicode="&#x945;" horiz-adv-x="0" 
d="M-380 850h160q1 -12 2 -32t3.5 -38.5t7.5 -28.5h184q6 10 8 28.5t3 38.5t2 32h160q-1 -21 -1.5 -43.5t-5.5 -43.5q-6 -29 -28 -45t-50.5 -21.5t-54.5 -5.5h-250q-26 0 -54.5 5.5t-50 21.5t-28.5 45q-4 21 -4.5 43.5t-2.5 43.5z" />
    <glyph glyph-name="matraShortE.dv" unicode="&#x946;" horiz-adv-x="0" 
d="M-479 929l52 26l32 -64q26 -19 48.5 -19.5t52.5 -2.5l130 -7q66 -3 103 -30t57.5 -72t35.5 -104l10 -52h-57l-31 114q-16 7 -49 8.5t-72 1.5t-75.5 0.5t-59.5 4.5q-48 9 -80 41t-54.5 74t-42.5 81z" />
    <glyph glyph-name="matraE.dv" unicode="&#x947;" horiz-adv-x="0" 
d="M-319 776l-18 158l145 -38q54 -14 87.5 -26t53.5 -30t33 -49t27 -84l22 -84h-56l-8 31q-9 34 -26.5 49.5t-43.5 22.5t-61 15z" />
    <glyph glyph-name="matraAi.dv" unicode="&#x948;" horiz-adv-x="0" 
d="M-302 866l-16 148l222 -57q46 -12 70.5 -43.5t37.5 -72t23 -80.5l32 -129v-39h-66l-35 65q-10 19 -31.5 24.5t-46 5.5t-44.5 1l-175 12l-18 118l176 -20q28 -3 58 -8.5t55.5 -19t37.5 -40.5l31 -71l6 2l-30 92q-11 34 -38 49.5t-56 21.5z" />
    <glyph glyph-name="matraAChandra.dv" unicode="&#x949;" 
d="M-200 850h160q1 -12 2 -32t3.5 -38.5t7.5 -28.5h184q6 10 8 28.5t3 38.5t2 32h160q-1 -21 -1.5 -43.5t-5.5 -43.5q-6 -29 -28 -45t-50.5 -21.5t-54.5 -5.5h-250q-26 0 -54.5 5.5t-50 21.5t-28.5 45q-4 21 -4.5 43.5t-2.5 43.5zM0 579v62h360v-62h-50v-579h-260v579h-50z
" />
    <glyph glyph-name="matraShortO.dv" unicode="&#x94a;" 
d="M0 579v62h168l-21 77q-19 8 -51.5 8t-54.5 1l-93 3q-51 2 -85 15.5t-58.5 39t-45.5 62t-45 82.5l52 26l32 -64q26 -19 48.5 -19.5t52.5 -2.5l130 -7q66 -3 103 -29t57.5 -71t35.5 -106l4 -15h131v-62h-50v-579h-260v579h-50z" />
    <glyph glyph-name="matraO.dv" unicode="&#x94b;" 
d="M0 579v62h170l-8 35q-5 23 -28 36.5t-51 21.5t-49 12l-155 35l-18 158l145 -38q55 -15 89 -27.5t54.5 -31.5t34 -51.5t26.5 -86.5l16 -63h134v-62h-50v-585h-260v585h-50z" />
    <glyph glyph-name="matraAu.dv" unicode="&#x94c;" 
d="M0 579v62h155l-9 17q-10 19 -31.5 24.5t-46 5.5t-44.5 1l-175 12l-18 118l176 -20q28 -3 58 -8.5t55.5 -19t37.5 -40.5l31 -71l6 2l-30 92q-11 34 -38 49.5t-56 21.5l-193 41l-16 148l222 -57q46 -12 70.5 -43.5t37.5 -72t23 -80.5l30 -120h115v-62h-50v-579h-260v579
h-50z" />
    <glyph glyph-name="Halant.dv" unicode="&#x94d;" horiz-adv-x="0" 
d="M217 -112l-18 -66l-336 39l14 56z" />
    <glyph glyph-name="uni094E" unicode="&#x94e;" 
d="M310 0h-260v610q0 10 17 16t40.5 9.5t44 4.5t28.5 1h180v-62h-50v-579z" />
    <glyph glyph-name="uni094F" unicode="&#x94f;" 
d="M0 579v62h154l-22 32q-16 11 -41 12.5t-44 2.5l-140 12q-35 3 -58.5 23.5t-39 49.5t-27.5 57l48 20l6 -15t8 -14q14 -11 42.5 -13.5t46.5 -4.5l141 -16q35 -4 56 -24.5t34 -48.5t22 -55l7 2l-31 102q-7 24 -22.5 35t-33 14.5l-32.5 6.5l-83 15q-13 2 -26.5 4.5t-27.5 6.5
q-41 13 -64.5 44.5t-36 71t-21.5 75.5l48 8q1 -2 3.5 -12t5 -19.5t2.5 -10.5q14 -17 37 -23t42 -8q72 -11 116 -21.5t69.5 -29.5t41.5 -53.5t32 -93.5l35 -132h113v-62h-50v-579h-260v579h-50z" />
    <glyph glyph-name="Om.dv" unicode="&#x950;" horiz-adv-x="1181" 
d="M721 910v-85q0 -5 -13.5 -8t-27.5 -4t-19 -1h-60v85q1 6 14 8.5t27.5 3.5t18.5 1h60zM391 850h160q1 -12 2 -32t3.5 -38.5t7.5 -28.5h184q6 10 8 28.5t3 38.5t2 32h160q-1 -21 -1.5 -43.5t-5.5 -43.5q-6 -29 -28 -45t-50.5 -21.5t-54.5 -5.5h-250q-26 0 -54.5 5.5
t-50 21.5t-28.5 45q-4 21 -4.5 43.5t-2.5 43.5zM330 121v169h-249v62h231q10 10 14 23.5t4 26.5v157q0 12 -4 20h-261v60h340q20 0 49.5 -2t58 -9.5t48 -23.5t19.5 -45v-153q0 -35 -18 -56.5t-46.5 -32.5t-60.5 -16v-10q7 0 26 -1t42 -3.5t41 -7.5t24 -13h52v196
q0 26 -0.5 51.5t0.5 50.5q2 25 19.5 39.5t43.5 21.5t52 9t45 2h170q20 0 47 -2t52.5 -9t43 -23t17.5 -43v-469q0 -27 -17.5 -43t-43 -23t-52.5 -9t-47 -2h-330v55l265 -1q3 5 4 11t1 12v469q0 13 -5 22h-39q-6 -11 -6 -26.5v-27.5v-289q0 -10 -18 -16t-43 -8t-47.5 -2.5
t-30.5 -0.5q-10 0 -29 0.5t-40.5 2.5t-38.5 6.5t-23 12.5v-122q0 -39 -21.5 -61t-55 -33t-69 -14t-64.5 -3h-340v62h273q11 11 14 27.5t3 31.5z" />
    <glyph glyph-name="uni0953" unicode="&#x953;" horiz-adv-x="0" 
d="M-302 907l71 25l146 -181l-71 -24z" />
    <glyph glyph-name="uni0954" unicode="&#x954;" horiz-adv-x="0" 
d="M-26 932l71 -24l-145 -181l-71 25z" />
    <glyph glyph-name="uni0955" unicode="&#x955;" horiz-adv-x="0" 
d="M-379 990h160q1 -12 2 -32t3.5 -38.5t7.5 -28.5h184q6 10 8 28.5t3 38.5t2 32h160q-1 -21 -1.5 -43.5t-5.5 -43.5q-6 -29 -28 -45t-50.5 -21.5t-54.5 -5.5h-250q-26 0 -54.5 5.5t-50 21.5t-28.5 45q-4 21 -4.5 43.5t-2.5 43.5zM-294 719v62h360v-62h-360z" />
    <glyph glyph-name="uni0956" unicode="&#x956;" horiz-adv-x="0" 
d="M116 -70l14 -60q-178 -41 -357 -41q-85 0 -169 10t-167 31l16 60q78 -20 158.5 -29.5t161.5 -9.5q86 0 172.5 10t170.5 29z" />
    <glyph glyph-name="uni0957" unicode="&#x957;" horiz-adv-x="0" 
d="M116 -70l14 -60q-178 -41 -357 -41q-85 0 -169 10t-167 31l16 60q78 -20 158.5 -29.5t161.5 -9.5q86 0 172.5 10t170.5 29zM116 -211l14 -60q-178 -41 -357 -41q-85 0 -169 10t-167 31l16 60q78 -20 158.5 -29.5t161.5 -9.5q86 0 172.5 10t170.5 29z" />
    <glyph glyph-name="KaNukta.dv" unicode="&#x958;" horiz-adv-x="1100" 
d="M0 579v62h1100v-62h-420v-106q4 9 21 14t38.5 8t41 4t28.5 1h111q8 0 28.5 -1t44 -4.5t40.5 -9.5t17 -16v-379q0 -10 -17 -16t-40.5 -9.5t-44 -4.5t-28.5 -1h-67q-10 0 -31 1t-44 4t-39 9.5t-16 16.5v31h67v317h-110v-438h-260v106q-4 -9 -21 -14t-38.5 -8t-41 -4
t-28.5 -1h-111q-8 0 -28.5 1t-44 4.5t-40.5 9.5t-17 16v359q0 10 17 16t40.5 9.5t44 4.5t28.5 1h69q10 0 31 -1t44 -4.5t39 -9.5t16 -16v-31h-69v-297h110v438h-420zM310 20v-78q0 -7 -16 -11t-34.5 -5.5t-24.5 -1.5h-75v78q0 8 16.5 11.5t34.5 5t24 1.5h75z" />
    <glyph glyph-name="KhaNukta.dv" unicode="&#x959;" horiz-adv-x="1130" 
d="M0 579v62h1130v-62h-50v-579h-260v71q-11 -8 -35 -13.5t-51.5 -9t-50 -6t-30.5 -3.5l-176 -19h-113q-16 0 -39.5 1.5t-46 6t-36.5 12.5q-1 1 -16 21.5t-38 53t-48.5 68.5t-48 68t-37 53.5t-14.5 22.5q0 10 17 16t40.5 9.5t44 4.5t28.5 1h40v221h-210zM324 296l150 -214
q86 5 173 11t173 13v37h-190q-7 0 -24.5 1t-37.5 3.5t-34 8t-14 13.5v280q0 8 14 13.5t34 8t37.5 3.5t24.5 1h60q7 0 24.5 -1t37.5 -3.5t34 -8t14 -13.5v-31h-60v-223h80v384h-350v-252q0 -11 -19 -17t-45.5 -9t-50 -4t-31.5 -1zM388 -20v-78q0 -7 -16 -11t-34.5 -5.5
t-24.5 -1.5h-75v78q0 8 16.5 11.5t34.5 5t24 1.5h75z" />
    <glyph glyph-name="GaNukta.dv" unicode="&#x95a;" horiz-adv-x="820" 
d="M0 579v62h820v-62h-50v-579h-260v579h-100v-448q0 -10 -17 -16t-40.5 -9.5t-44 -4.5t-28.5 -1h-100q-8 0 -28.5 1t-44 4.5t-40.5 9.5t-17 16v200q0 11 19.5 17t45.5 9t45 4v218h-160zM410 10v-78q0 -7 -16 -11t-34.5 -5.5t-24.5 -1.5h-75v78q0 8 16.5 11.5t34.5 5t24 1.5
h75z" />
    <glyph glyph-name="JaNukta.dv" unicode="&#x95b;" horiz-adv-x="1020" 
d="M310 451v-330h70v299q0 10 17 16t40.5 9.5t44 4.5t28.5 1h77q11 0 36 -1.5t50 -6t37 -13.5v149h-710v62h1020v-62h-50v-579h-260v389h-70v-299q0 -10 -16 -16t-38.5 -9.5t-43.5 -4.5t-32 -1h-330q-8 0 -28.5 1t-44 4.5t-40.5 9.5t-17 16v330q0 10 17 16t40.5 9.5t44 4.5
t28.5 1h130zM420 0v-78q0 -7 -16 -11t-34.5 -5.5t-24.5 -1.5h-75v78q0 8 16.5 11.5t34.5 5t24 1.5h75z" />
    <glyph glyph-name="DdaNukta.dv" unicode="&#x95c;" horiz-adv-x="770" 
d="M0 579v62h770v-62h-90v-129q0 -10 -17 -16t-40.5 -9.5t-44 -4.5t-28.5 -1h-230v-108h270q8 0 28.5 -1t44 -4.5t40.5 -9.5t17 -16v-232q0 -10 -17 -16t-40.5 -9.5t-44 -4.5t-28.5 -1h-410q-8 0 -28.5 1t-44 4.5t-40.5 9.5t-17 16v130h260v-99h150v170h-270q-8 0 -28.5 1
t-44 4.5t-40.5 9.5t-17 16v170q0 10 17 16t40.5 9.5t44 4.5t28.5 1h230v98h-420zM460 -40v-78q0 -7 -16 -11t-34.5 -5.5t-24.5 -1.5h-75v78q0 8 16.5 11.5t34.5 5t24 1.5h75z" />
    <glyph glyph-name="DdhaNukta.dv" unicode="&#x95d;" horiz-adv-x="770" 
d="M0 579v62h770v-62h-90v-189q0 -10 -17 -16t-40.5 -9.5t-44 -4.5t-28.5 -1h-240v-180q0 -11 -0.5 -36t0 -49t4.5 -32h146v129q0 11 18.5 17.5t48 10t61.5 3.5q33 0 63 -3.5t49.5 -10.5t19.5 -17v-160q0 -10 -17 -16t-40.5 -9.5t-44 -4.5t-28.5 -1h-360q-21 0 -51 2
t-59.5 9.5t-49.5 24t-20 45.5v309q0 10 17 16t40.5 9.5t44 4.5t28.5 1h240v158h-420zM530 -40v-78q0 -7 -16 -11t-34.5 -5.5t-24.5 -1.5h-75v78q0 8 16.5 11.5t34.5 5t24 1.5h75z" />
    <glyph glyph-name="PhaNukta.dv" unicode="&#x95e;" horiz-adv-x="1100" 
d="M723 131h67v307h-110v-438h-260v146q-4 -9 -21 -14t-38.5 -8t-41 -4t-28.5 -1h-111q-8 0 -28.5 1t-44 4.5t-40.5 9.5t-17 16v429h-50v62h1100v-62h-420v-106q4 9 21 14t38.5 8t41 4t28.5 1h111q8 0 28.5 -1t44 -4.5t40.5 -9.5t17 -16v-369q0 -10 -17 -16t-40.5 -9.5
t-44 -4.5t-28.5 -1h-67q-9 0 -28.5 1t-41 4t-38.5 8t-21 14q-1 2 -1 5v5v25zM310 181h110v398h-110v-398zM310 40v-78q0 -7 -16 -11t-34.5 -5.5t-24.5 -1.5h-75v78q0 8 16.5 11.5t34.5 5t24 1.5h75z" />
    <glyph glyph-name="YaNukta.dv" unicode="&#x95f;" horiz-adv-x="900" 
d="M0 579v62h900v-62h-50v-579h-260v134q-6 -8 -23 -13t-38 -7.5t-39.5 -3.5t-27.5 -1h-282q-8 0 -28.5 1t-44 4.5t-40.5 9.5t-17 16v190q0 12 22 18.5t52.5 9t57 3t35.5 0.5h19q4 7 4 20.5v21.5v176h-240zM310 171h280v408h-90v-199q0 -29 -21.5 -45.5t-53 -24t-63 -9.5
t-52.5 -2v-128zM450 40v-78q0 -7 -16 -11t-34.5 -5.5t-24.5 -1.5h-75v78q0 8 16.5 11.5t34.5 5t24 1.5h75z" />
    <glyph glyph-name="vowelRuu.dv" unicode="&#x960;" horiz-adv-x="1261" 
d="M1140 58v-54h-200q-19 0 -43 2.5t-46 10.5t-36.5 23.5t-14.5 40.5v149q0 8 11.5 13.5t27.5 8.5t30.5 4t20.5 1h70v73h-111q-7 0 -24.5 1t-38 4t-36.5 8t-20 13v-356h-260v240q-19 -16 -39 -40.5t-30 -35.5l-124 -140l-214 12l148 169q22 26 43.5 43t49.5 29t68 20t100 15
v6l-109 46l-13 -7t-33 -17.5t-40.5 -21.5t-36.5 -19.5t-20 -10.5l-240 78l113 59q33 17 63 28.5t75 11.5q59 0 117.5 -19t121.5 -47v180h-470v62h1261v-62h-531v-190h230v109q0 10 18 16.5t46.5 10t59.5 3.5q32 0 60.5 -3.5t47 -10t18.5 -16.5v-138q0 -11 -22.5 -17.5
t-47.5 -9.5v-103q0 -8 -11.5 -13.5t-27.5 -8.5t-30.5 -4t-20.5 -1h-70v-81q0 -15 -0.5 -32.5t6.5 -31.5h154z" />
    <glyph glyph-name="vowelLruu.dv" unicode="&#x961;" horiz-adv-x="980" 
d="M0 579v62h980v-62h-140v-94q35 -7 62.5 -23.5t27.5 -51.5v-310q0 -27 -17 -43t-43 -24t-55.5 -11t-54.5 -3v-52q0 -12 3 -23.5t13 -19.5h134v-52h-103q-13 -10 -15.5 -27t-2.5 -33l1 -15v-8q0 -10 1 -20t8 -16h137v-44h-186q-18 0 -42 2t-46.5 9t-37 21.5t-14.5 39.5v54
q0 29 21 42t47 17v5q-22 1 -44.5 6t-38 18t-15.5 38v99q0 9 17.5 13.5t38.5 6.5t30 2q4 8 4 18v310q0 11 -4 19h-21q-8 -5 -16.5 -20t-15.5 -31t-12 -26l-66 -133l-152 10l63 129q8 18 16.5 36.5t18.5 34.5h-167q-4 -8 -4 -19v-310q0 -11 4 -19h126v-62h-210q-21 0 -51 2
t-59.5 9.5t-49.5 24t-20 45.5v310q0 29 20 45.5t49.5 24t59.5 9.5t51 2h135q9 0 30 -0.5t44 -3.5t39.5 -10t16.5 -19v-12q24 25 60.5 35t69.5 10h115v88h-740z" />
    <glyph glyph-name="matraLru.dv" unicode="&#x962;" horiz-adv-x="0" 
d="M168 -352q0 -8 1 -16.5t5 -12.5h88v-28h-119q-16 0 -36.5 2.5t-36.5 12.5t-16 31v70q0 7 18 10t30 3h7q3 6 3 12v197q0 6 -3 12h-14q-8 -5 -15.5 -22.5t-12.5 -26.5l-42 -84l-96 6l40 82q5 11 10.5 22.5t12.5 21.5h-106q-1 -2 -1.5 -5.5t-0.5 -6.5v-196q0 -3 0.5 -6
t1.5 -6h80v-40h-133q-13 0 -32 1.5t-38 6.5t-31.5 15.5t-12.5 28.5v196q0 18 12.5 28.5t31.5 15.5t38 6.5t32 1.5h85q8 0 28 -1t37.5 -5t17.5 -13v-8q16 15 38.5 21t42.5 6h80q13 0 32 -1t38 -6t31.5 -15.5t12.5 -28.5v-197q0 -22 -18 -33t-43.5 -14t-46.5 -4v-33z" />
    <glyph glyph-name="matraLruu.dv" unicode="&#x963;" horiz-adv-x="0" 
d="M186 -440v-15q0 -15 7 -23h87v-27h-118q-15 0 -36 2.5t-37.5 12t-16.5 30.5v24q0 19 19 27.5t35 9.5v6q-14 1 -31 4t-29 11.5t-12 24.5v60q0 7 18 10t30 3h7q3 6 3 12v197q0 6 -3 12h-14q-8 -5 -15.5 -22.5t-12.5 -26.5l-42 -84l-96 6l40 82q5 11 10.5 22.5t12.5 21.5
h-106q-1 -2 -1.5 -5.5t-0.5 -6.5v-196q0 -3 0.5 -6t1.5 -6h80v-40h-133q-13 0 -32 1.5t-38 6.5t-31.5 15.5t-12.5 28.5v196q0 18 12.5 28.5t31.5 15.5t38 6.5t32 1.5h85q8 0 28 -1t37.5 -5t17.5 -13v-8q16 15 38.5 21t42.5 6h80q13 0 32 -1t38 -6t31.5 -15.5t12.5 -28.5
v-197q0 -22 -18 -33t-43.5 -14t-46.5 -4v-31q0 -8 1 -16.5t5 -12.5h90v-33h-66q-8 -7 -10 -12.5t-2 -15.5z" />
    <glyph glyph-name="Danda.dv" unicode="&#x964;" horiz-adv-x="400" 
d="M100 638l200 6v-641l-200 -6v641z" />
    <glyph glyph-name="Doubledanda.dv" unicode="&#x965;" horiz-adv-x="700" 
d="M100 638l200 6v-641l-200 -6v641zM400 638l200 6v-641l-200 -6v641z" />
    <glyph glyph-name="Shunya.dv" unicode="&#x966;" horiz-adv-x="650" 
d="M600 471v-362q0 -9 -15.5 -14.5t-37.5 -9t-41 -4.5t-26 -1h-310q-7 0 -26 1t-41 4.5t-37.5 9t-15.5 14.5v362q0 9 15.5 14.5t37.5 9t41 4.5t26 1h310q7 0 26 -1t41 -4.5t37.5 -9t15.5 -14.5zM290 138h70v304h-70v-304z" />
    <glyph glyph-name="Ek.dv" unicode="&#x967;" horiz-adv-x="640" 
d="M104 -3l-25 127q-4 24 -11 55t-12.5 57.5t-5.5 37.5q0 9 16.5 15t39.5 9.5t43 5t27 2.5l174 20v257h-60v-212h-120q-7 0 -26 1t-41 4.5t-37.5 9t-15.5 14.5v212q0 9 15.5 14.5t37.5 9t41 4.5t26 1h300q7 0 26 -1t41 -4.5t37.5 -9t15.5 -14.5v-301q0 -9 -16 -15.5
t-38.5 -11t-42.5 -6.5t-27 -3l-172 -19l50 -253z" />
    <glyph glyph-name="Don.dv" unicode="&#x968;" horiz-adv-x="600" 
d="M405 3l-240 -6q-3 9 -12.5 34.5t-23 60.5t-27 73t-25.5 70.5t-19.5 54t-7.5 22.5q0 9 15.5 14.5t37.5 9t41 4.5t26 1h140v242h-240v58h360q7 0 26 -1t41 -4.5t37.5 -9t15.5 -14.5v-300q0 -9 -16 -15t-40 -9t-49 -4.5t-45 -1.5h-27h-18l-36 1h-18z" />
    <glyph glyph-name="Teen.dv" unicode="&#x969;" horiz-adv-x="608" 
d="M180 -14h-60q-5 0 -19.5 1t-27.5 4t-13 9v106q1 6 13.5 8.5t27 3.5t19.5 1h179q12 12 15.5 28t3.5 32v141h-238v58h214q11 10 15 24t4 27v154h-233v58h353q7 0 26 -1t41 -4.5t37.5 -9t15.5 -14.5v-165q0 -34 -17.5 -55.5t-44.5 -32.5t-58 -16v-10q7 0 27 -1t42.5 -4.5
t39 -9t16.5 -14.5v-134q0 -37 -20.5 -59t-52 -33t-65.5 -14t-62 -3h-178v-75z" />
    <glyph glyph-name="Chaar.dv" unicode="&#x96a;" horiz-adv-x="680" 
d="M40 641h240v-270h-120q-7 0 -26 1t-41 4.5t-37.5 9t-15.5 14.5v241zM400 641h240v-266q0 -8 -17.5 -14.5t-37 -10.5t-26.5 -6l-269 -63v-213h100v221h120q7 0 26 -1t41 -4.5t37.5 -9t15.5 -14.5v-221q0 -9 -15.5 -14.5t-37.5 -9t-41 -4.5t-26 -1h-340q-7 0 -26 1t-41 4.5
t-37.5 9t-15.5 14.5v254q0 9 17.5 15t37 10.5t26.5 5.5l269 63v254z" />
    <glyph glyph-name="Paach.dv" unicode="&#x96b;" horiz-adv-x="680" 
d="M630 530v-501q0 -9 -15.5 -14.5t-37.5 -9t-41 -4.5t-26 -1h-130q-9 0 -26.5 1t-37.5 3.5t-35.5 7.5t-19.5 13q-1 2 -1 5v5v23h130v161q-5 -7 -21 -12t-35 -7t-36.5 -3t-25.5 -1h-102q-7 0 -26 1t-41 4.5t-37.5 9t-15.5 14.5v416h240v-387h100v276h240z" />
    <glyph glyph-name="Saha.dv" unicode="&#x96c;" horiz-adv-x="609" 
d="M180 341q-32 4 -62 15t-49 32.5t-19 57.5v116q0 28 18.5 44t46.5 23.5t56.5 9.5t48.5 2h290v-58h-215q-2 0 -3.5 -9t-1.5 -12v-133q0 -13 4.5 -27t14.5 -24h191v-58h-185v-151q0 -16 3.5 -32t15.5 -28h155q5 0 19.5 -1t27.5 -4t13 -9v-96q0 -5 -13 -8t-27.5 -4t-19.5 -1
h-60v65h-154q-28 0 -62 3t-65.5 14t-52 33t-20.5 59v142q0 10 19 16t44 9t42 4v10z" />
    <glyph glyph-name="Saat.dv" unicode="&#x96d;" horiz-adv-x="900" 
d="M250 80h360v391h-60v-273h45v-24v-5t-2 -5q-6 -9 -24 -13.5t-40.5 -7t-42.5 -3t-31 -0.5q-8 0 -31 0.5t-49.5 3.5t-45.5 9t-19 16v331q0 9 15.5 14.5t37.5 9t41 4.5t26 1h300q7 0 26 -1t41 -4.5t37.5 -9t15.5 -14.5v-449q0 -9 -15.5 -14.5t-37.5 -9t-41 -4.5t-26 -1h-580
q-7 0 -23 1t-34 4.5t-30.5 9t-12.5 14.5v590h200v-561z" />
    <glyph glyph-name="Aath.dv" unicode="&#x96e;" horiz-adv-x="652" 
d="M132 643l240 -6l-92 -579h60l38 236l238 -6l-41 -260q-1 -9 -17 -14.5t-37 -8.5t-39.5 -4t-26.5 -1h-300q-7 0 -27 1t-42 4.5t-37 9t-14 14.5z" />
    <glyph glyph-name="Nau.dv" unicode="&#x96f;" horiz-adv-x="640" 
d="M536 0h-240v159l-228 132q-4 2 -11 6.5t-7 9.5v305q0 9 15.5 14.5t37.5 9t41 4.5t26 1h300q7 0 26 -1t41 -4.5t37.5 -9t15.5 -14.5v-270q0 -9 -15.5 -14.5t-37.5 -9t-41 -4.5t-26 -1h-120v270h-60v-270l228 -132q4 -2 11 -6t7 -10v-165z" />
    <glyph glyph-name="uni0970" unicode="&#x970;" horiz-adv-x="415" 
d="M50 414v210q0 7 15 10.5t32.5 5t22.5 1.5h175q6 0 23 -1.5t32 -5t15 -10.5v-210q0 -7 -15 -10.5t-32 -5t-23 -1.5h-175q-5 0 -22.5 1.5t-32.5 5t-15 10.5zM190 431h35v176h-35v-176z" />
    <glyph glyph-name="vowelChandraA.dv" unicode="&#x972;" horiz-adv-x="980" 
d="M420 850h160q1 -12 2 -32t3.5 -38.5t7.5 -28.5h184q6 10 8 28.5t3 38.5t2 32h160q-1 -21 -1.5 -43.5t-5.5 -43.5q-6 -29 -28 -45t-50.5 -21.5t-54.5 -5.5h-250q-26 0 -54.5 5.5t-50 21.5t-28.5 45q-4 21 -4.5 43.5t-2.5 43.5zM620 579v62h360v-62h-50v-579h-260v243
q-16 1 -39.5 3.5t-43.5 7.5t-27 13v-107q0 -39 -21.5 -61t-55 -33t-69 -14t-64.5 -3h-290v62h223q11 11 14 27t3 31v158h-200v62h182q10 10 14 23.5t4 26.5v120q0 12 -4 20h-216v62h295q20 0 49.5 -2t58 -9.5t48 -23.5t19.5 -45v-118q0 -34 -17 -55t-44 -32.5t-58 -16.5v-10
q8 0 26 -1t38.5 -4t38 -7.5t23.5 -11.5h113v274h-50z" />
    <glyph glyph-name="uni0973" unicode="&#x973;" horiz-adv-x="980" 
d="M700 880h200v-239h80v-62h-50v-579h-260v243q-16 1 -39.5 3.5t-43.5 7.5t-27 13v-107q0 -39 -21.5 -61t-55 -33t-69 -14t-64.5 -3h-290v62h223q11 11 14 27t3 31v158h-200v62h182q10 10 14 23.5t4 26.5v120q0 12 -4 20h-216v62h295q20 0 49.5 -2t58 -9.5t48 -23.5
t19.5 -45v-118q0 -34 -17 -55t-44 -32.5t-58 -16.5v-10q8 0 26 -1t38.5 -4t38 -7.5t23.5 -11.5h113v274h-50v62h80v239z" />
    <glyph glyph-name="uni0974" unicode="&#x974;" horiz-adv-x="1340" 
d="M1030 579h-100v-579h-260v243q-16 1 -39.5 3.5t-43.5 7.5t-27 13v-107q0 -39 -21.5 -61t-55 -33t-69 -14t-64.5 -3h-290v62h223q11 11 14 27t3 31v158h-200v62h182q10 10 14 23.5t4 26.5v120q0 12 -4 20h-216v62h295q20 0 49.5 -2t58 -9.5t48 -23.5t19.5 -45v-118
q0 -34 -17 -55t-44 -32.5t-58 -16.5v-10q8 0 26 -1t38.5 -4t38 -7.5t23.5 -11.5h113v274h-50v62h440v239h200v-239h80v-62h-50v-579h-260v579z" />
    <glyph glyph-name="uni0975" unicode="&#x975;" horiz-adv-x="1340" 
d="M620 579v62h514l-22 32q-16 11 -41 12.5t-44 2.5l-140 12q-35 3 -58.5 23.5t-39 49.5t-27.5 57l48 20l6 -15t8 -14q14 -11 42.5 -13.5t46.5 -4.5l141 -16q35 -4 56 -24.5t34 -48.5t22 -55l7 2l-31 102q-7 24 -22.5 35t-33 14.5l-32.5 6.5l-83 15q-13 2 -26.5 4.5
t-27.5 6.5q-41 13 -64.5 44.5t-36 71t-21.5 75.5l48 8q1 -2 3.5 -12t5 -19.5t2.5 -10.5q14 -17 37 -23t42 -8q72 -11 116 -21.5t69.5 -29.5t41.5 -53.5t32 -93.5l35 -132h113v-62h-50v-579h-260v579h-100v-579h-260v243q-16 1 -39.5 3.5t-43.5 7.5t-27 13v-107
q0 -39 -21.5 -61t-55 -33t-69 -14t-64.5 -3h-290v62h223q11 11 14 27t3 31v158h-200v62h182q10 10 14 23.5t4 26.5v120q0 12 -4 20h-216v62h295q20 0 49.5 -2t58 -9.5t48 -23.5t19.5 -45v-118q0 -34 -17 -55t-44 -32.5t-58 -16.5v-10q8 0 26 -1t38.5 -4t38 -7.5t23.5 -11.5
h113v274h-50z" />
    <glyph glyph-name="uni0976" unicode="&#x976;" horiz-adv-x="980" 
d="M620 579v62h360v-62h-50v-579h-260v243q-16 1 -39.5 3.5t-43.5 7.5t-27 13v-107q0 -39 -21.5 -61t-55 -33t-69 -14t-64.5 -3h-290v62h223q11 11 14 27t3 31v158h-200v62h182q10 10 14 23.5t4 26.5v120q0 12 -4 20h-216v62h295q20 0 49.5 -2t58 -9.5t48 -23.5t19.5 -45
v-118q0 -34 -17 -55t-44 -32.5t-58 -16.5v-10q8 0 26 -1t38.5 -4t38 -7.5t23.5 -11.5h113v274h-50zM916 -70l14 -60q-178 -41 -357 -41q-85 0 -169 10t-167 31l16 60q78 -20 158.5 -29.5t161.5 -9.5q86 0 172.5 10t170.5 29z" />
    <glyph glyph-name="uni0977" unicode="&#x977;" horiz-adv-x="980" 
d="M620 579v62h360v-62h-50v-579h-260v243q-16 1 -39.5 3.5t-43.5 7.5t-27 13v-107q0 -39 -21.5 -61t-55 -33t-69 -14t-64.5 -3h-290v62h223q11 11 14 27t3 31v158h-200v62h182q10 10 14 23.5t4 26.5v120q0 12 -4 20h-216v62h295q20 0 49.5 -2t58 -9.5t48 -23.5t19.5 -45
v-118q0 -34 -17 -55t-44 -32.5t-58 -16.5v-10q8 0 26 -1t38.5 -4t38 -7.5t23.5 -11.5h113v274h-50zM916 -70l14 -60q-178 -41 -357 -41q-85 0 -169 10t-167 31l16 60q78 -20 158.5 -29.5t161.5 -9.5q86 0 172.5 10t170.5 29zM916 -211l14 -60q-178 -41 -357 -41
q-85 0 -169 10t-167 31l16 60q78 -20 158.5 -29.5t161.5 -9.5q86 0 172.5 10t170.5 29z" />
    <glyph glyph-name="uni0978" unicode="&#x978;" horiz-adv-x="870" 
d="M0 579v62h870v-62h-433v-207q14 0 45 -1t72.5 -3t85 -5.5t82 -9t65 -12t31.5 -15.5q2 -3 3.5 -18t2 -34t1 -35.5t0.5 -22.5q0 -56 -9 -111t-26 -108l-260 6q17 51 26 104.5t9 108.5q0 22 -0.5 43.5t-2.5 43.5q-31 3 -62 5t-63 2v-199q0 -10 -17 -16t-40.5 -9.5t-44 -4.5
t-28.5 -1h-130q-8 0 -28.5 1t-44 4.5t-40.5 9.5t-17 16v210q0 9 15 15t35 9.5t37.5 5.5t23.5 3l19 2v223h-177z" />
    <glyph glyph-name="uni0979" unicode="&#x979;" horiz-adv-x="1020" 
d="M310 451v-330h70v299q0 10 17 16t40.5 9.5t44 4.5t28.5 1h77q11 0 36 -1.5t50 -6t37 -13.5v149h-710v62h1020v-62h-50v-579h-260v389h-70v-299q0 -10 -16 -16t-38.5 -9.5t-43.5 -4.5t-32 -1h-330q-8 0 -28.5 1t-44 4.5t-40.5 9.5t-17 16v330q0 10 17 16t40.5 9.5t44 4.5
t28.5 1h130zM310 18v-78q0 -7 -16 -11t-34.5 -5.5t-24.5 -1.5h-75v78q0 8 16.5 11.5t34.5 5t24 1.5h75zM533 18v-78q0 -7 -16 -11t-34.5 -5.5t-24.5 -1.5h-75v78q0 8 16.5 11.5t34.5 5t24 1.5h75zM411 -112v-78q0 -7 -16 -11t-34.5 -5.5t-24.5 -1.5h-75v78q0 8 16.5 11.5
t34.5 5t24 1.5h75z" />
    <glyph glyph-name="uni097A" unicode="&#x97a;" horiz-adv-x="900" 
d="M0 579v62h900v-62h-50v-579h-260v134q-6 -8 -23 -13t-38 -7.5t-39.5 -3.5t-27.5 -1h-282q-8 0 -28.5 1t-44 4.5t-40.5 9.5t-17 16v190q0 12 22 18.5t52.5 9t57 3t35.5 0.5h19q4 7 4 20.5v21.5v176h-240zM594 299h4l-8 133v147h-90l67 -191zM310 171h280v3l-68 194l-22 79
h-3l3 -31v-36q0 -29 -21.5 -45.5t-53 -24t-63 -9.5t-52.5 -2v-128z" />
    <glyph glyph-name="uni097B" unicode="&#x97b;" horiz-adv-x="820" 
d="M0 579v62h820v-62h-50v-579q0 -10 -17 -16t-40.5 -9.5t-44 -4.5t-28.5 -1h-580v62h450v548h-100v-448q0 -10 -17 -16t-40.5 -9.5t-44 -4.5t-28.5 -1h-100q-8 0 -28.5 1t-44 4.5t-40.5 9.5t-17 16v200q0 11 19.5 17t45.5 9t45 4v218h-160z" />
    <glyph glyph-name="uni097C" unicode="&#x97c;" horiz-adv-x="1020" 
d="M310 451v-310h70v279q0 10 17 16t40.5 9.5t44 4.5t28.5 1h77q11 0 36 -1.5t50 -6t37 -13.5v149h-710v62h1020v-62h-50v-579q0 -10 -17 -16t-40.5 -9.5t-44 -4.5t-28.5 -1h-780v62h650v358h-70v-279q0 -10 -16 -16t-38.5 -9.5t-43.5 -4.5t-32 -1h-330q-8 0 -28.5 1
t-44 4.5t-40.5 9.5t-17 16v310q0 10 17 16t40.5 9.5t44 4.5t28.5 1h130z" />
    <glyph glyph-name="uni097D" unicode="&#x97d;" horiz-adv-x="550" 
d="M40 579v62h330q7 0 23 -1t34 -4.5t30.5 -9.5t12.5 -16v-364q0 -10 -12.5 -16t-30.5 -9.5t-34 -4.5t-23 -1h-120v-216h-200v247q0 10 12.5 16t30.5 9.5t34 4.5t23 1h120v302h-230z" />
    <glyph glyph-name="uni097E" unicode="&#x97e;" horiz-adv-x="770" 
d="M0 579v62h770v-62h-90v-129q0 -10 -17 -16t-40.5 -9.5t-44 -4.5t-28.5 -1h-230v-108h270q8 0 28.5 -1t44 -4.5t40.5 -9.5t17 -16v-232q0 -10 -17 -16t-40.5 -9.5t-44 -4.5t-28.5 -1h-410q-8 0 -28.5 1t-44 4.5t-40.5 9.5t-17 16v130h260v-99h150v170h-270q-8 0 -28.5 1
t-44 4.5t-40.5 9.5t-17 16v170q0 10 17 16t40.5 9.5t44 4.5t28.5 1h230v98h-420zM70 -115v62h630v-62h-630z" />
    <glyph glyph-name="uni097F" unicode="&#x97f;" horiz-adv-x="730" 
d="M410 439h-100v-1l74 -130l34 -68h5l-3 94v245h-420v62h730v-62h-50v-579q0 -10 -17 -16t-40.5 -9.5t-44 -4.5t-28.5 -1h-490v62h360v76q-4 -9 -21 -14t-38.5 -8t-41 -4t-28.5 -1h-111q-8 0 -28.5 1t-44 4.5t-40.5 9.5t-17 16v359q0 10 17 16t40.5 9.5t44 4.5t28.5 1h100
q9 0 30 -1t44 -4.5t39.5 -9.5t16.5 -16v-31zM310 142h110v2l-78 137l-30 60h-5l3 -94v-105z" />
    <glyph glyph-name="Wgrave" unicode="&#x1e80;" horiz-adv-x="1130" 
d="M810 665h290v-580q0 -30 -22 -47.5t-54 -25.5t-65 -10t-54 -2h-51q-10 0 -32 1t-46 4.5t-42.5 9.5t-23.5 15q-4 -9 -23.5 -15t-44.5 -9.5t-47 -4.5t-30 -1h-340q-21 0 -54 2t-65 10t-54 25.5t-22 47.5v580h290l2 -595h98v595h290v-595h98zM669 747l-271 65l24 78l267 -73
z" />
    <glyph glyph-name="wgrave" unicode="&#x1e81;" horiz-adv-x="1020" 
d="M370 500h280v-432h60v432h280v-466q0 -10 -18 -17t-43.5 -10.5t-48 -5t-30.5 -1.5h-62q-10 0 -31 1.5t-44 4.5t-41 9t-23 15q-4 -9 -23 -15t-43 -9t-44.5 -4.5t-28.5 -1.5h-340q-8 0 -30.5 1.5t-48 5t-43.5 10.5t-18 17v466h280v-432h60v432zM614 582l-271 65l24 78
l267 -73z" />
    <glyph glyph-name="Wacute" unicode="&#x1e82;" horiz-adv-x="1130" 
d="M810 665h290v-580q0 -30 -22 -47.5t-54 -25.5t-65 -10t-54 -2h-51q-10 0 -32 1t-46 4.5t-42.5 9.5t-23.5 15q-4 -9 -23.5 -15t-44.5 -9.5t-47 -4.5t-30 -1h-340q-21 0 -54 2t-65 10t-54 25.5t-22 47.5v580h290l2 -595h98v595h290v-595h98zM726 886l24 -78l-271 -65
l-20 70z" />
    <glyph glyph-name="wacute" unicode="&#x1e83;" horiz-adv-x="1020" 
d="M370 500h280v-432h60v432h280v-466q0 -10 -18 -17t-43.5 -10.5t-48 -5t-30.5 -1.5h-62q-10 0 -31 1.5t-44 4.5t-41 9t-23 15q-4 -9 -23 -15t-43 -9t-44.5 -4.5t-28.5 -1.5h-340q-8 0 -30.5 1.5t-48 5t-43.5 10.5t-18 17v466h280v-432h60v432zM671 721l24 -78l-271 -65
l-20 70z" />
    <glyph glyph-name="Wdieresis" unicode="&#x1e84;" horiz-adv-x="1130" 
d="M810 665h290v-580q0 -30 -22 -47.5t-54 -25.5t-65 -10t-54 -2h-51q-10 0 -32 1t-46 4.5t-42.5 9.5t-23.5 15q-4 -9 -23.5 -15t-44.5 -9.5t-47 -4.5t-30 -1h-340q-21 0 -54 2t-65 10t-54 25.5t-22 47.5v580h290l2 -595h98v595h290v-595h98zM745 849v-81q0 -6 -13 -9
t-27.5 -4.5t-19.5 -1.5h-59v82q0 6 13 9t27.5 4t18.5 1h60zM505 849v-81q0 -6 -13 -9t-27.5 -4.5t-19.5 -1.5h-59v82q0 6 13 9t27.5 4t18.5 1h60z" />
    <glyph glyph-name="wdieresis" unicode="&#x1e85;" horiz-adv-x="1020" 
d="M370 500h280v-432h60v432h280v-466q0 -10 -18 -17t-43.5 -10.5t-48 -5t-30.5 -1.5h-62q-10 0 -31 1.5t-44 4.5t-41 9t-23 15q-4 -9 -23 -15t-43 -9t-44.5 -4.5t-28.5 -1.5h-340q-8 0 -30.5 1.5t-48 5t-43.5 10.5t-18 17v466h280v-432h60v432zM690 684v-81q0 -6 -13 -9
t-27.5 -4.5t-19.5 -1.5h-59v82q0 6 13 9t27.5 4t18.5 1h60zM450 684v-81q0 -6 -13 -9t-27.5 -4.5t-19.5 -1.5h-59v82q0 6 13 9t27.5 4t18.5 1h60z" />
    <glyph glyph-name="Germandbls" unicode="&#x1e9e;" horiz-adv-x="760" 
d="M310 0h-280v620q0 40 23 63t58 34t72.5 14t66.5 3h240q29 0 66.5 -3t72.5 -14t58 -34t23 -63v-121q0 -40 -26 -66t-62 -39t-68 -15l1 -10q25 0 55 -2t57.5 -10.5t45 -27.5t17.5 -54v-171q0 -42 -25 -65.5t-63 -33.5t-77.5 -12.5t-69.5 -2.5q-9 0 -33.5 1t-53 4.5
t-48.5 10t-20 18.5v34h96q10 12 12 26t2 29v140q0 23 -3 44.5t-22 37.5h-85v70h75q15 21 15 66v114v27t-3 31.5t-12 22.5h-90q-11 -9 -13 -30.5t-2 -34.5v-601z" />
    <glyph glyph-name="Ygrave" unicode="&#x1ef2;" horiz-adv-x="790" 
d="M547 0h-290v190q0 10 17 17t37 12t27 7l132 38v401h290v-414q0 -9 -17 -16.5t-36.5 -12.5t-27.5 -7l-132 -38v-177zM30 665h290v-410h-145q-9 0 -32 1.5t-49 5t-45 10.5t-19 18v375zM499 747l-271 65l24 78l267 -73z" />
    <glyph glyph-name="ygrave" unicode="&#x1ef3;" horiz-adv-x="700" 
d="M30 500h280v-432h80v432h280v-631q0 -10 -18 -17t-43.5 -10.5t-48 -5t-30.5 -1.5h-498v68h358v125q-6 -9 -24.5 -14.5t-41 -8.5t-43 -4t-29.5 -1h-82q-8 0 -30.5 1.5t-48 5t-43.5 10.5t-18 17v466zM454 582l-271 65l24 78l267 -73z" />
    <glyph glyph-name="endash" unicode="&#x2013;" horiz-adv-x="560" 
d="M30 209v68h500v-68h-500z" />
    <glyph glyph-name="emdash" unicode="&#x2014;" horiz-adv-x="860" 
d="M30 209v68h800v-68h-800z" />
    <glyph glyph-name="quoteleft" unicode="&#x2018;" horiz-adv-x="221" 
d="M181 508v-36h-47q-5 0 -21.5 0.5t-35 2t-32 5t-13.5 10.5l13 225h142z" />
    <glyph glyph-name="quoteright" unicode="&#x2019;" horiz-adv-x="221" 
d="M40 679v36h47h21.5t35 -1.5t32 -5.5t13.5 -11l-13 -225h-142z" />
    <glyph glyph-name="quotesinglbase" unicode="&#x201a;" horiz-adv-x="221" 
d="M40 74v23h75q6 0 24.5 -1.5t35 -5t15.5 -11.5l-10 -200h-150z" />
    <glyph glyph-name="quotedblleft" unicode="&#x201c;" horiz-adv-x="431" 
d="M181 508v-36h-47q-5 0 -21.5 0.5t-35 2t-32 5t-13.5 10.5l13 225h142zM391 508v-36h-47q-5 0 -21.5 0.5t-35 2t-32 5t-13.5 10.5l13 225h142z" />
    <glyph glyph-name="quotedblright" unicode="&#x201d;" horiz-adv-x="431" 
d="M40 679v36h47h21.5t35 -1.5t32 -5.5t13.5 -11l-13 -225h-142zM250 679v36h47h21.5t35 -1.5t32 -5.5t13.5 -11l-13 -225h-142z" />
    <glyph glyph-name="quotedblbase" unicode="&#x201e;" horiz-adv-x="430" 
d="M40 74v23h75q6 0 24.5 -1.5t35 -5t15.5 -11.5l-10 -200h-150zM249 74v23h75q6 0 24.5 -1.5t35 -5t15.5 -11.5l-10 -200h-150z" />
    <glyph glyph-name="dagger" unicode="&#x2020;" horiz-adv-x="380" 
d="M135 700h110q-3 -85 -3 -171l68 1h40v-60h-40l-67 1l2 -123v-68q0 -70 -0.5 -140t0.5 -140h-110q1 70 0.5 140t-0.5 140v68l2 123l-67 -1h-40v60h40l68 -1q0 86 -3 171z" />
    <glyph glyph-name="daggerdbl" unicode="&#x2021;" horiz-adv-x="380" 
d="M135 700h110q-3 -85 -3 -172h13.5t13.5 1h54q7 1 13.5 1h13.5v-60q-26 1 -53 1t-54 1l2 -69v-105l-2 -70q27 1 54 1t53 1v-60h-13.5t-13.5 1h-54q-7 1 -13.5 1h-13.5q0 -86 3 -172h-110q3 86 3 172h-13.5t-13.5 -1h-54q-7 -1 -13.5 -1h-13.5v60q26 -1 53 -1t54 -1l-2 70
v105l2 69q-27 -1 -54 -1t-53 -1v60h13.5t13.5 -1h54q7 -1 13.5 -1h13.5q0 87 -3 172z" />
    <glyph glyph-name="bullet" unicode="&#x2022;" horiz-adv-x="260" 
d="M230 408v-124q0 -7 -13 -12t-31 -7.5t-34 -3.5t-22 -1h-100v124q0 8 13 12.5t31 7t34 3.5t22 1h100z" />
    <glyph glyph-name="ellipsis" unicode="&#x2026;" horiz-adv-x="660" 
d="M190 128v-109q0 -8 -17.5 -12t-36.5 -5.5t-26 -1.5h-80v109q0 8 17.5 12t37 5.5t25.5 1.5h80zM410 128v-109q0 -8 -17.5 -12t-36.5 -5.5t-26 -1.5h-80v109q0 8 17.5 12t37 5.5t25.5 1.5h80zM630 128v-109q0 -8 -17.5 -12t-36.5 -5.5t-26 -1.5h-80v109q0 8 17.5 12t37 5.5
t25.5 1.5h80z" />
    <glyph glyph-name="perthousand" unicode="&#x2030;" horiz-adv-x="1363" 
d="M651 668l118 -6l-459 -665l-118 6zM30 356v290q0 8 17.5 12t37 5.5t25.5 1.5h192q7 0 26 -1.5t36.5 -5.5t17.5 -12v-290q0 -8 -17.5 -12t-36.5 -5.5t-26 -1.5h-192q-6 0 -25.5 1.5t-37 5.5t-17.5 12zM190 375h32v252h-32v-252zM579 19v290q0 8 17.5 12t37 5.5t25.5 1.5
h192q7 0 26 -1.5t36.5 -5.5t17.5 -12v-290q0 -8 -17.5 -12t-36.5 -5.5t-26 -1.5h-192q-6 0 -25.5 1.5t-37 5.5t-17.5 12zM981 19v290q0 8 17.5 12t37 5.5t25.5 1.5h192q7 0 26 -1.5t36.5 -5.5t17.5 -12v-290q0 -8 -17.5 -12t-36.5 -5.5t-26 -1.5h-192q-6 0 -25.5 1.5
t-37 5.5t-17.5 12zM739 38h32v252h-32v-252zM1141 38h32v252h-32v-252z" />
    <glyph glyph-name="guilsinglleft" unicode="&#x2039;" horiz-adv-x="368" 
d="M180 426l158 -6q-4 -5 -21.5 -26.5t-40.5 -50.5t-45 -56.5t-37 -46l-15 -18.5l15 -18.5t37 -46t45 -56.5t40.5 -50.5t21.5 -26.5l-158 -6l-154 204z" />
    <glyph glyph-name="guilsinglright" unicode="&#x203a;" horiz-adv-x="372" 
d="M188 426l154 -204l-154 -204l-158 6q4 5 21.5 26.5t40.5 50.5t45.5 56.5t37 46l14.5 18.5l-14.5 18.5t-37 46t-45.5 56.5t-40 50.5t-22 26.5z" />
    <glyph glyph-name="fraction" unicode="&#x2044;" horiz-adv-x="484" 
d="M64 -10l-64 20l420 664l64 -20z" />
    <glyph glyph-name="zero.superior" unicode="&#x2070;" horiz-adv-x="370" 
d="M30 384v299q0 7 15 10.5t32.5 5t22.5 1.5h170q6 0 23 -1.5t32 -5t15 -10.5v-299q0 -7 -15 -10.5t-32 -5t-23 -1.5h-170q-5 0 -22.5 1.5t-32.5 5t-15 10.5zM170 401h30v265h-30v-265z" />
    <glyph glyph-name="four.superior" unicode="&#x2074;" horiz-adv-x="375" 
d="M20 700h140v-188h45v188h140v-333h-140v111h-115q-5 0 -22.5 1.5t-32.5 5t-15 10.5v205z" />
    <glyph glyph-name="five.superior" unicode="&#x2075;" horiz-adv-x="325" 
d="M290 700v-34h-116l-7 -107h33q14 0 36.5 -2t40.5 -11t18 -29v-107q0 -20 -18 -29t-40.5 -11t-36.5 -2h-180v34h133q2 4 2 8v107q0 4 -2 8h-128l12 175h253z" />
    <glyph glyph-name="six.superior" unicode="&#x2076;" horiz-adv-x="370" 
d="M335 700v-34h-165v-102q0 6 11 9.5t26.5 5t29 2t18.5 0.5t18.5 -0.5t29 -2t26.5 -5t11 -9.5v-180q0 -7 -15 -10.5t-32 -5t-23 -1.5h-170q-5 0 -22.5 1.5t-32.5 5t-15 10.5v299q0 7 15 10.5t32.5 5t22.5 1.5h235zM170 401h30v146h-30v-146z" />
    <glyph glyph-name="seven.superior" unicode="&#x2077;" horiz-adv-x="315" 
d="M30 666v34h195q6 0 23 -1.5t32 -5t15 -10.5q0 -2 -4.5 -17.5t-9.5 -31.5t-6 -19l-75 -246h-140l91 297h-121z" />
    <glyph glyph-name="eight.superior" unicode="&#x2078;" horiz-adv-x="380" 
d="M138 541h-33q-5 0 -22.5 1.5t-32.5 5t-15 10.5v125q0 7 15 10.5t32.5 5t22.5 1.5h170q6 0 23 -1.5t32 -5t15 -10.5v-125q0 -4 -14 -10t-29 -11t-20 -6l-51 -13v-4h49q6 0 23 -1.5t32 -5t15 -10.5v-113q0 -7 -15 -10.5t-32 -5t-23 -1.5h-180q-5 0 -22.5 1.5t-32.5 5
t-15 10.5v115q0 5 14 10.5t29.5 10.5t19.5 6l45 11v4zM175 553l30 10v103h-30v-113zM170 401h40v106l-40 -13v-93z" />
    <glyph glyph-name="nine.superior" unicode="&#x2079;" horiz-adv-x="370" 
d="M35 367v34h165v81q-4 -5 -19 -8.5t-30 -4.5t-20 -1h-31q-5 0 -22.5 1.5t-32.5 5t-15 10.5v198q0 7 15 10.5t32.5 5t22.5 1.5h170q6 0 23 -1.5t32 -5t15 -10.5v-299q0 -7 -15 -10.5t-32 -5t-23 -1.5h-235zM170 502h30v164h-30v-164z" />
    <glyph glyph-name="franc" unicode="&#x20a3;" horiz-adv-x="675" 
d="M10 113v60h90l10 -1v458q0 11 19 18t45 10.5t49 5t32 1.5h400v-70h-255v-234h244v-70h-244v-119l10 1h90v-60h-90l-10 1v-114h-290v114l-10 -1h-90z" />
    <glyph glyph-name="Euro" unicode="&#x20ac;" horiz-adv-x="586" 
d="M555 665l-2 -62h-126q-9 -4 -19 -18t-14 -23q-8 -17 -14.5 -58t-10.5 -83h149l-3 -62h-151q-1 -7 -1 -13.5v-11.5q-1 -9 -1 -22.5v-30.5h150l-2 -62h-146q2 -36 5 -68.5t9 -47.5q3 -9 12 -23t18 -18h126l-2 -62h-178q-30 0 -65.5 3t-70.5 13t-61.5 29.5t-38.5 51.5
q-7 19 -8.5 39.5t-3.5 40.5q-1 11 -1.5 21.5t-1.5 20.5h-93l2 62h90v27t1 26v6l1 13v6h-89l3 62h90q2 20 5.5 48t9 55t12.5 44q14 32 42 51.5t63 29.5t71 13t66 3h178z" />
    <glyph glyph-name="uni20B9" unicode="&#x20b9;" horiz-adv-x="620" 
d="M50 579v62h520v-62h-100v-26l-2 -55l71 2h31v-62h-31l-71 2l2 -59v-54q0 -10 -16.5 -16t-40 -9.5t-43.5 -4.5t-28 -1l191 -291l-256 -10l-24 36t-42.5 64t-50.5 77t-49 74.5t-37 57t-14 23.5q0 10 17 16t40.5 9.5t44 4.5t28.5 1h20v23l2 59l-119 -2h-43v62h43l119 -2
l-2 55v26h-160z" />
    <glyph glyph-name="trademark" unicode="&#x2122;" horiz-adv-x="906" 
d="M243 332h-145v297h-78v36h300v-36h-77v-297zM876 332h-146v298h-44v-298h-145v297h-50v-297h-145v315q0 8 15.5 11.5t33 5t23.5 1.5h195q6 0 20.5 -1t29 -3.5t20.5 -8.5q6 6 20.5 8.5t29.5 3.5t20 1h50q6 0 23.5 -1.5t33.5 -5t16 -11.5v-315z" />
    <glyph glyph-name="minus" unicode="&#x2212;" horiz-adv-x="460" 
d="M30 209v68h400v-68h-400z" />
    <glyph glyph-name="circledotted" unicode="&#x25cc;" horiz-adv-x="501" 
d="M211 492q0 18 11 29t29 11t29 -11t11 -29t-11 -29t-29 -11t-29 11t-11 29zM74 403q-13 13 -13 28t13 28t28.5 13t28.5 -13t13 -28t-13 -28t-28.5 -13t-28.5 13zM372 459q13 13 28 13t28 -13t13 -28.5t-13 -28.5t-28 -13t-28 13t-13 28.5t13 28.5zM0 281q0 18 11 29t29 11
t29 -11t11 -29t-11 -29t-29 -11t-29 11t-11 29zM421 281q0 18 11 29t29 11t29 -11t11 -29t-11 -29t-29 -11t-29 11t-11 29zM372 105q-13 13 -13 28t13 28t28.5 13t28.5 -13t13 -28t-13 -28t-28.5 -13t-28.5 13zM74 161q13 13 28 13t28 -13t13 -28.5t-13 -28.5t-28 -13
t-28 13t-13 28.5t13 28.5zM211 71q0 18 11 29t29 11t29 -11t11 -29t-11 -29t-29 -11t-29 11t-11 29z" />
    <glyph glyph-name="uniA8FB" unicode="&#xa8fb;" horiz-adv-x="460" 
d="M50 579v62h360v-62h-360z" />
    <glyph glyph-name="KaSsa.dv" horiz-adv-x="1020" 
d="M630 0h-260v91h-190q-8 0 -28.5 1t-44 4.5t-40.5 9.5t-17 16v208q0 10 17 16t40.5 9.5t44 4.5t28.5 1h190v218h-50v-180h-130q-8 0 -28.5 1t-44 4.5t-40.5 9.5t-17 16v180q0 10 17 16t40.5 9.5t44 4.5t28.5 1h310q8 0 28.5 -1t44 -4.5t40.5 -9.5t17 -16v-249h80v249
q0 10 17 16t40.5 9.5t44 4.5t28.5 1h180v-62h-50v-579h-260v302q-26 2 -51.5 8.5t-29.5 16.5q-3 -9 -20.5 -14.5t-39.5 -8.5t-41.5 -4t-27.5 -1h-190v-146h60v78h130q8 0 28.5 -1t44 -4.5t40.5 -9.5t17 -16v-200z" />
    <glyph glyph-name="ShaRa.dv" horiz-adv-x="1020" 
d="M69 137l-56 43v18l357 22v359h-50v-290h-130q-8 0 -28.5 1t-44 4.5t-40.5 9.5t-17 16v290q0 10 17 16t40.5 9.5t44 4.5t28.5 1h310q8 0 28.5 -1t44 -4.5t40.5 -9.5t17 -16v-377h80v377q0 10 17 16t40.5 9.5t44 4.5t28.5 1h180v-62h-50v-579h-260v83q-12 -8 -36.5 -13.5
t-47.5 -8t-32 -3.5l-449 -51l-50 47l1 10q90 9 164.5 16t143.5 14t143 14.5t163 16.5v49q-25 2 -49.5 7t-31.5 15q-4 -9 -21 -14t-39.5 -8t-41.5 -4.5t-26 -1.5z" />
    <glyph glyph-name="zero.subs" horiz-adv-x="370" 
d="M30 -16v299q0 7 15 10.5t32.5 5t22.5 1.5h170q6 0 23 -1.5t32 -5t15 -10.5v-299q0 -7 -15 -10.5t-32 -5t-23 -1.5h-170q-5 0 -22.5 1.5t-32.5 5t-15 10.5zM170 1h30v265h-30v-265z" />
    <glyph glyph-name="one.subs" horiz-adv-x="230" 
d="M200 -33h-140v299h-40v34h110q6 0 23 -1.5t32 -5t15 -10.5v-316z" />
    <glyph glyph-name="two.subs" horiz-adv-x="335" 
d="M170 1h135v-34h-205q-5 0 -22.5 1.5t-32.5 5t-15 10.5v82q0 5 10 10.5t21.5 10.5t15.5 6l84 35v138h-125v34h195q6 0 23 -1.5t32 -5t15 -10.5v-158q0 -4 -10 -9.5t-21.5 -10t-15.5 -6.5l-84 -35v-63z" />
    <glyph glyph-name="three.subs" horiz-adv-x="325" 
d="M45 116v34h92q15 10 15.5 29t0.5 35v52h-117v34h187q6 0 23 -1.5t32 -5t15 -10.5v-101q0 -28 -22.5 -36.5t-45.5 -9.5v-6q16 -1 32 -4.5t27 -12.5t11 -30v-59q0 -26 -19.5 -38.5t-45.5 -15.5t-45 -3h-155v34h118q5 8 6 15.5t1 15.5v39q0 13 -1.5 25t-13.5 20h-95z" />
    <glyph glyph-name="four.subs" horiz-adv-x="375" 
d="M20 300h140v-188h45v188h140v-333h-140v111h-115q-5 0 -22.5 1.5t-32.5 5t-15 10.5v205z" />
    <glyph glyph-name="five.subs" horiz-adv-x="325" 
d="M290 300v-34h-116l-7 -107h33q14 0 36.5 -2t40.5 -11t18 -29v-107q0 -20 -18 -29t-40.5 -11t-36.5 -2h-180v34h133q2 4 2 8v107q0 4 -2 8h-128l12 175h253z" />
    <glyph glyph-name="six.subs" horiz-adv-x="370" 
d="M335 300v-34h-165v-102q0 6 11 9.5t26.5 5t29 2t18.5 0.5t18.5 -0.5t29 -2t26.5 -5t11 -9.5v-180q0 -7 -15 -10.5t-32 -5t-23 -1.5h-170q-5 0 -22.5 1.5t-32.5 5t-15 10.5v299q0 7 15 10.5t32.5 5t22.5 1.5h235zM170 1h30v146h-30v-146z" />
    <glyph glyph-name="seven.subs" horiz-adv-x="325" 
d="M30 266v34h195q6 0 23 -1.5t32 -5t15 -10.5q0 -2 -4.5 -17.5t-9.5 -31.5t-6 -19l-75 -246h-140l91 297h-121z" />
    <glyph glyph-name="eight.subs" horiz-adv-x="380" 
d="M138 141h-33q-5 0 -22.5 1.5t-32.5 5t-15 10.5v125q0 7 15 10.5t32.5 5t22.5 1.5h170q6 0 23 -1.5t32 -5t15 -10.5v-125q0 -4 -14 -10t-29 -11t-20 -6l-51 -13v-4h49q6 0 23 -1.5t32 -5t15 -10.5v-113q0 -7 -15 -10.5t-32 -5t-23 -1.5h-180q-5 0 -22.5 1.5t-32.5 5
t-15 10.5v115q0 5 14 10.5t29.5 10.5t19.5 6l45 11v4zM175 153l30 10v103h-30v-113zM170 1h40v106l-40 -13v-93z" />
    <glyph glyph-name="nine.subs" horiz-adv-x="370" 
d="M35 -33v34h165v81q-4 -5 -19 -8.5t-30 -4.5t-20 -1h-31q-5 0 -22.5 1.5t-32.5 5t-15 10.5v198q0 7 15 10.5t32.5 5t22.5 1.5h170q6 0 23 -1.5t32 -5t15 -10.5v-299q0 -7 -15 -10.5t-32 -5t-23 -1.5h-235zM170 102h30v164h-30v-164z" />
    <glyph glyph-name="dummy1" horiz-adv-x="0" 
 />
    <glyph glyph-name="KaRa.dv" horiz-adv-x="1100" 
d="M85 -20l-16 62q88 7 175.5 14.5t175.5 14.5v35q-4 -9 -21 -14t-38.5 -8t-41 -4t-28.5 -1h-111q-8 0 -28.5 1t-44 4.5t-40.5 9.5t-17 16v359q0 10 17 16t40.5 9.5t44 4.5t28.5 1h69q10 0 31 -1t44 -4.5t39 -9.5t16 -16v-31h-69v-297h110v438h-420v62h1100v-62h-420v-106
q4 9 21 14t38.5 8t41 4t28.5 1h111q8 0 28.5 -1t44 -4.5t40.5 -9.5t17 -16v-379q0 -10 -17 -16t-40.5 -9.5t-44 -4.5t-28.5 -1h-67q-10 0 -31 1t-44 4t-39 9.5t-16 16.5v31h67v317h-110v-438h-260v35q-11 -7 -33.5 -13t-48.5 -9.5t-47.5 -6t-29.5 -3.5z" />
    <glyph glyph-name="PaRa.dv" horiz-adv-x="730" 
d="M65 -20l-16 62l371 31v63q-4 -9 -21 -14t-38.5 -8t-41 -4t-28.5 -1h-111q-8 0 -28.5 1t-44 4.5t-40.5 9.5t-17 16v439h-50v62h730v-62h-50v-579h-260v37q-8 -6 -23.5 -10.5t-29.5 -7.5t-20 -4q-70 -10 -140.5 -18t-141.5 -17zM310 171h110v408h-110v-408z" />
    <glyph glyph-name="SaRa.dv" horiz-adv-x="900" 
d="M0 579v62h900v-62h-50v-579h-260v24q-8 -6 -23.5 -10.5t-29.5 -7.5t-20 -4q-70 -10 -140.5 -18t-141.5 -17l-16 62l371 31v191q-13 0 -33 2t-39.5 5.5t-33 9t-13.5 14.5v31h119v266h-120v-252q0 -11 -19.5 -17t-46 -9t-50 -4t-32.5 -1l138 -211l-256 -10q-5 8 -23.5 35
t-42 63t-46 70.5t-37.5 58.5t-15 25q0 10 17 16t40.5 9.5t44 4.5t28.5 1h40v221h-210z" />
    <glyph glyph-name="HaRa.dv" horiz-adv-x="760" 
d="M0 579v62h760v-62h-80v-110q0 -10 -17 -16t-40.5 -9.5t-44 -4.5t-28.5 -1h-240v-48q0 -18 0.5 -36t13.5 -33h316q9 0 28.5 -2.5t35.5 -9t16 -19.5v-130q0 -12 -16 -19t-35.5 -9.5t-28.5 -2.5h-80v114l-132 -140l-74 42l122 114h-142q-11 -7 -12.5 -28.5t-1.5 -32.5v-91
q0 -35 4 -45h387v-62h-471q-21 0 -51 2t-59.5 9.5t-49.5 24t-20 45.5v136q0 27 19 41t47 18.5t56 4.5h46v10h-48t-59.5 5t-50 19t-20.5 42v112q0 10 17 16t40.5 9.5t44 4.5t28.5 1h240v79h-420z" />
    <glyph glyph-name="KaNuktaRa.dv" horiz-adv-x="1100" 
d="M85 -20l-16 62q88 7 175.5 14.5t175.5 14.5v35q-4 -9 -21 -14t-38.5 -8t-41 -4t-28.5 -1h-111q-8 0 -28.5 1t-44 4.5t-40.5 9.5t-17 16v359q0 10 17 16t40.5 9.5t44 4.5t28.5 1h69q10 0 31 -1t44 -4.5t39 -9.5t16 -16v-31h-69v-297h110v438h-420v62h1100v-62h-420v-106
q4 9 21 14t38.5 8t41 4t28.5 1h111q8 0 28.5 -1t44 -4.5t40.5 -9.5t17 -16v-379q0 -10 -17 -16t-40.5 -9.5t-44 -4.5t-28.5 -1h-67q-10 0 -31 1t-44 4t-39 9.5t-16 16.5v31h67v317h-110v-438h-260v35q-11 -7 -33.5 -13t-48.5 -9.5t-47.5 -6t-29.5 -3.5zM360 -30v-78
q0 -7 -16 -11t-34.5 -5.5t-24.5 -1.5h-75v78q0 8 16.5 11.5t34.5 5t24 1.5h75z" />
    <glyph glyph-name="KhaNuktaRa.dv" horiz-adv-x="1130" 
d="M0 579v62h1130v-62h-50v-579h-260q-9 -7 -28 -12.5t-40.5 -10t-39.5 -7t-25 -3.5l-468 -68l-18 60q155 20 310 38.5t309 37.5v36q-9 -6 -37 -12.5t-66 -12t-78.5 -10.5t-76 -8.5t-59 -5.5t-26.5 -2h-113q-16 0 -39.5 1.5t-46 6t-36.5 12.5q-1 1 -16 21.5t-38 53
t-48.5 68.5t-48 68t-37 53.5t-14.5 22.5q0 10 17 16t40.5 9.5t44 4.5t28.5 1h40v221h-210zM324 296l150 -214q86 5 173 11t173 13v37h-190q-7 0 -24.5 1t-37.5 3.5t-34 8t-14 13.5v280q0 8 14 13.5t34 8t37.5 3.5t24.5 1h60q7 0 24.5 -1t37.5 -3.5t34 -8t14 -13.5v-31h-60
v-223h80v384h-350v-252q0 -11 -19 -17t-45.5 -9t-50 -4t-31.5 -1zM598 -80v-78q0 -7 -16.5 -11t-34.5 -5.5t-24 -1.5h-75v78q0 8 16.5 11.5t34.5 5t24 1.5h75z" />
    <glyph glyph-name="GaNuktaRa.dv" horiz-adv-x="820" 
d="M85 -20l-16 62q110 9 220.5 18t220.5 19v500h-100v-448q0 -10 -17 -16t-40.5 -9.5t-44 -4.5t-28.5 -1h-100q-8 0 -28.5 1t-44 4.5t-40.5 9.5t-17 16v200q0 11 19.5 17t45.5 9t45 4v218h-160v62h820v-62h-50v-579h-260v44q-9 -7 -28 -11.5t-37 -7.5t-25 -4
q-83 -10 -167 -20t-168 -21zM410 -30v-78q0 -7 -16 -11t-34.5 -5.5t-24.5 -1.5h-75v78q0 8 16.5 11.5t34.5 5t24 1.5h75z" />
    <glyph glyph-name="JaNuktaRa.dv" horiz-adv-x="1020" 
d="M82 -34l-14 62q161 7 321.5 13t320.5 13v335h-70v-275q0 -11 -16 -18t-38.5 -10.5t-43.5 -5t-32 -1.5h-330q-8 0 -28.5 1t-44 4.5t-40.5 9.5t-17 16v310q0 10 17 16t40.5 9.5t44 4.5t28.5 1h130v-310h70v279q0 10 17 16t40.5 9.5t44 4.5t28.5 1h77q11 0 36 -1.5t50 -5.5
t37 -13v148h-710v62h1020v-62h-50v-579h-260v20q-9 -7 -29 -11t-43 -6.5t-42 -4t-26 -1.5zM420 -55v-78q0 -7 -16 -11t-34.5 -5.5t-24.5 -1.5h-75v78q0 8 16.5 11.5t34.5 5t24 1.5h75z" />
    <glyph glyph-name="PhaNuktaRa.dv" horiz-adv-x="1100" 
d="M723 131h67v307h-110v-438h-260v35q-11 -7 -33.5 -13t-48.5 -9.5t-47.5 -6t-29.5 -3.5l-176 -23l-16 62q88 7 175.5 14.5t175.5 14.5v75q-4 -9 -21 -14t-38.5 -8t-41 -4t-28.5 -1h-111q-8 0 -28.5 1t-44 4.5t-40.5 9.5t-17 16v429h-50v62h1100v-62h-420v-106q4 9 21 14
t38.5 8t41 4t28.5 1h111q8 0 28.5 -1t44 -4.5t40.5 -9.5t17 -16v-369q0 -10 -17 -16t-40.5 -9.5t-44 -4.5t-28.5 -1h-67q-9 0 -28.5 1t-41 4t-38.5 8t-21 14q-1 2 -1 5v5v25zM310 181h110v398h-110v-398zM310 -40v-78q0 -7 -16 -11t-34.5 -5.5t-24.5 -1.5h-75v78
q0 8 16.5 11.5t34.5 5t24 1.5h75z" />
    <glyph glyph-name="YaNuktaRa.dv" horiz-adv-x="900" 
d="M147 -21l-16 62q68 6 123.5 10.5t107 9t106.5 9t122 10.5v54q-6 -8 -23 -13t-38 -7.5t-39.5 -3.5t-27.5 -1h-282q-8 0 -28.5 1t-44 4.5t-40.5 9.5t-17 16v190q0 12 22 18.5t52.5 9t57 3t35.5 0.5h19q4 7 4 20.5v21.5v176h-240v62h900v-62h-50v-579h-260v43
q-10 -7 -29.5 -12t-37.5 -7.5t-26 -3.5zM310 171h280v408h-90v-199q0 -29 -21.5 -45.5t-53 -24t-63 -9.5t-52.5 -2v-128zM450 -40v-78q0 -7 -16 -11t-34.5 -5.5t-24.5 -1.5h-75v78q0 8 16.5 11.5t34.5 5t24 1.5h75z" />
    <glyph glyph-name="ChaRaYa.dv" horiz-adv-x="1860" 
d="M444 -199l-180 10l176 177q7 7 30 12h-230q-21 0 -51 2t-59.5 9.5t-49.5 24.5t-20 46v147q0 24 13.5 36t34.5 17t43 6t38 1v10q-17 0 -40.5 1.5t-46 7t-37.5 18.5t-15 38v146q0 10 17 16t40.5 9.5t44 4.5t28.5 1h130v-135q0 -19 1.5 -39.5t14.5 -35.5h64v-62h-50
q-16 -13 -18 -31t-2 -38v-40v-39t1 -37t3 -21h329q9 9 13 23t4 26v253q0 17 -1.5 38.5t-15.5 34.5h-23q-7 -7 -10 -18t-3 -21v-279h-90q-9 0 -31 2.5t-40.5 9.5t-18.5 19v248q0 31 15.5 51t40 31t52.5 15t52 4h110q26 0 58.5 -1.5t65 -8.5t56.5 -23q0 11 17 17.5t40.5 10
t44.5 4.5t29 1h262q21 0 51 -2t59.5 -9.5t49.5 -24t20 -45.5v-109q0 -29 -20 -45.5t-49.5 -24t-59.5 -9.5t-51 -2h-10v-118h280v468h-1550v62h1860v-62h-50v-579h-260v74q-6 -8 -23 -13t-38 -7.5t-39.5 -3.5t-27.5 -1h-282q-8 0 -28.5 1t-44 4.5t-40.5 9.5t-17 16v180
q0 12 22 18.5t52.5 9t57 3t35.5 0.5h19q4 8 4 19v109q0 11 -4 19h-279q10 -16 11.5 -35.5t1.5 -37.5v-253q0 -39 -21.5 -61.5t-55 -33.5t-69 -14t-64.5 -3h-129q23 -5 30 -12l176 -177l-180 -10l-86 115z" />
    <glyph glyph-name="TtaTtaYa.dv" horiz-adv-x="1620" 
d="M0 579v62h1620v-62h-50v-579h-260v74q-6 -8 -23 -13t-38 -7.5t-39.5 -3.5t-27.5 -1h-282q-8 0 -28.5 1t-44 4.5t-40.5 9.5t-17 16v170q0 12 22 18.5t52.5 9t57 3t35.5 0.5h19q4 8 4 19v110q0 11 -4 19h-95h-36.5t-53 1t-53.5 5t-38 12v-7q0 -10 -17 -16.5t-40.5 -10
t-44 -4.5t-28.5 -1h-240v-162h370v-191q0 -10 -17 -16t-40.5 -9.5t-44 -4.5t-28.5 -1h-240v-163h370v-62h-500q-8 0 -28.5 1t-44 4.5t-40.5 9.5t-17 16v225q0 10 17 16t40.5 9.5t44 4.5t28.5 1h240v98h-240q-8 0 -28.5 1t-44 4.5t-40.5 9.5t-17 16v225q0 10 17 16t40.5 9.5
t44 4.5t28.5 1h240v108h-420zM1030 111h280v468h-630v-88h360q21 0 51 -2t59.5 -9.5t49.5 -24t20 -45.5v-110q0 -29 -21.5 -45.5t-53 -24t-63 -9.5t-52.5 -2v-108z" />
    <glyph glyph-name="TthaTthaYa.dv" horiz-adv-x="1781" 
d="M0 579v62h1780v-62h-50v-579h-260v74q-6 -8 -23 -13t-38 -7.5t-39.5 -3.5t-27.5 -1h-282q-8 0 -28.5 1t-44 4.5t-40.5 9.5t-17 16v170q0 12 22 18.5t52.5 9t57 3t35.5 0.5h19q4 8 4 19v110q0 11 -4 19h-220h-47t-66 2.5t-63.5 8t-39.5 16.5v-16q0 -10 -17 -16t-40.5 -9.5
t-44 -4.5t-28.5 -1h-240v-163h280v150h130q8 0 28.5 -1t44 -4.5t40.5 -9.5t17 -16v-150q0 -10 -17 -16t-40.5 -9.5t-44 -4.5t-28.5 -1h-40v-129q0 -10 -17 -16.5t-40.5 -10t-44 -4.5t-28.5 -1h-240v-162h280v150h130q8 0 28.5 -1t44 -4.5t40.5 -9.5t17 -16v-150
q0 -10 -17 -16.5t-40.5 -10t-44 -4.5t-28.5 -1h-540q-8 0 -28.5 1t-44 4.5t-40.5 10t-17 16.5v225q0 10 17 16t40.5 9.5t44 4.5t28.5 1h240v98h-240q-8 0 -28.5 1t-44 4.5t-40.5 9.5t-17 16v225q0 10 17 16t40.5 9.5t44 4.5t28.5 1h240v108h-420zM1190 111h280v468h-790v-88
h520q21 0 51 -2t59.5 -9.5t49.5 -24t20 -45.5v-110q0 -29 -21.5 -45.5t-53 -24t-63 -9.5t-52.5 -2v-108z" />
    <glyph glyph-name="DdaDdaYa.dv" horiz-adv-x="1650" 
d="M0 579v62h1650v-62h-50v-579h-260v74q-6 -8 -23 -13t-38 -7.5t-39.5 -3.5t-27.5 -1h-282q-8 0 -28.5 1t-44 4.5t-40.5 9.5t-17 16v170q0 12 22 18.5t52.5 9t57 3t35.5 0.5h19q4 8 4 19v110q0 11 -4 19h-106h-43t-62 1.5t-59.5 7t-35.5 16.5v-4q0 -10 -17 -16t-40.5 -9.5
t-44 -4.5t-28.5 -1h-230v-88h270q8 0 28.5 -1t44 -4.5t40.5 -9.5t17 -16v-140q0 -10 -17 -16t-40.5 -9.5t-44 -4.5t-28.5 -1h-270v-88h280q8 0 28.5 -1t44 -4.5t40.5 -9.5t17 -16v-180q0 -10 -17 -16t-40.5 -9.5t-44 -4.5t-28.5 -1h-420q-8 0 -28.5 1t-44 4.5t-40.5 9.5
t-17 16v90h260v-59h160v118h-280q-8 0 -28.5 1t-44 4.5t-40.5 9.5t-17 16v150q0 10 17 16t40.5 9.5t44 4.5t28.5 1h270v78h-270q-8 0 -28.5 1t-44 4.5t-40.5 9.5t-17 16v150q0 10 17 16t40.5 9.5t44 4.5t28.5 1h230v98h-420zM1060 111h280v468h-660v-88h390q21 0 51 -2
t59.5 -9.5t49.5 -24t20 -45.5v-110q0 -29 -21.5 -45.5t-53 -24t-63 -9.5t-52.5 -2v-108z" />
    <glyph glyph-name="DdhaRaYa.dv" horiz-adv-x="1620" 
d="M364 -199l-180 10l177 175q4 4 11.5 8t17.5 6h-160q-21 0 -51 2t-59.5 9.5t-49.5 24t-20 45.5v309q0 10 17 16t40.5 9.5t44 4.5t28.5 1h240v158h-420v62h1620v-62h-50v-579h-260v74q-6 -8 -23 -13t-38 -7.5t-39.5 -3.5t-27.5 -1h-282q-8 0 -28.5 1t-44 4.5t-40.5 9.5
t-17 16v170q0 12 22 18.5t52.5 9t57 3t35.5 0.5h19q4 8 4 19v110q0 11 -4 19h-95h-36.5t-53 1t-53.5 5t-38 12v-57q0 -10 -17 -16t-40.5 -9.5t-44 -4.5t-28.5 -1h-240v-180q0 -11 -0.5 -36t0.5 -49t5 -32h135v133q0 10 16 15.5t39 8t44 3t31 0.5q8 0 28.5 -1t44 -4.5
t40.5 -9.5t17 -16v-160q0 -10 -17 -16t-40.5 -9.5t-44 -4.5t-28.5 -1h-69q11 -2 18 -6t11 -8l177 -175l-180 -10l-86 115zM1030 111h280v468h-630v-88h360q21 0 51 -2t59.5 -9.5t49.5 -24t20 -45.5v-110q0 -29 -21.5 -45.5t-53 -24t-63 -9.5t-52.5 -2v-108z" />
    <glyph glyph-name="DaDaYa.dv" horiz-adv-x="1620" 
d="M310 386q0 -16 0.5 -34t10.5 -31h239v-62h-221q-16 -13 -17.5 -31t-1.5 -38v-40q0 -12 1 -22.5t3 -15.5h106v59h130q8 0 28.5 -1t44 -4.5t40.5 -9.5t17 -16v-150h-260v63q-16 -1 -29.5 -2t-19.5 -1h-141q-21 0 -51 2t-59.5 9.5t-49.5 24t-20 45.5v86q0 24 14 36t34.5 17
t43 6t38.5 1v10q-17 1 -41 2.5t-46.5 7.5t-37.5 19.5t-15 38.5v114q0 10 17 16t40.5 9.5t44 4.5t28.5 1h240v79h-420v62h1620v-62h-50v-579h-260v84q-6 -8 -23 -13t-38 -7.5t-39.5 -3.5t-27.5 -1h-282q-8 0 -28.5 1t-44 4.5t-40.5 9.5t-17 16v170q0 12 22 18.5t52.5 9t57 3
t35.5 0.5h19q4 8 4 19v110q0 11 -4 19q-14 0 -43.5 -0.5t-66 0.5t-72 3.5t-61.5 8t-34 15.5q-3 -9 -20.5 -14.5t-40 -8.5t-41.5 -4t-27 -1h-240v-52zM1030 121h280v458h-630v-78h360q21 0 51 -2t59.5 -9.5t49.5 -24t20 -45.5v-110q0 -29 -21.5 -45.5t-53 -24t-63 -9.5
t-52.5 -2v-108z" />
    <glyph glyph-name="DaDhaYa.dv" horiz-adv-x="1911" 
d="M980 -10h-260v90h-200q-21 0 -51 2t-59.5 9.5t-49.5 24t-20 45.5v250q0 10 17 16t40.5 9.5t44 4.5t28.5 1h240v137h-710v62h1910v-62h-50v-579h-260v74q-6 -8 -23 -13t-38 -7.5t-39.5 -3.5t-27.5 -1h-282q-8 0 -28.5 1t-44 4.5t-40.5 9.5t-17 16v170q0 10 16 16t40.5 9.5
t51 4.5t48 1h30.5q4 8 4 19v110q0 11 -4 19q-14 0 -43.5 -0.5t-66 -0.5t-71.5 2t-61 7.5t-34 15.5v-42q0 -10 -17 -16t-40.5 -9.5t-44 -4.5t-28.5 -1h-240v-141v-29.5t1 -40t5 -27.5h114v99h130q8 0 28.5 -1t44 -4.5t40.5 -9.5t17 -16v-220zM1320 111h280v468h-630v-88h360
q21 0 51 -2t59.5 -9.5t49.5 -24t20 -45.5v-110q0 -29 -21.5 -45.5t-53 -24t-63 -9.5t-52.5 -2v-108zM149 216q-18 1 -42 2.5t-42 11.5t-18 34v117h-37v46h133q6 0 21.5 -1t33 -3t30 -6.5t12.5 -12.5v-107q0 -13 0.5 -29t7.5 -26h62v-47h-49q-12 -10 -13 -23.5t-1 -27.5v-30
q0 -16 0.5 -34t2.5 -23l129 -1v-23q0 -7 -12.5 -11.5t-30 -7t-33 -3.5t-21.5 -1h-94q-15 0 -37.5 1.5t-44.5 7t-37 18t-15 34.5v94q0 23 16.5 31.5t39 9.5t39.5 1v9z" />
    <glyph glyph-name="DaBhaYa.dv" horiz-adv-x="2100" 
d="M0 579v62h2100v-62h-50v-579h-260v74q-6 -8 -23 -13t-38 -7.5t-39.5 -3.5t-27.5 -1h-282q-8 0 -28.5 1t-44 4.5t-40.5 9.5t-17 16v170q0 12 22 18.5t52.5 9t57 3t35.5 0.5h19q4 8 4 19v110q0 11 -4 19q-14 0 -43.5 -0.5t-66 -0.5t-71.5 2t-61 7.5t-34 15.5v-42
q0 -10 -17 -16t-40.5 -9.5t-44 -4.5t-28.5 -1h-240v-141q0 -9 -0.5 -29.5t0 -40t4.5 -27.5h116v99h130q8 0 28.5 -1t44 -4.5t40.5 -9.5t17 -16v-220h-260v90h-200q-21 0 -51 2t-59.5 9.5t-49.5 24t-20 45.5v16h-50v-124q0 -7 -12.5 -11.5t-29.5 -7t-32.5 -3.5t-21.5 -1h-228
q-6 0 -21 1t-32 3.5t-29.5 7t-12.5 11.5v147q0 7 12.5 11.5t29.5 7t32 3.5t21 1h133v175h-44v-133h-96q-6 0 -21 1t-32.5 3.5t-30 7t-12.5 11.5v133q0 7 12.5 11.5t30 7t32.5 3.5t21 1h235q6 0 21.5 -1t32.5 -3.5t29.5 -7t12.5 -11.5v-200q14 -1 27.5 -3.5t22.5 -7.5v201
q0 10 17 16t40.5 9.5t44 4.5t28.5 1h240v137h-900zM1510 111h280v468h-630v-88h360q21 0 51 -2t59.5 -9.5t49.5 -24t20 -45.5v-110q0 -29 -20 -45.5t-49.5 -24t-59.5 -9.5t-51 -2h-10v-108zM252 76h37v101h-37v-101z" />
    <glyph glyph-name="DaRaYa.dv" horiz-adv-x="1620" 
d="M86 -23l-16 62q180 14 360 30v21h-200q-21 0 -51 2t-59.5 9.5t-49.5 24t-20 45.5v240q0 10 17 16t40.5 9.5t44 4.5t28.5 1h240v137h-420v62h1620v-62h-50v-579h-260v74q-6 -8 -23 -13t-38 -7.5t-39.5 -3.5t-27.5 -1h-282q-8 0 -28.5 1t-44 4.5t-40.5 9.5t-17 16v170
q0 12 22 18.5t52.5 9t57 3t35.5 0.5h19q4 8 4 19v110q0 11 -4 19q-14 0 -43.5 -0.5t-66 -0.5t-71.5 2t-61 7.5t-34 15.5v-42q0 -10 -17 -16t-40.5 -9.5t-44 -4.5t-28.5 -1h-240v-134q0 -9 -0.5 -29t0.5 -38.5t5 -26.5h115v89h130q8 0 28.5 -1t44 -4.5t40.5 -9.5t17 -16v-220
h-260v43q-8 -6 -23 -10.5t-28 -7t-19 -3.5q-68 -10 -137 -18t-137 -17zM1030 111h280v468h-630v-88h360q21 0 51 -2t59.5 -9.5t49.5 -24t20 -45.5v-110q0 -29 -21.5 -45.5t-53 -24t-63 -9.5t-52.5 -2v-108z" />
    <glyph glyph-name="DaVaYa.dv" horiz-adv-x="1620" 
d="M0 579v62h1620v-62h-50v-579h-260v74q-6 -8 -23 -13t-38 -7.5t-39.5 -3.5t-27.5 -1h-282q-8 0 -28.5 1t-44 4.5t-40.5 9.5t-17 16v170q0 10 16 16t40.5 9.5t51 4.5t48 1h30.5q4 8 4 19v110q0 11 -4 19q-14 0 -43.5 -0.5t-66 -0.5t-71.5 2t-61 7.5t-34 15.5v-42
q0 -10 -17 -16t-40.5 -9.5t-44 -4.5t-28.5 -1h-240v-121q0 -9 -0.5 -27t0.5 -35.5t5 -24.5h155v69h110q7 0 24.5 -1t37.5 -4t34 -8t14 -14v-324h-220v39q-4 -7 -18.5 -12t-33 -8t-35 -4t-22.5 -1h-101q-7 0 -24.5 1t-37.5 4.5t-34 9t-14 14.5v138q0 10 18 16t41 9t38 4v10
h-17q-21 0 -51 2t-59.5 9.5t-49.5 24t-20 45.5v220q0 10 17 16t40.5 9.5t44 4.5t28.5 1h240v137h-420zM1030 111h280v468h-630v-88h360q21 0 51 -2t59.5 -9.5t49.5 -24t20 -45.5v-110q0 -29 -21.5 -45.5t-53 -24t-63 -9.5t-52.5 -2v-108zM370 -36h100v146h-100v-146z" />
    <glyph glyph-name="DhaNaYa.dv" horiz-adv-x="1360" 
d="M459 579v62h901v-62h-50v-579h-260v134q-6 -8 -23 -13t-38 -7.5t-39.5 -3.5t-27.5 -1h-282q-7 0 -27 1t-42.5 4t-40 8.5t-20.5 14.5q-3 -9 -20.5 -14.5t-39.5 -8.5t-41.5 -4t-27.5 -1h-141q-21 0 -51 2t-59.5 9.5t-49.5 24t-20 45.5v110q0 24 13.5 36t34.5 17t43 6t38 1
v10q-17 1 -40.5 2t-46 6.5t-37.5 19t-15 37.5v144h-50v62h180q8 0 28.5 -1t44 -4.5t40.5 -9.5t17 -16v-107v-37.5t2.5 -40t10.5 -24.5h126v-62h-110q-16 -13 -17.5 -32t-1.5 -39v-41q0 -11 -0.5 -30t3.5 -25h187v158q0 10 16 16t40.5 9.5t51 4.5t48 1h30.5q4 7 4 20.5v21.5
v176h-241zM770 171h280v408h-90v-199q0 -29 -21.5 -45.5t-53 -24t-63 -9.5t-52.5 -2v-128zM342 23q2 -18 5 -36.5t3 -37.5q0 -8 -13 -13.5t-31.5 -9t-35 -5t-22.5 -1.5q-5 0 -18.5 1t-25.5 4.5t-13 10.5l-11 98q-1 11 19 17t48 9.5t52.5 5t33.5 1.5q45 3 89 6t89 7
q1 -6 2 -11.5t1 -11.5q0 -11 -22.5 -17.5t-54 -9.5t-59 -4.5t-36.5 -2.5z" />
    <glyph glyph-name="ShaRaYa.dv" horiz-adv-x="1560" 
d="M710 579v62h850v-62h-50v-579h-260v134q-6 -8 -23 -13t-38 -7.5t-39.5 -3.5t-27.5 -1h-282q-8 0 -28.5 1t-44 4.5t-40.5 9.5t-17 16v34q-25 0 -49.5 6t-31.5 16q-4 -9 -21 -14t-39.5 -8t-41.5 -4.5t-26 -1.5l-432 -31l-56 43v18l357 22v359h-50v-290h-130q-8 0 -28.5 1
t-44 4.5t-40.5 9.5t-17 16v290q0 10 17 16t40.5 9.5t44 4.5t28.5 1h310q8 0 28.5 -1t44 -4.5t40.5 -9.5t17 -16v-377h80v97q0 12 22 18.5t52.5 9t57 3t35.5 0.5h19q4 7 4 20.5v21.5v176h-190zM970 171h280v408h-90v-199q0 -29 -21.5 -45.5t-53 -24t-63 -9.5t-52.5 -2v-128z
M145 7l-50 47v10q91 9 165.5 16t144 14t143.5 14.5t164 16.5l6 -30q2 -9 -14 -15.5t-39 -11t-43 -7l-28 -3.5z" />
    <glyph glyph-name="ChaYa.dv" horiz-adv-x="1860" 
d="M720 0h-480q-21 0 -51 2t-59.5 9.5t-49.5 24.5t-20 46v147q0 24 13.5 36t34.5 17t43 6t38 1v10q-17 0 -40.5 1.5t-46 7t-37.5 18.5t-15 38v146q0 10 17 16t40.5 9.5t44 4.5t28.5 1h130v-135q0 -19 1.5 -39.5t14.5 -35.5h64v-62h-50q-16 -13 -18 -31t-2 -38v-40v-39t1 -37
t3 -21h329q9 9 13 23t4 26v253q0 17 -1.5 38.5t-15.5 34.5h-23q-7 -7 -10 -18t-3 -21v-279h-90q-9 0 -31 2.5t-40.5 9.5t-18.5 19v248q0 31 15.5 51t40 31t52.5 15t52 4h110q26 0 58.5 -1.5t65 -8.5t56.5 -23q0 11 17 17.5t40.5 10t44.5 4.5t29 1h262q21 0 51 -2t59.5 -9.5
t49.5 -24t20 -45.5v-109q0 -29 -20 -45.5t-49.5 -24t-59.5 -9.5t-51 -2h-10v-118h280v468h-1550v62h1860v-62h-50v-579h-260v74q-6 -8 -23 -13t-38 -7.5t-39.5 -3.5t-27.5 -1h-282q-8 0 -28.5 1t-44 4.5t-40.5 9.5t-17 16v180q0 12 22 18.5t52.5 9t57 3t35.5 0.5h19
q4 8 4 19v109q0 11 -4 19h-279q10 -16 11.5 -35.5t1.5 -37.5v-253q0 -39 -21.5 -61.5t-55 -33.5t-69 -14t-64.5 -3z" />
    <glyph glyph-name="ChaVa.dv" horiz-adv-x="980" 
d="M0 579v62h980v-62h-110v-102q39 -17 49.5 -44.5t10.5 -67.5v-253q0 -39 -22.5 -62t-57 -33t-70.5 -14v-223h-220v39q-4 -7 -18.5 -12t-33 -8t-35 -4t-22.5 -1h-111q-7 0 -24.5 1t-37.5 4.5t-34 9t-14 14.5v138q0 9 14 14.5t34 9t37.5 4.5t24.5 1h6v10h-106q-21 0 -51 2
t-59.5 9.5t-49.5 24.5t-20 46v147q0 24 13.5 36t34.5 17t43 6t38 1v10q-17 0 -40.5 1.5t-46 7t-37.5 18.5t-15 38v146q0 10 17 16t40.5 9.5t44 4.5t28.5 1h130v-135q0 -19 1 -39.5t14 -35.5h65v-62h-50q-16 -13 -18 -31t-2 -38v-40v-39t1 -37t3 -21h329q9 9 13 23t4 26v253
q0 17 -1.5 38.5t-15.5 34.5h-23q-7 -7 -10 -18t-3 -21v-279h-90q-9 0 -31 2.5t-40.5 9.5t-18.5 19v248q0 31 15.5 51t40 31t52.5 15t52 4h110h30t33 -2v81h-770zM450 -146h110v146h-110v-146z" />
    <glyph glyph-name="NgaKa.dv" horiz-adv-x="900" 
d="M0 579v62h900v-62h-220v-96q0 -10 -17 -16t-40.5 -9.5t-44 -4.5t-28.5 -1h-230v-72h270q8 0 28.5 -1t44 -4.5t40.5 -9.5t17 -16v-184q0 -10 -17 -16t-40.5 -9.5t-44 -4.5t-28.5 -1h-112v-51q6 6 22.5 9t33 4t22.5 1h62q6 0 25.5 -1.5t37 -5.5t17.5 -12v-225
q0 -8 -17.5 -12t-37 -5.5t-25.5 -1.5h-40q-6 0 -25.5 1.5t-37 5.5t-17.5 12v19h40v188h-60v-260h-160v62q-4 -6 -21 -9.5t-34.5 -5t-23.5 -1.5h-60q-6 0 -25.5 1.5t-37 5.5t-17.5 12v213q0 8 17.5 12t37 5.5t25.5 1.5h39q6 0 25.5 -1.5t37 -5.5t17.5 -12v-18h-39v-176h59
v250h-138q-8 0 -28.5 1t-44 4.5t-40.5 9.5t-17 16v103h260v-72h150v121h-270q-8 0 -28.5 1t-44 4.5t-40.5 10t-17 16.5v134q0 10 17 16t40.5 9.5t44 4.5t28.5 1h230v65h-420zM876 473v-74q0 -6 -16.5 -9t-34.5 -4t-24 -1h-75v73q0 6 16.5 9.5t34.5 4.5t24 1h75z" />
    <glyph glyph-name="NgaGa.dv" horiz-adv-x="900" 
d="M0 579v62h900v-62h-220v-96q0 -10 -17 -16t-40.5 -9.5t-44 -4.5t-28.5 -1h-230v-72h270q8 0 28.5 -1t44 -4.5t40.5 -9.5t17 -16v-184q0 -10 -17.5 -16t-41 -9.5t-43.5 -4.5v-335h-160v334h-82v-254q0 -8 -17.5 -12.5t-36.5 -6t-26 -1.5h-71q-7 0 -26.5 1.5t-36.5 6
t-17 12.5v120q0 8 15 12.5t32.5 6.5t23.5 2v113h-36q-8 0 -28.5 1t-44 4.5t-40.5 9.5t-17 16v103h260v-72h150v121h-270q-8 0 -28.5 1t-44 4.5t-40.5 10t-17 16.5v134q0 10 17 16t40.5 9.5t44 4.5t28.5 1h230v65h-420zM876 473v-74q0 -6 -16.5 -9t-34.5 -4t-24 -1h-75v73
q0 6 16.5 9.5t34.5 4.5t24 1h75z" />
    <glyph glyph-name="NgaMa.dv" horiz-adv-x="900" 
d="M0 579v62h900v-62h-220v-96q0 -10 -17 -16t-40.5 -9.5t-44 -4.5t-28.5 -1h-230v-72h270q8 0 28.5 -1t44 -4.5t40.5 -9.5t17 -16v-184q0 -9 -15 -15t-36 -9t-41 -5v-336h-160v183h-102v-103q0 -8 -17.5 -12.5t-36.5 -6t-26 -1.5h-81q-7 0 -26.5 1.5t-36.5 6t-17 12.5v123
q0 9 17.5 13.5t37 6t26.5 1.5v110h-26q-8 0 -28.5 1t-44 4.5t-40.5 9.5t-17 16v103h260v-72h150v121h-270q-8 0 -28.5 1t-44 4.5t-40.5 10t-17 16.5v134q0 10 17 16t40.5 9.5t44 4.5t28.5 1h230v65h-420zM876 473v-74q0 -6 -16.5 -9t-34.5 -4t-24 -1h-75v73q0 6 16.5 9.5
t34.5 4.5t24 1h75zM366 24h23q7 0 24.5 -1t34 -4.5t20.5 -11.5v127h-102v-110z" />
    <glyph glyph-name="NgaYa.dv" horiz-adv-x="1650" 
d="M0 579v62h1650v-62h-50v-579h-260v74q-6 -8 -23 -13t-38 -7.5t-39.5 -3.5t-27.5 -1h-282q-8 0 -28.5 1t-44 4.5t-40.5 9.5t-17 16v170q0 12 22 18.5t52.5 9t57 3t35.5 0.5h19q4 8 4 19v110q0 11 -4 19h-106h-43t-62 1.5t-59.5 7t-35.5 16.5v-4q0 -10 -17 -16t-40.5 -9.5
t-44 -4.5t-28.5 -1h-230v-108h270q8 0 28.5 -1t44 -4.5t40.5 -9.5t17 -16v-232q0 -10 -17 -16t-40.5 -9.5t-44 -4.5t-28.5 -1h-410q-8 0 -28.5 1t-44 4.5t-40.5 9.5t-17 16v130h260v-99h150v170h-270q-8 0 -28.5 1t-44 4.5t-40.5 9.5t-17 16v170q0 10 17 16t40.5 9.5t44 4.5
t28.5 1h230v98h-420zM1060 111h280v468h-660v-88h390q21 0 51 -2t59.5 -9.5t49.5 -24t20 -45.5v-110q0 -29 -20 -45.5t-49.5 -24t-59.5 -9.5t-51 -2h-10v-108zM828 394v-75q0 -5 -13.5 -8t-27.5 -4t-19 -1h-60v75q1 6 14 8.5t27.5 3.5t18.5 1h60z" />
    <glyph glyph-name="TtaTta.dv" horiz-adv-x="730" 
d="M0 579v62h730v-62h-50v-139q0 -10 -17 -16.5t-40.5 -10t-44 -4.5t-28.5 -1h-240v-162h370v-191q0 -10 -17 -16t-40.5 -9.5t-44 -4.5t-28.5 -1h-240v-163h370v-62h-500q-8 0 -28.5 1t-44 4.5t-40.5 9.5t-17 16v225q0 10 17 16t40.5 9.5t44 4.5t28.5 1h240v98h-240
q-8 0 -28.5 1t-44 4.5t-40.5 9.5t-17 16v225q0 10 17 16t40.5 9.5t44 4.5t28.5 1h240v108h-420z" />
    <glyph glyph-name="TtaTtha.dv" horiz-adv-x="900" 
d="M0 579v62h900v-62h-220v-139q0 -10 -17 -16.5t-40.5 -10t-44 -4.5t-28.5 -1h-240v-162h370v-191q0 -10 -17 -16.5t-40.5 -10t-44 -4.5t-28.5 -1h-240v-162h280v150h130q8 0 28.5 -1t44 -4.5t40.5 -9.5t17 -16v-150q0 -10 -17 -16.5t-40.5 -10t-44 -4.5t-28.5 -1h-540
q-8 0 -28.5 1t-44 4.5t-40.5 10t-17 16.5v225q0 10 17 16t40.5 9.5t44 4.5t28.5 1h240v98h-240q-8 0 -28.5 1t-44 4.5t-40.5 9.5t-17 16v225q0 10 17 16t40.5 9.5t44 4.5t28.5 1h240v108h-420z" />
    <glyph glyph-name="TtaYa.dv" horiz-adv-x="1620" 
d="M0 579v62h1620v-62h-50v-579h-260v74q-6 -8 -23 -13t-38 -7.5t-39.5 -3.5t-27.5 -1h-282q-8 0 -28.5 1t-44 4.5t-40.5 9.5t-17 16v170q0 12 22 18.5t52.5 9t57 3t35.5 0.5h19q4 8 4 19v110q0 11 -4 19h-95h-36.5t-53 1t-53.5 5t-38 12v-87q0 -10 -17 -16t-40.5 -9.5
t-44 -4.5t-28.5 -1h-240v-176q0 -26 3.5 -48.5t24.5 -42.5h342v-62h-400q-33 0 -73 4t-75.5 17t-58.5 39t-23 71v229q0 10 17 16t40.5 9.5t44 4.5t28.5 1h240v188h-420zM1030 111h280v468h-630v-88h360q21 0 51 -2t59.5 -9.5t49.5 -24t20 -45.5v-110q0 -29 -21.5 -45.5
t-53 -24t-63 -9.5t-52.5 -2v-108z" />
    <glyph glyph-name="TtaVa.dv" horiz-adv-x="730" 
d="M0 579v62h730v-62h-50v-168q0 -10 -17 -16t-40.5 -9.5t-44 -4.5t-28.5 -1h-240v-121v-27.5t1.5 -35.5t4.5 -24h374v-62h-20v-220h-220v39q-4 -7 -18.5 -12t-33 -8t-35 -4t-22.5 -1h-111q-7 0 -24.5 1t-37.5 4.5t-34 9t-14 14.5v138q0 9 14 14.5t34 9t37.5 4.5t24.5 1h6
v10h-6q-21 0 -51 2t-59.5 9.5t-49.5 24t-20 45.5v220q0 10 17 16t40.5 9.5t44 4.5t28.5 1h240v137h-420zM340 -36h110v146h-110v-146z" />
    <glyph glyph-name="TthaTtha.dv" horiz-adv-x="900" 
d="M0 579v62h900v-62h-220v-139q0 -10 -17 -16t-40.5 -9.5t-44 -4.5t-28.5 -1h-240v-163h280v150h130q8 0 28.5 -1t44 -4.5t40.5 -9.5t17 -16v-150q0 -10 -17 -16t-40.5 -9.5t-44 -4.5t-28.5 -1h-40v-129q0 -10 -17 -16.5t-40.5 -10t-44 -4.5t-28.5 -1h-240v-162h280v150
h130q8 0 28.5 -1t44 -4.5t40.5 -9.5t17 -16v-150q0 -10 -17 -16.5t-40.5 -10t-44 -4.5t-28.5 -1h-540q-8 0 -28.5 1t-44 4.5t-40.5 10t-17 16.5v225q0 10 17 16t40.5 9.5t44 4.5t28.5 1h240v98h-240q-8 0 -28.5 1t-44 4.5t-40.5 9.5t-17 16v225q0 10 17 16t40.5 9.5t44 4.5
t28.5 1h240v108h-420z" />
    <glyph glyph-name="TthaYa.dv" horiz-adv-x="1781" 
d="M0 579v62h1780v-62h-50v-579h-260v74q-6 -8 -23 -13t-38 -7.5t-39.5 -3.5t-27.5 -1h-282q-8 0 -28.5 1t-44 4.5t-40.5 9.5t-17 16v170q0 12 22 18.5t52.5 9t57 3t35.5 0.5h19q4 8 4 19v110q0 11 -4 19h-220h-47t-66 2.5t-63.5 8t-39.5 16.5v-86q0 -10 -17 -16t-40.5 -9.5
t-44 -4.5t-28.5 -1h-240v-187q0 -26 5.5 -50t22.5 -40h246q4 7 5 19.5t1 19.5v218h130q8 0 28.5 -1t44 -4.5t40.5 -9.5t17 -16v-207q0 -29 -20 -45.5t-49.5 -24t-59.5 -9.5t-51 -2h-390q-33 0 -73 4t-75.5 17t-58.5 39t-23 71v239q0 10 17 16t40.5 9.5t44 4.5t28.5 1h240
v178h-420zM1190 111h280v468h-790v-88h520q21 0 51 -2t59.5 -9.5t49.5 -24t20 -45.5v-110q0 -29 -21.5 -45.5t-53 -24t-63 -9.5t-52.5 -2v-108z" />
    <glyph glyph-name="DdaDda.dv" horiz-adv-x="770" 
d="M0 579v62h770v-62h-90v-129q0 -10 -17 -16t-40.5 -9.5t-44 -4.5t-28.5 -1h-230v-88h270q8 0 28.5 -1t44 -4.5t40.5 -9.5t17 -16v-140q0 -10 -17 -16t-40.5 -9.5t-44 -4.5t-28.5 -1h-270v-88h280q8 0 28.5 -1t44 -4.5t40.5 -9.5t17 -16v-180q0 -10 -17 -16t-40.5 -9.5
t-44 -4.5t-28.5 -1h-420q-8 0 -28.5 1t-44 4.5t-40.5 9.5t-17 16v90h260v-59h160v118h-280q-8 0 -28.5 1t-44 4.5t-40.5 9.5t-17 16v150q0 10 17 16t40.5 9.5t44 4.5t28.5 1h270v78h-270q-8 0 -28.5 1t-44 4.5t-40.5 9.5t-17 16v150q0 10 17 16t40.5 9.5t44 4.5t28.5 1h230
v98h-420z" />
    <glyph glyph-name="DdaDdha.dv" horiz-adv-x="770" 
d="M0 579v62h770v-62h-90v-129q0 -10 -17 -16t-40.5 -9.5t-44 -4.5t-28.5 -1h-230v-118h270q8 0 28.5 -1t44 -4.5t40.5 -9.5t17 -16v-170q0 -10 -17 -16t-40.5 -9.5t-44 -4.5t-28.5 -1h-270v-208h150v89q0 10 19 17t49 10.5t62 3.5q33 0 62.5 -3.5t48.5 -10.5t19 -17v-120
q0 -10 -17 -16t-40.5 -9.5t-44 -4.5t-28.5 -1h-410q-8 0 -28.5 1t-44 4.5t-40.5 9.5t-17 16v270q0 10 17 16t40.5 9.5t44 4.5t28.5 1h270v108h-270q-8 0 -28.5 1t-44 4.5t-40.5 9.5t-17 16v180q0 10 17 16t40.5 9.5t44 4.5t28.5 1h230v98h-420z" />
    <glyph glyph-name="DdaYa.dv" horiz-adv-x="1650" 
d="M0 579v62h1650v-62h-50v-579h-260v74q-6 -8 -23 -13t-38 -7.5t-39.5 -3.5t-27.5 -1h-282q-8 0 -28.5 1t-44 4.5t-40.5 9.5t-17 16v170q0 12 22 18.5t52.5 9t57 3t35.5 0.5h19q4 8 4 19v110q0 11 -4 19h-106h-43t-62 1.5t-59.5 7t-35.5 16.5v-4q0 -10 -17 -16t-40.5 -9.5
t-44 -4.5t-28.5 -1h-230v-108h270q8 0 28.5 -1t44 -4.5t40.5 -9.5t17 -16v-232q0 -10 -17 -16t-40.5 -9.5t-44 -4.5t-28.5 -1h-410q-8 0 -28.5 1t-44 4.5t-40.5 9.5t-17 16v130h260v-99h150v170h-270q-8 0 -28.5 1t-44 4.5t-40.5 9.5t-17 16v170q0 10 17 16t40.5 9.5t44 4.5
t28.5 1h230v98h-420zM1060 111h280v468h-660v-88h390q21 0 51 -2t59.5 -9.5t49.5 -24t20 -45.5v-110q0 -29 -21.5 -45.5t-53 -24t-63 -9.5t-52.5 -2v-108z" />
    <glyph glyph-name="DdhaDdha.dv" horiz-adv-x="770" 
d="M0 579v62h770v-62h-50v-129q0 -10 -17 -16t-40.5 -9.5t-44 -4.5t-28.5 -1h-270v-198h150v89q0 10 17 16t40.5 9.5t44 4.5t28.5 1t28.5 -1t44 -4.5t40.5 -9.5t17 -16v-120q0 -10 -17 -16t-40.5 -9.5t-44 -4.5t-28.5 -1h-410q-8 0 -28.5 1t-44 4.5t-40.5 9.5t-17 16v260
q0 10 17 16t40.5 9.5t44 4.5t28.5 1h270v98h-460zM330 -179h150v89q0 10 17 16t40.5 9.5t44 4.5t28.5 1t28.5 -1t44 -4.5t40.5 -9.5t17 -16v-120q0 -10 -17 -16t-40.5 -9.5t-44 -4.5t-28.5 -1h-410q-8 0 -28.5 1t-44 4.5t-40.5 9.5t-17 16v260q0 10 17 16t40.5 9.5t44 4.5
t28.5 1h250v54h260v-85q0 -10 -17 -16t-40.5 -9.5t-44 -4.5t-28.5 -1h-250v-198z" />
    <glyph glyph-name="DdhaYa.dv" horiz-adv-x="1621" 
d="M0 579v62h1620v-62h-50v-579h-260v74q-6 -8 -23 -13t-38 -7.5t-39.5 -3.5t-27.5 -1h-282q-8 0 -28.5 1t-44 4.5t-40.5 9.5t-17 16v170q0 12 22 18.5t52.5 9t57 3t35.5 0.5h19q4 8 4 19v110q0 11 -4 19h-95h-36.5t-53 1t-53.5 5t-38 12v-57q0 -10 -17 -16t-40.5 -9.5
t-44 -4.5t-28.5 -1h-240v-180q0 -11 -0.5 -36t0.5 -49t5 -32h135v129q0 10 16 16t39 9.5t44 4.5t31 1q8 0 28.5 -1t44 -4.5t40.5 -9.5t17 -16v-160q0 -10 -17 -16t-40.5 -9.5t-44 -4.5t-28.5 -1h-350q-21 0 -51 2t-59.5 9.5t-49.5 24t-20 45.5v309q0 10 17 16t40.5 9.5
t44 4.5t28.5 1h240v158h-420zM1030 111h280v468h-630v-88h360q21 0 51 -2t59.5 -9.5t49.5 -24t20 -45.5v-110q0 -29 -21.5 -45.5t-53 -24t-63 -9.5t-52.5 -2v-108z" />
    <glyph glyph-name="DaGa.dv" horiz-adv-x="730" 
d="M0 579v62h730v-62h-50v-168q0 -10 -17 -16t-40.5 -9.5t-44 -4.5t-28.5 -1h-240v-128v-29t1 -37t5 -25h134v98h120q7 0 26 -1t41 -4.5t37.5 -9t15.5 -14.5v-240h-240v109h-74v-199q0 -8 -17.5 -12.5t-36.5 -6t-26 -1.5h-71q-7 0 -26.5 1.5t-36.5 6t-17 12.5v110
q0 8 15 12.5t32.5 6.5t23.5 2v68q-22 0 -50.5 3t-55 11t-43.5 24t-17 43v231q0 10 17 16t40.5 9.5t44 4.5t28.5 1h240v137h-420z" />
    <glyph glyph-name="MaNa.dv" horiz-adv-x="820" 
d="M0 579v62h820v-62h-50v-579h-260v35q-9 -8 -32.5 -13t-51.5 -8t-51.5 -4t-32.5 -1q2 -19 5 -37t3 -37q0 -8 -13 -13.5t-31.5 -9t-35 -5t-22.5 -1.5q-5 0 -18.5 1t-25.5 4.5t-13 10.5l-11 98q-1 11 19 17t48 9.5t52.5 5t33.5 1.5q44 3 88.5 6t88.5 7v224h-100v-169
q0 -10 -17 -16t-40.5 -9.5t-44 -4.5t-28.5 -1h-100q-8 0 -28.5 1t-44 4.5t-40.5 9.5t-17 16v200q0 11 19.5 17t45.5 9t45 4v228h-160zM510 325v254h-100v-228q19 -1 40.5 -4t38.5 -8.5t21 -13.5z" />
    <glyph glyph-name="LlaYa.dv" horiz-adv-x="1780" 
d="M0 579v62h1780v-62h-50v-579h-260v134q-6 -8 -23 -13t-38 -7.5t-39.5 -3.5t-27.5 -1h-282q-7 0 -25 1t-39 3.5t-39 7.5t-24 12h-3v-13q0 -29 -20 -45.5t-49.5 -24t-59.5 -9.5t-51 -2h-138q-10 0 -31 1.5t-44 5t-39 9.5t-16 16v23q-21 -28 -56 -41t-70 -13h-126
q-21 0 -51 2t-59.5 9.5t-49.5 24t-20 45.5v289q0 29 20 45.5t49.5 24t59.5 9.5t51 2h136q9 0 30 -1.5t44 -5t39.5 -9.5t16.5 -16v-23q23 32 62 43.5t76 11.5h116q21 0 51 -2t59.5 -9.5t49.5 -24t20 -45.5v-72h3q8 9 31 14t51 6.5t51 2t31 0.5h19q4 7 4 20.5v21.5v176h-1120z
M1190 171h280v408h-90v-199q0 -29 -21.5 -45.5t-53 -24t-63 -9.5t-52.5 -2v-128zM666 429h-11q-7 -4 -16 -19.5t-16.5 -32t-11.5 -25.5l-80 -163q-10 -22 -21 -45t-25 -44h181q4 9 4 20v290q0 11 -4 19zM314 102h10q8 4 16 19t15.5 32t11.5 25l77 156q11 23 22.5 48t25.5 47
h-178q-4 -8 -4 -19v-289q0 -11 4 -19z" />
    <glyph glyph-name="LlaLla.dv" horiz-adv-x="1600" 
d="M0 579v62h1600v-62h-140v-94q35 -7 62.5 -23.5t27.5 -51.5v-290q0 -29 -20 -45.5t-49.5 -24t-59.5 -9.5t-51 -2h-138q-10 0 -31 1.5t-44 5t-39 9.5t-16 16v23q-21 -28 -54 -39.5t-68 -13.5v-1h-63q-25 0 -51 8t-43.5 26t-17.5 48h-10q0 -30 -17.5 -48.5t-43.5 -26.5
t-51 -8h-141q-11 0 -25.5 2.5t-25.5 10t-11 22.5v17q-22 -27 -56 -39t-68 -12h-126q-21 0 -51 2t-59.5 9.5t-49.5 24t-20 45.5v289q0 29 20 45.5t49.5 24t59.5 9.5t51 2h136q9 0 30 -1.5t44 -5t39.5 -9.5t16.5 -16v-23q23 32 62 43.5t76 11.5h49q25 0 51 -7.5t43.5 -25.5
t17.5 -48v-6h10v6q0 30 17.5 48t43.5 25.5t51 7.5h141q11 0 25.5 -2.5t25.5 -10t11 -22.5v-15q23 29 61 39.5t73 10.5h106v88h-1360zM1286 429h-11q-7 -4 -16 -19.5t-16.5 -32t-11.5 -25.5l-80 -163q-10 -22 -21.5 -45t-25.5 -44h182q4 9 4 20v290q0 11 -4 19zM934 102h10
q8 4 16 19t15.5 32t11.5 25l77 156q11 23 23 48t26 47h-179q-4 -8 -4 -19v-289q0 -11 4 -19zM665 429h-10q-7 -4 -16 -19.5t-16.5 -32t-11.5 -25.5l-80 -163q-10 -22 -21.5 -45t-25.5 -44h181q5 12 5 20v290q0 9 -5 19zM314 102h10q8 4 16 19t15.5 32t11.5 25l77 156
q11 23 23 48t26 47h-179q-4 -8 -4 -19v-289q0 -11 4 -19z" />
    <glyph glyph-name="ShaNa.dv" horiz-adv-x="1020" 
d="M69 137l-56 43v18l357 22v359h-50v-290h-130q-8 0 -28.5 1t-44 4.5t-40.5 9.5t-17 16v290q0 10 17 16t40.5 9.5t44 4.5t28.5 1h310q8 0 28.5 -1t44 -4.5t40.5 -9.5t17 -16v-377h80v377q0 10 17 16t40.5 9.5t44 4.5t28.5 1h180v-62h-50v-579h-260v97q-21 -10 -56.5 -16.5
t-74.5 -11t-71 -7t-47 -3.5q3 -20 6.5 -40.5t3.5 -41.5q0 -10 -16.5 -17t-39 -11t-43 -6t-28.5 -2q-7 0 -24 1.5t-32 5.5t-16 13l-13 110q-1 10 15.5 17t42.5 12t53.5 8t49.5 4.5t30 2.5l260 22v37q-25 2 -49.5 7t-31.5 15q-4 -9 -21 -14t-39.5 -8t-41.5 -4.5t-26 -1.5z" />
    <glyph glyph-name="SaNa.dv" horiz-adv-x="900" 
d="M0 579v62h900v-62h-50v-579h-260v29q-9 -8 -32.5 -13t-51.5 -8t-51.5 -4t-32.5 -1q2 -19 5 -37t3 -37q0 -8 -13 -13.5t-31.5 -9t-35 -5t-22.5 -1.5q-5 0 -18.5 1t-25.5 4.5t-13 10.5l-11 98q-1 11 19 17t48 9.5t52.5 5t33.5 1.5q44 3 88.5 6t88.5 7v191q-13 0 -33 2
t-39.5 5.5t-33 9t-13.5 14.5v31h119v266h-120v-252q0 -11 -19.5 -17t-46 -9t-50 -4t-32.5 -1l138 -211l-256 -10q-5 8 -23.5 35t-42 63t-46 70.5t-37.5 58.5t-15 25q0 10 17 16t40.5 9.5t44 4.5t28.5 1h40v221h-210z" />
    <glyph glyph-name="HaNna.dv" horiz-adv-x="760" 
d="M0 579v62h760v-62h-80v-110q0 -10 -17 -16t-40.5 -9.5t-44 -4.5t-28.5 -1h-240v-48q0 -14 0.5 -36t11.5 -33h238q8 0 28.5 -1t44 -4.5t40.5 -9.5t17 -16v-221q0 -8 -13.5 -12.5t-29.5 -6t-22 -1.5h-180q-6 0 -21.5 1.5t-29.5 6t-14 12.5v190h-34q-12 -7 -14 -27t-2 -33
v-133v-34t5 -32h355v-62h-440q-21 0 -51 2t-59.5 9.5t-49.5 24t-20 45.5v200q0 25 15 38t37.5 18t45.5 6t40 1v10h-44t-52.5 5t-44 18t-17.5 40v114q0 10 17 16t40.5 9.5t44 4.5t28.5 1h240v79h-420zM510 89h50v170h-50v-170z" />
    <glyph glyph-name="HaMa.dv" horiz-adv-x="1130" 
d="M0 579v62h1130v-62h-50v-579h-260v139h-100v-70q0 -9 -15.5 -15t-37 -9.5t-40.5 -4.5t-27 -1h-80q-7 0 -26.5 1t-41 4.5t-37 9.5t-15.5 15v100q0 13 26.5 19.5t53.5 8.5v92h-136q-12 -7 -13 -27.5t-1 -32.5v-163q0 -9 -0.5 -26.5t0.5 -34t4 -23.5h346v-63h-430
q-21 0 -51 2t-59.5 9.5t-49.5 24t-20 45.5v251q0 24 15 37.5t37.5 18.5t45.5 6.5t40 1.5v10q-13 0 -38.5 -0.5t-53 2.5t-47 12.5t-19.5 28.5v102q0 10 17 16t40.5 9.5t44 4.5t28.5 1h240v78h-420zM314 351h276q8 0 28.5 -1t44 -4.5t40.5 -9.5t17 -16v-122q17 -1 38.5 -3.5
t39.5 -7.5t22 -14v406h-140v-109q0 -10 -17 -16t-40.5 -9.5t-44 -4.5t-28.5 -1h-240v-11v-43t4 -34z" />
    <glyph glyph-name="HaYa.dv" horiz-adv-x="1210" 
d="M334 -38h346v-63h-430q-21 0 -51 2t-59.5 9.5t-49.5 24t-20 45.5v271q0 24 15 37.5t37.5 18.5t45.5 6.5t40 1.5v10q-13 0 -38.5 -0.5t-53 2.5t-47 12.5t-19.5 28.5v102q0 10 17 16t40.5 9.5t44 4.5t28.5 1h240v78h-420v62h1210v-62h-50v-579h-260v43q-6 -7 -23 -12
t-38 -7.5t-39 -3.5t-27 -1h-243q-8 0 -28.5 1t-44 4.5t-40.5 9.5t-17 16v131q0 12 21.5 18t51.5 9t56 3.5t35 0.5h8v77h-228q-12 -7 -13 -27.5t-1 -32.5v-186q0 -9 -0.5 -25.5t0.5 -32.5t4 -23zM314 351h388q8 0 28.5 -1t44 -4.5t40.5 -9.5t17 -16v-139q0 -10 -15 -16
t-38.5 -9t-48 -4.5t-44 -2t-26.5 -0.5v-68h240v498h-220v-109q0 -10 -17 -16t-40.5 -9.5t-44 -4.5t-28.5 -1h-240v-11v-43t4 -34z" />
    <glyph glyph-name="HaVa.dv" horiz-adv-x="760" 
d="M0 579v62h760v-62h-80v-110q0 -10 -17 -16t-40.5 -9.5t-44 -4.5t-28.5 -1h-240v-48q0 -14 0.5 -36t11.5 -33h238q8 0 28.5 -1t44 -4.5t40.5 -9.5t17 -16v-250h-130v25q-3 -7 -16.5 -10.5t-27.5 -4.5t-20 -1h-56q-6 0 -21.5 1.5t-29.5 6t-14 12.5v131q0 8 11.5 12t27 6
t29.5 2h19q6 0 20 -0.5t30 -2t27 -5.5t11 -12v-20h-45v-91h55v170h-214q-12 -7 -14 -27t-2 -33v-134v-34t4 -31h356v-62h-440q-21 0 -51 2t-59.5 9.5t-49.5 24t-20 45.5v200q0 25 15 38t37.5 18t45.5 6t40 1v10h-44t-52.5 5t-44 18t-17.5 40v114q0 10 17 16t40.5 9.5t44 4.5
t28.5 1h240v79h-420z" />
    <glyph glyph-name="JaNya.dv" horiz-adv-x="1020" 
d="M0 579v62h1020v-62h-50v-579h-260v409h-400v-98h210q8 0 28.5 -1t44 -4.5t40.5 -9.5t17 -16v-190q0 -10 -17 -16t-40.5 -9.5t-44 -4.5t-28.5 -1h-200v-69h-260v149q0 10 17 16t40.5 9.5t44 4.5t28.5 1h130v-49h70v128h-210q-8 0 -28.5 1t-44 4.5t-40.5 9.5t-17 16v160
q0 10 17 16t40.5 9.5t44 4.5t28.5 1h401q10 0 29 -1t40.5 -4t38 -8t21.5 -14v135h-710z" />
    <glyph glyph-name="vowelIiBindu.dv" horiz-adv-x="740" 
d="M0 579v62h484l-65 128q-10 21 -9 46t11 48t25.5 37.5t34.5 14.5h223l-28 -106h-188l84 -168h168v-62h-90v-139q0 -10 -17 -16t-40.5 -9.5t-44 -4.5t-28.5 -1h-210v-98h250q8 0 28.5 -1t44 -4.5t40.5 -9.5t17 -16v-190q0 -10 -17 -16t-40.5 -9.5t-44 -4.5t-28.5 -1h-240
v-69h-260v149q0 10 17 16t40.5 9.5t44 4.5t28.5 1h130v-49h110v128h-250q-8 0 -28.5 1t-44 4.5t-40.5 9.5t-17 16v160q0 10 17 16t40.5 9.5t44 4.5t28.5 1h210v108h-390zM683 767v-73q0 -4 -11 -6.5t-23 -3.5t-16 -1h-50v73q0 5 11 7t23 3t16 1h50z" />
    <glyph glyph-name="KamatraLru.dv" horiz-adv-x="1100" 
d="M0 579v62h1100v-62h-420v-106q4 9 21 14t38.5 8t41 4t28.5 1h111q8 0 28.5 -1t44 -4.5t40.5 -9.5t17 -16v-309q0 -10 -17 -16t-40.5 -9.5t-44 -4.5t-28.5 -1h-67q-9 0 -28.5 1t-41 4t-38.5 8t-21 14q-1 2 -1 5v5v25h67v247h-110v-368h-260v106q-4 -9 -21 -14t-38.5 -8
t-41 -4t-28.5 -1h-111q-8 0 -28.5 1t-44 4.5t-40.5 9.5t-17 16v289q0 10 17 16t40.5 9.5t44 4.5t28.5 1h69q10 0 31 -1t44 -4.5t39 -9.5t16 -16v-31h-69v-227h110v368h-420zM509 -209v-40h-133q-13 0 -32 1.5t-38 6.5t-31.5 15.5t-12.5 28.5v196q0 18 12.5 28.5t31.5 15.5
t38 6.5t32 1.5h85q8 0 28 -2t37.5 -6.5t17.5 -12.5v-7q16 16 38.5 22t43.5 6h80q13 0 32 -1t38 -6t31.5 -15.5t12.5 -28.5v-197q0 -22 -18 -33t-43.5 -14t-46.5 -4v-33q0 -8 1 -16.5t5 -12.5h88v-28h-119q-15 0 -36 2.5t-37 12.5t-16 31v70q0 7 18 10t30 3h7q3 6 3 12v197
q0 6 -3 12h-14q-8 -5 -15.5 -22.5t-12.5 -26.5l-42 -84l-96 6l40 82q11 24 24 44h-108q-1 -2 -1.5 -5.5t-0.5 -6.5v-196q0 -3 0.5 -6t1.5 -6h80z" />
    <glyph glyph-name="KamatraLruu.dv" horiz-adv-x="1100" 
d="M0 579v62h1100v-62h-420v-106q4 9 21 14t38.5 8t41 4t28.5 1h111q8 0 28.5 -1t44 -4.5t40.5 -9.5t17 -16v-309q0 -10 -17 -16t-40.5 -9.5t-44 -4.5t-28.5 -1h-67q-9 0 -28.5 1t-41 4t-38.5 8t-21 14q-1 2 -1 5v5v25h67v247h-110v-368h-260v106q-4 -9 -21 -14t-38.5 -8
t-41 -4t-28.5 -1h-111q-8 0 -28.5 1t-44 4.5t-40.5 9.5t-17 16v289q0 10 17 16t40.5 9.5t44 4.5t28.5 1h69q10 0 31 -1t44 -4.5t39 -9.5t16 -16v-31h-69v-227h110v368h-420zM731 -393q0 -7 1 -13t5 -11h86v-27h-118q-15 0 -35.5 2.5t-36.5 12t-16 30.5v28q0 19 16 28.5
t32 9.5h16v10h-16q-22 0 -44.5 10.5t-22.5 34.5v56q0 7 18 10t30 3h7q3 6 3 12v197q0 6 -3 12h-14q-8 -5 -15.5 -22.5t-12.5 -26.5l-42 -84l-96 6l40 82q11 24 24 44h-108q-1 -2 -1.5 -5.5t-0.5 -6.5v-196q0 -3 0.5 -6t1.5 -6h80v-40h-133q-13 0 -32 1.5t-38 6.5t-31.5 15.5
t-12.5 28.5v196q0 18 12.5 28.5t31.5 15.5t38 6.5t32 1.5h85q8 0 28 -2t37.5 -6.5t17.5 -12.5v-7q16 16 38.5 22t43.5 6h80q13 0 32 -1t38 -6t31.5 -15.5t12.5 -28.5v-197q0 -22 -18 -33t-43.5 -14t-46.5 -4v-33q0 -7 0.5 -14.5t3.5 -12.5h91v-33h-65q-8 -7 -9.5 -17.5
t-1.5 -20.5v-14z" />
    <glyph glyph-name="PamatraLru.dv" horiz-adv-x="730" 
d="M0 579v62h730v-62h-50v-509h-260v136q-4 -9 -21 -14t-38.5 -8t-41 -4t-28.5 -1h-111q-8 0 -28.5 1t-44 4.5t-40.5 9.5t-17 16v369h-50zM310 241h110v338h-110v-338zM369 -209v-40h-133q-13 0 -32 1.5t-38 6.5t-31.5 15.5t-12.5 28.5v196q0 18 12.5 28.5t31.5 15.5t38 6.5
t32 1.5h85q8 0 28 -1t37.5 -5t17.5 -12v-10q16 16 38.5 22t43.5 6h80q13 0 32 -1t38 -6t31.5 -15.5t12.5 -28.5v-197q0 -22 -18 -33t-43.5 -14t-46.5 -4v-33q0 -8 1 -16.5t5 -12.5h88v-28h-119q-15 0 -36 2.5t-37 12.5t-16 31v70q0 7 18 10t30 3h7q3 6 3 12v197q0 6 -3 12
h-14q-8 -5 -15.5 -22.5t-12.5 -26.5l-42 -84l-96 6l40 82q5 11 10.5 22.5t12.5 21.5h-107q-1 -2 -1.5 -5.5t-0.5 -6.5v-196q0 -3 0.5 -6t1.5 -6h80z" />
    </font>
</defs>
</svg>
